<defs>
<font horiz-adv-x="282" ><font-face
    font-family="learningcurve-ot"
    units-per-em="1000"
    panose-1="2 0 0 0 0 0 0 0 0 0"
    ascent="749"
    descent="-250"
    alphabetic="0" />
<missing-glyph horiz-adv-x="266" />
<glyph unicode=" " glyph-name="space" horiz-adv-x="266" />
<glyph unicode="!" glyph-name="exclam" horiz-adv-x="500" d="M367 598Q379 593 368 572Q363 559 351 533L270 342L213 211Q211 205 206 204Q199 201 194 206T192 219L197 230L224 294L308 490L341 566L350 587Q357 603 367 598ZM162 54T162 62T157 75T144 81Q125
81 125 62Q125 54 130 49T144 44T157 49Z" />
<glyph unicode="&quot;" glyph-name="quotedbl" horiz-adv-x="210" d="M277 619Q288 614 282 604Q282 602 281 601L270 577Q267 571 261 559T253 542L239 512L235 504L234 503Q233 498 226 496Q218 496 214 502Q211 507 214 512L216 517L228 543L245 578L259 607L262
613Q264 616 265 617Q270 622 277 619ZM340 619Q350 613 345 604Q344 603 344 601L332 577L316 542L297 504V503Q294 498 289 496Q280 496 277 502Q274 506 276 512L279 517L291 543Q293 547 299 559T308 578L321 607L324 613L327 617Q332 622 340 619Z" />
<glyph unicode="#" glyph-name="numbersign" horiz-adv-x="483" d="M438 479Q444 479 447 474T449 464Q447 458 440 456H351L350 454L341 433L326 400L310 364L297 335Q296 333 295 330T292 324H371Q379 322 380 315Q382 310 379 306T369 301H282L281 300L278
293L266 266Q256 242 250 230L235 197L226 175L225 173Q224 171 223 170Q217 164 211 167Q205 169 203 176Q203 180 205 184L209 192L222 222L238 258Q242 268 252 288Q253 293 257 301H127L126 300L123 293L111 266Q101 242 95 230L80 197L71 175L70 173Q69 171
68 170Q62 164 56 167Q50 169 48 176Q48 180 50 184L54 192L67 222L83 258Q87 268 97 288Q98 293 102 301H25Q19 301 16 305T14 316T23 324H112L113 326L122 347L137 380L153 416L166 444L171 456H92Q85 458 83 464T84 474T94 479H181L182 480L185 487L197 514Q207
538 213 550L228 583L237 604L240 610Q246 616 252 613Q258 611 260 603Q260 600 258 596Q256 593 254 587L241 558L225 522Q221 512 211 492Q210 487 206 479H336L337 480L340 487L352 514Q362 538 368 550L383 583L392 604L395 610Q401 616 407 613Q413 611 415
603Q415 600 413 596Q411 593 409 587L396 558L380 522L366 492Q365 487 361 479H438ZM267 324Q268 325 268 326L277 347L292 380L308 416L321 444L326 456H196L195 454L186 433L171 400L155 364L142 335Q141 333 140 330T137 324H267Z" />
<glyph unicode="$" glyph-name="dollar" horiz-adv-x="312" d="M240 551Q261 539 273 518Q282 504 287 480Q289 474 288 471Q286 463 279 463Q272 462 267 468L265 475Q265 476 265 478T264 482Q258 500 253 509Q245 521 232 531L231 530Q227 523 226 516L213
487L198 450L184 416L174 392Q172 388 172 386Q171 386 172 385L184 370Q211 339 221 318Q234 294 231 271Q230 258 224 247Q216 233 209 227Q191 211 161 207Q133 202 106 210Q104 210 100 212Q99 212 99 211Q97 207 97 206L89 188Q89 186 87 182L84 177Q79 170
72 174Q66 176 64 184Q64 186 66 190T68 196L76 214Q76 215 78 219V220L71 224Q57 233 49 242Q29 262 29 291Q29 295 30 297Q32 301 34 303Q42 307 47 303Q49 302 51 298Q52 296 52 292Q52 282 54 277Q60 255 87 241L88 243L97 264L110 297L125 333L138 364Q139
367 141 372T145 380Q145 381 144 382L132 396Q119 409 113 420Q95 446 93 478Q93 509 111 533Q131 558 159 565Q174 568 188 567Q197 567 206 564Q208 564 214 562L220 561Q223 570 231 588Q234 595 236 601Q238 605 240 606Q246 610 253 607Q260 603 258 596Q258
595 258 594L257 592L251 578L240 551ZM200 251Q207 261 208 271Q212 288 200 311Q190 327 184 334Q180 340 172 350T162 362Q161 362 161 361L154 343Q151 337 147 326T140 311L125 275L113 245L108 233Q130 226 155 229Q172 231 182 236Q194 241 200 251ZM155
404L156 406Q156 407 156 408L165 429L179 463L194 499L206 528L211 540Q206 542 192 544Q186 545 173 545Q142 542 126 514Q117 500 116 487Q114 472 119 458Q124 442 134 429Q137 425 155 404Z" />
<glyph unicode="%" glyph-name="percent" horiz-adv-x="470" d="M406 603Q404 600 402 596L396 585L387 569L375 549L362 526L347 499Q344 494 338 484T330 470Q318 450 313 439Q306 428 294 406L274 373L255 338Q238 308 235 303L215 269Q213 266 206 254T196
235L178 203L160 173L144 144L130 119Q128 116 117 97L106 78Q105 76 98 64L93 54L90 50Q86 44 80 44T71 50T71 61L73 65L78 75L99 110L113 135L129 163Q134 173 146 193Q158 215 165 226Q167 229 174 241T184 260L204 294Q207 299 224 329L243 363L261 395L279
426Q289 444 295 453L308 477L320 497Q326 507 328 512L334 522L336 525Q317 513 290 501Q257 488 225 484H223V482Q222 480 222 477Q220 471 220 468Q216 456 215 450L202 419Q190 393 171 367Q153 344 132 330Q110 317 92 316Q78 316 65 323Q53 331 45 343Q33
363 31 395Q30 429 39 464Q49 500 64 526Q77 553 98 575Q119 596 138 605Q160 617 182 611Q207 605 220 572Q230 547 226 507Q227 507 229 507T232 508Q260 513 285 523Q313 536 335 553Q360 573 375 595L383 608Q385 610 385 612Q386 613 386 614L388 616Q390
618 391 618Q392 619 393 619L395 620H398Q399 619 400 619Q402 619 403 618L406 615V614Q407 612 407 611V607Q407 604 406 603ZM376 329Q388 329 399 323Q421 311 430 280Q436 254 433 218Q428 181 415 149Q400 114 385 94Q369 70 348 53Q328 38 308 34Q295 32
284 35Q270 38 260 50Q245 65 239 99Q235 129 243 165Q249 198 265 230Q281 263 297 282Q314 304 336 317Q359 330 376 329ZM403 183Q413 221 412 252Q411 266 406 280Q400 295 392 301Q376 314 350 300Q329 286 313 266Q292 239 281 212Q266 175 262 143Q260 121
261 110Q263 91 266 82Q270 71 280 61Q289 54 304 56Q323 59 341 77Q362 96 377 122Q394 151 403 183ZM196 466L200 483H190Q152 485 128 501Q118 510 110 522Q104 535 105 547Q88 525 75 497Q59 463 55 427Q53 404 54 393Q54 381 59 366Q65 351 73 345Q84 337
96 339Q115 343 134 360T170 405Q187 434 196 466ZM203 505Q206 520 204 539Q202 555 197 567Q192 581 180 587Q169 593 151 587L143 583L138 580Q137 579 136 579Q136 578 135 578V577L132 570L129 562Q126 548 128 538Q131 526 142 520Q152 511 169 508T203 505Z"
/>
<glyph unicode="&amp;" glyph-name="ampersand" horiz-adv-x="361" d="M434 261Q433 257 429 251Q428 249 427 247T423 243T420 239Q413 230 384 201Q359 178 334 157L307 134Q306 133 293 123L289 120Q288 120 288 119Q287 119 287 118L290 109L311 54L317 41Q317
39 318 38Q320 30 313 25Q306 22 300 26Q298 28 296 32L290 46Q282 65 268 103Q223 71 218 68Q192 50 159 36Q123 24 97 21Q65 17 43 24Q18 31 4 46Q-13 66 -11 97Q-8 125 8 152Q21 177 44 203Q62 223 94 250Q119 272 152 297Q162 304 182 320Q187 323 197 331L201
334Q203 334 201 336V338L199 348Q192 394 192 425Q190 462 196 493Q201 526 215 550Q220 559 233 574Q242 584 258 595Q284 612 311 611Q339 611 362 591Q384 572 394 541Q397 526 397 510Q395 495 389 480Q380 457 359 435Q336 411 311 390Q281 365 252 343L236
332L228 326L227 325V324V321Q227 320 227 319T228 317Q236 282 237 279Q250 227 257 206L278 140Q307 163 333 186L381 229L398 247L409 260L412 265Q412 266 413 267L416 273Q424 277 429 273Q436 268 434 261ZM192 78Q208 88 236 108L256 123L257 124H258L259
125Q260 125 259 126L257 133Q248 158 246 165Q234 200 225 234Q217 264 206 310Q205 308 201 306Q148 265 139 258Q101 228 83 211Q55 183 41 163Q33 152 24 135Q16 118 13 105Q10 90 13 76Q18 63 28 56Q42 45 68 43Q93 40 126 49Q157 57 192 78ZM244 553L240
547Q225 527 218 493Q212 462 214 425Q215 390 222 349L266 382Q298 407 320 428Q346 452 359 471Q368 487 370 492Q376 506 374 523Q371 555 346 574Q334 584 321 587Q309 590 295 587Q271 582 244 553Z" />
<glyph unicode="&apos;" glyph-name="quotesingle" horiz-adv-x="215" d="M289 619Q300 614 294 604Q294 602 293 601L282 577Q279 571 273 559T265 542L251 512L247 504L246 503Q245 498 238 496Q230 496 226 502Q223 507 226 512L228 517L240 543L257 578L271
607L274 613Q276 616 277 617Q282 622 289 619Z" />
<glyph unicode="(" glyph-name="parenleft" horiz-adv-x="350" d="M447 616Q436 616 425 613Q405 605 396 599Q384 592 364 576Q348 563 331 544T297 504Q285 489 263 457Q249 437 230 405Q223 394 212 373T197 347L167 285Q157 263 139 219Q130 196 114 148Q102
112 93 76Q85 45 78 9Q72 -23 69 -53Q67 -71 67 -107Q67 -133 71 -153Q78 -179 82 -189Q95 -214 113 -221Q116 -222 121 -223T127 -224Q132 -224 134 -225Q138 -227 139 -229Q142 -236 138 -242Q136 -244 132 -246H125Q112 -246 98 -239Q86 -232 75 -220Q67 -211
57 -187Q51 -168 48 -147Q45 -131 45 -98Q45 -70 48 -42Q51 -12 57 20Q62 52 72 88Q86 136 94 159Q110 207 120 231Q130 257 148 296Q162 330 178 358Q202 403 209 415L242 468Q259 493 276 514Q298 542 310 555L344 588Q354 597 376 613Q392 624 408 630Q423 637
437 638Q450 640 455 635T457 623T447 616Z" />
<glyph unicode=")" glyph-name="parenright" horiz-adv-x="415" d="M292 635Q317 635 335 620Q352 606 360 585Q366 571 372 547Q376 526 376 500Q377 482 375 446Q371 406 367 385Q359 341 353 319Q341 271 333 248Q326 223 308 175Q296 142 281 109Q270 83 251
46L220 -13Q204 -42 187 -66Q178 -81 154 -114Q136 -139 120 -156Q106 -173 86 -191Q73 -204 53 -219Q35 -232 21 -238Q9 -245 -9 -248Q-19 -250 -23 -250Q-30 -250 -33 -247Q-40 -242 -36 -235Q-34 -229 -26 -227H-19Q-12 -227 -6 -224Q8 -221 24 -211Q35 -205
55 -189Q71 -176 88 -157Q94 -151 122 -118Q125 -114 156 -72Q168 -55 190 -19Q212 19 222 38Q241 74 252 100Q262 121 280 165Q301 221 306 236Q318 272 327 308Q334 336 343 376Q349 406 352 438Q355 468 354 493Q354 519 350 539Q347 560 340 576Q329 600 311
609L297 612H290L284 615Q279 622 282 628Q286 635 292 635Z" />
<glyph unicode="*" glyph-name="asterisk" horiz-adv-x="411" d="M360 541Q366 544 372 541Q377 538 377 532T373 522L352 508L323 489L290 468L259 447L236 432L227 426L234 418L259 394L293 360L295 358Q298 356 298 351Q300 344 292 340Q284 337 279 342Q278
345 275 346L226 395Q224 397 222 399T217 404T213 408H212L205 391Q202 385 198 374T191 359Q181 335 175 323L165 299Q163 297 163 295Q160 288 153 288Q145 288 142 295Q140 300 142 304Q143 305 143 306L147 315Q159 341 161 347L176 381L183 397Q176 392 175
392Q167 386 151 376L118 354L87 333L64 318L58 315L57 314Q52 310 46 314Q40 316 40 322T45 333L66 347L94 365Q105 373 127 387L159 408L182 423L191 429L183 437L158 461L132 487L123 496Q121 498 119 504Q119 512 126 515T138 513L142 509L165 487L205 447L212
463L227 496L242 531L253 556L255 560Q256 565 264 567Q272 567 275 560Q278 556 275 551Q275 550 274 549Q272 543 270 540Q265 525 256 508L241 474Q238 464 234 458L239 461L261 475L292 496L324 517L350 534Q359 540 360 541Z" />
<glyph unicode="+" glyph-name="plus" horiz-adv-x="384" d="M335 290Q340 290 343 286T346 278Q346 267 335 267H194H192Q192 266 192 265T190 262L180 236Q168 208 166 201L152 166L142 143V142Q141 140 141 139Q138 133 131 132Q124 132 120 139Q118 144 120
148L121 149L124 157L136 186Q140 199 150 223L163 254Q164 259 168 267H39Q33 267 30 272T28 283Q32 290 39 290H177L179 294L188 316L201 351L216 387L228 416Q229 421 233 429Q235 434 240 436Q247 437 252 432Q255 425 254 421L253 420L246 401L233 369L218
332L206 302L201 290H335Z" />
<glyph unicode="," glyph-name="comma" horiz-adv-x="233" d="M167 53Q165 33 138 -8L122 -31Q115 -40 106 -35Q96 -29 102 -20Q104 -16 109 -9T116 1Q123 9 129 20Q130 22 133 28T139 39Q140 41 139 42L135 45Q132 47 130 52Q126 62 132 70T149 77Q164 76 167 57V53Z" />
<glyph unicode="-" glyph-name="hyphen" horiz-adv-x="436" d="M345 273Q350 273 354 270Q359 265 356 257Q353 251 345 251H139Q130 251 128 252Q121 256 121 262Q121 270 128 273H345Z" />
<glyph unicode="." glyph-name="period" horiz-adv-x="139" d="M130 73Q130 63 124 57T107 50Q98 50 92 56T85 73Q85 82 91 88T107 95Q117 95 123 89T130 73Z" />
<glyph unicode="/" glyph-name="slash" horiz-adv-x="351" d="M-11 586V609H379Q380 609 380 598V586H251H235L232 577L211 525Q197 491 172 429T137 343L58 150L22 60H353Q355 37 353 37H-36Q-37 37 -37 47V59Q-37 60 -34 60H-10H-2L1 70L22 121Q36 155 61 217T96
303L175 496L211 586H-11Z" />
<glyph unicode="0" glyph-name="zero" horiz-adv-x="357" d="M282 596Q325 596 346 559T372 473Q377 387 343 284Q311 189 262 122Q213 54 161 29Q130 16 107 19Q69 25 47 63Q17 118 29 219Q40 312 86 408Q126 491 179 544Q233 596 282 596ZM328 311L340 357Q350
409 350 452T338 527Q321 569 288 573Q265 576 237 560Q188 532 138 455Q87 376 64 281Q50 226 49 182Q46 140 56 102Q68 59 93 47Q116 34 150 49Q199 71 250 144Q300 219 328 311Z" />
<glyph unicode="1" glyph-name="one" horiz-adv-x="258" d="M256 591L232 532L160 353Q150 328 121 255T76 145Q46 73 32 37L31 35Q27 26 18 28T9 40Q11 46 13 49L31 96Q81 216 109 286L187 480L224 572Q218 569 187 553Q180 550 174 554T170 566Q171 570 182
576L227 598L240 605Q247 608 253 603T256 591Z" />
<glyph unicode="2" glyph-name="two" horiz-adv-x="422" d="M331 598Q365 578 381 541T396 461Q395 425 378 369Q367 334 347 292Q285 173 154 92Q163 89 182 83T213 73T241 66T273 62Q305 60 328 75Q334 78 340 84T351 89Q361 89 361 80Q362 74 356 68Q309 22
207 51Q195 54 138 74Q136 74 130 76Q128 76 124 75L113 69L91 58Q61 45 53 43Q7 29 -11 43Q-24 55 -21 70T-4 95Q38 130 122 102Q125 101 131 104Q135 106 137 108Q145 112 149 115L175 132Q211 160 228 175Q280 223 317 284Q363 366 373 448Q377 492 361 531T307
585Q268 600 225 582T152 529Q124 495 125 466Q125 458 127 454Q132 445 129 440Q123 428 113 436Q110 438 105 448Q96 474 114 512Q133 549 170 577T247 611T331 598ZM35 61Q63 69 97 86Q44 98 15 81Q10 78 4 72T2 62Q9 54 35 61Z" />
<glyph unicode="3" glyph-name="three" horiz-adv-x="404" d="M198 595Q237 615 278 621Q327 629 366 614Q403 598 419 561Q435 520 419 468Q394 384 315 325Q326 315 335 302Q372 242 326 147Q288 73 214 43Q152 19 83 28Q-16 43 -38 105Q-42 117 -39 122Q-32
131 -23 126Q-22 125 -16 111Q-13 103 -9 98Q9 71 53 58Q126 35 200 62Q235 75 264 101Q294 128 312 172Q334 221 327 260Q322 286 308 301L298 310Q296 312 294 311L289 308Q275 300 268 297Q214 273 178 280Q165 282 158 290Q146 303 159 322Q177 345 219 351Q245
356 269 350Q282 347 292 341Q296 340 297 341L302 344Q308 348 311 351Q392 417 403 499Q412 550 379 580Q355 601 312 601Q273 602 232 586Q213 579 193 566Q174 555 167 543Q166 541 166 537T165 530T162 525T157 521Q148 518 145 525T143 542Q150 570 198 595ZM211
303Q242 307 273 325Q227 342 186 316Q184 315 183 314T178 310T175 306T178 303Q189 299 211 303Z" />
<glyph unicode="4" glyph-name="four" horiz-adv-x="381" d="M393 600Q394 598 394 594Q394 592 392 588T389 581Q386 575 376 550Q358 510 336 456L278 319Q300 319 311 320Q321 320 326 321H338Q350 319 346 306Q344 300 332 298Q318 297 289 297Q288 297 283
297T273 296H268Q268 295 267 295L264 288Q244 238 233 214Q187 104 163 49Q163 48 162 46Q159 39 153 39T143 43T141 54L147 68L182 150L243 295Q188 294 78 294H37Q27 294 26 302T31 317L136 404L300 542L358 590Q359 591 362 593T367 598T373 602T379 606T384
607T389 606T393 600ZM253 318Q285 394 293 412L354 558L322 531Q218 443 165 400L65 316Q127 316 253 318Z" />
<glyph unicode="5" glyph-name="five" horiz-adv-x="393" d="M139 391Q256 437 317 372Q373 315 337 209Q306 119 234 68Q149 8 68 43Q28 60 14 93Q5 114 9 133Q13 147 17 154Q25 167 30 168T39 167T44 159Q44 156 43 153T39 146T35 140Q26 123 34 104Q43 78 79
63Q124 47 164 58T240 102Q311 165 325 255Q332 306 314 340Q297 371 261 381Q213 396 144 369Q126 361 117 356Q105 349 100 362Q99 367 102 373L192 524L232 592Q239 604 246 604H418Q429 604 429 593T418 581H254Q252 581 249 576L240 561L209 509L139 391Z"
/>
<glyph unicode="6" glyph-name="six" horiz-adv-x="340" d="M300 602Q306 606 311 603T317 594T312 583L309 580L286 562Q162 462 93 333Q168 388 240 359Q300 334 309 259Q318 187 276 115Q233 37 159 24Q118 16 81 33T27 88Q-2 148 32 250Q75 383 189 503Q242
561 300 602ZM196 345Q139 348 89 303Q78 292 69 280Q64 273 55 249Q41 208 37 178Q32 125 49 93Q68 57 109 47Q152 37 194 60Q223 75 245 107Q292 175 288 247Q285 286 265 313Q239 343 196 345Z" />
<glyph unicode="7" glyph-name="seven" horiz-adv-x="329" d="M363 590Q365 584 360 575L303 460Q263 377 212 277L125 102L100 51L94 39Q94 38 93 37Q89 31 84 31T74 36T73 47Q75 53 85 70L115 131L206 315L293 491L335 574H121Q101 574 100 584Q99 593 104 595T120
597H344Q360 597 363 590Z" />
<glyph unicode="8" glyph-name="eight" horiz-adv-x="328" d="M400 551Q408 542 397 521Q391 510 374 491Q346 461 250 383L208 349L201 344Q199 343 201 339L208 328L220 306L247 260Q293 181 263 116Q232 50 140 33Q91 24 51 33Q12 42 -3 70Q-19 98 -3 147Q12
188 41 227Q57 250 98 287Q111 299 137 321L159 339L169 347Q171 348 169 352L166 358Q109 479 153 542Q194 603 284 610Q328 612 359 599Q378 592 390 580Q405 563 400 551ZM213 274Q202 292 182 328Q111 270 86 245Q58 217 36 178Q12 134 12 106Q11 77 35 63T88
51T141 56Q184 65 215 91T251 159Q256 200 233 239L213 274ZM381 542Q381 545 382 546T381 549Q379 550 379 551L377 559Q374 564 365 571Q347 582 320 586Q233 598 181 542Q129 484 189 363Q292 447 315 466Q355 503 362 511Q381 533 381 542Z" />
<glyph unicode="9" glyph-name="nine" horiz-adv-x="293" d="M173 581L189 589Q236 607 276 593Q313 579 328 544Q356 483 316 384Q293 326 240 250Q201 194 148 132Q102 80 78 55L63 40Q57 34 49 39T45 53Q46 54 51 60Q162 171 240 291Q209 269 175 266T107 285Q43
335 75 447Q103 541 173 581ZM303 413Q331 499 303 543Q281 579 235 577Q192 574 157 541Q124 511 105 467T87 377Q89 330 118 305Q148 281 190 291Q227 301 256 332Q284 361 303 413Z" />
<glyph unicode=":" glyph-name="colon" horiz-adv-x="292" d="M214 88Q214 76 206 68T186 60Q175 60 168 68T160 88Q160 98 168 106T186 114Q198 114 206 107T214 88ZM343 414T343 403T335 384T316 376T297 384T289 403T297 422T316 431T335 423Z" />
<glyph unicode=";" glyph-name="semicolon" horiz-adv-x="418" d="M155 64Q153 41 121 -10Q118 -15 111 -23T101 -37Q93 -48 82 -42Q72 -35 77 -24L94 1Q100 8 110 24Q111 27 115 34T122 47Q123 49 122 50L117 54Q113 56 111 62Q106 74 114 84T134 92Q152 90 155
69V64ZM272 341Q272 331 265 325T249 318T233 324T226 341Q226 350 233 356T249 362T265 356T272 341Z" />
<glyph unicode="&lt;" glyph-name="less" horiz-adv-x="316" d="M1 586V607Q1 609 3 609H315V588Q315 586 313 586H1ZM1 37V58Q1 60 3 60H315V39Q315 37 313 37H1ZM161 320V301Q161 297 159 297H1V313Q1 320 3 320H161Z" />
<glyph unicode="=" glyph-name="equal" horiz-adv-x="387" d="M332 372Q337 372 340 369Q345 364 342 356Q339 350 332 350H87Q78 350 76 351Q69 354 69 361T76 372H332ZM290 282Q295 282 298 279Q303 275 301 266Q298 260 290 260H46Q36 260 35 261Q28 264 28
271T35 282H290Z" />
<glyph unicode="&gt;" glyph-name="greater" horiz-adv-x="316" d="M1 586V607Q1 609 3 609H315V588Q315 586 313 586H1ZM1 37V58Q1 60 3 60H315V39Q315 37 313 37H1ZM161 320V301Q161 297 159 297H1V313Q1 320 3 320H161Z" />
<glyph unicode="?" glyph-name="question" horiz-adv-x="490" d="M162 59Q162 67 157 72T143 77Q136 77 131 72T125 59Q125 51 130 46T143 40Q162 40 162 59ZM461 535Q473 474 425 402Q400 365 367 335Q353 322 326 301T291 273Q249 236 229 206Q222 195 213 204Q205
210 211 220Q223 238 239 254Q260 277 311 318T385 386Q439 449 440 510Q442 546 418 567Q387 593 338 584Q299 576 267 545T216 472Q211 457 208 446Q208 436 199 433Q188 431 186 442Q185 448 190 467Q197 486 204 498Q225 538 259 568T335 606Q384 615 419 594Q453
574 461 535Z" />
<glyph unicode="@" glyph-name="at" horiz-adv-x="617" d="M595 397Q600 370 597 344T586 290Q580 270 567 240Q561 226 547 200Q545 197 539 187T530 173Q528 168 516 152Q493 118 473 97Q449 69 434 58Q418 44 399 35Q383 28 368 28Q355 30 346 36Q335 44 332
58Q329 71 331 88Q332 106 337 124Q316 95 294 73Q269 47 243 36Q210 22 186 33Q166 43 159 69Q154 88 160 117Q167 144 182 173Q201 204 224 229Q250 255 275 273Q299 289 323 299Q345 307 363 310Q380 313 396 313Q408 313 418 310Q421 310 427 308H428L429 307L430
306L433 303Q434 302 434 301T435 299Q435 298 434 296V295V293Q433 292 433 291L432 289L429 283Q425 276 417 260Q408 243 392 209Q375 167 371 156Q362 132 356 108Q351 81 353 71Q353 64 356 58Q362 49 373 51Q387 51 403 62Q419 72 439 92Q454 109 480 140Q483
144 488 152T498 166T507 179Q515 191 519 198Q531 216 539 233Q553 263 558 279Q568 305 572 330Q577 361 575 381Q573 396 568 407Q564 419 554 430Q538 449 506 461Q482 469 451 471Q423 472 389 466Q358 460 323 447Q295 435 259 415Q225 393 209 380Q187 364
165 342Q152 329 128 301Q110 277 98 257Q85 237 74 213T56 167Q48 137 45 122T40 77Q40 48 41 34Q45 9 48 -6Q56 -32 62 -45Q76 -72 92 -90Q111 -109 132 -119T181 -132Q206 -133 235 -127Q245 -125 250 -123Q261 -121 264 -122Q271 -124 271 -132Q269 -140 263
-143Q233 -153 206 -154Q177 -156 153 -150T107 -130Q84 -116 68 -97Q49 -71 40 -49Q32 -32 27 -12Q23 3 19 29Q17 58 18 72Q18 87 22 117Q24 132 32 162Q36 178 48 208Q55 227 70 253Q76 265 98 298Q108 312 132 340Q153 363 172 379Q198 402 219 416Q248 435
274 449Q313 468 341 477Q372 487 406 492Q443 496 467 492Q497 489 521 479Q551 468 570 446T595 397ZM231 55Q240 59 256 69Q276 84 293 105Q306 119 328 149Q352 186 356 193Q361 203 367 212Q367 213 368 214T370 217T371 220Q373 224 373 224L375 226L376
227V228L377 230L378 232Q394 267 406 289Q405 290 402 290Q393 291 373 289Q359 288 335 280Q319 274 289 256Q261 236 239 211Q212 182 197 154Q184 126 180 101Q178 77 185 64Q192 53 205 51Q217 50 231 55Z" />
<glyph unicode="A" glyph-name="A" horiz-adv-x="486" d="M539 177Q543 182 549 181T558 174T550 155L521 121Q484 79 449 52Q417 28 390 24Q372 22 357 30T337 55Q329 79 341 122Q349 153 373 215Q330 157 291 119Q214 44 148 33Q106 26 76 46Q47 65 35 102Q17
155 33 229Q51 311 108 393Q214 549 366 595Q414 609 454 610Q505 610 530 599Q552 588 553 580Q553 571 547 568L511 482Q463 370 440 314Q406 237 399 219Q376 164 366 130Q353 87 357 67Q359 56 365 51Q376 43 393 47Q413 51 445 77Q483 110 539 177ZM121 54Q146
53 171 62Q222 81 286 145Q342 204 385 271Q419 321 429 347L463 426L526 576L521 578Q516 580 510 581T503 583Q484 587 459 587Q441 587 423 584Q368 577 315 550Q242 515 182 450Q111 374 74 283Q43 208 49 142Q53 107 71 82T121 54Z" />
<glyph unicode="B" glyph-name="B" horiz-adv-x="469" d="M452 604Q463 601 473 593Q502 572 506 531T496 458Q468 379 390 329Q444 321 468 275Q491 233 480 175Q466 94 397 51Q333 12 250 19Q214 22 186 33Q159 42 144 57Q128 75 133 92Q137 105 146 110Q156
116 161 105Q164 99 156 89Q151 82 159 74T175 62Q225 33 299 42Q389 51 431 114Q452 144 458 181T453 254Q438 290 406 302Q387 308 368 308Q352 308 345 305L323 296Q291 286 274 283Q264 281 260 288Q256 296 262 301Q268 307 283 311Q297 317 304 319L326 325Q340
327 345 330Q426 370 463 440Q480 471 483 504Q489 549 464 572Q425 607 363 567Q317 538 260 461Q214 397 165 301Q135 242 112 188L74 96L47 31Q43 23 35 24T25 33Q25 36 27 42L40 73Q88 189 113 247Q126 279 150 337T183 416Q223 513 230 533Q238 553 235 565Q231
578 211 582Q168 589 121 562Q103 551 95 538Q94 537 92 531T87 523T79 521T72 525Q63 535 81 558Q92 572 111 582Q150 604 192 606Q238 606 253 580Q264 560 247 515Q241 499 214 432Q275 525 327 568Q395 624 452 604Z" />
<glyph unicode="C" glyph-name="C" horiz-adv-x="359" d="M412 178Q420 186 428 178T429 162Q428 161 426 158T421 153T416 149Q365 91 322 61Q256 13 180 13Q93 13 54 68Q20 118 27 203Q34 272 64 341Q94 412 141 474Q192 538 248 574Q280 594 309 602Q351 616
382 606Q427 591 431 534Q437 462 385 406Q382 402 375 396T358 383T341 376T329 383Q327 389 330 393T341 400T351 405Q366 417 375 428Q397 454 405 492Q414 529 404 556Q382 612 290 571Q233 546 179 485Q128 426 95 356Q61 286 51 217Q42 141 64 95Q79 64 110
49Q142 33 191 35Q262 39 328 93Q362 121 412 178Z" />
<glyph unicode="D" glyph-name="D" horiz-adv-x="560" d="M321 605Q380 610 431 600Q504 582 548 531Q603 466 603 373T550 187Q505 110 436 66Q366 21 273 28Q233 31 186 44L167 50L158 53Q156 54 154 52L150 48Q137 33 111 24Q69 9 41 27Q28 36 26 51T33 80Q45
97 64 100Q77 102 101 96L125 89L137 84Q146 80 147 82Q150 87 153 92T159 104T165 115Q190 167 238 295T321 488Q340 526 361 551Q378 571 387 566Q391 564 392 559T391 549L381 540Q362 519 343 482Q321 441 305 402Q286 358 231 214Q187 105 168 73Q255 45 319
51Q384 55 443 98Q509 147 548 233Q594 334 576 423Q560 504 494 549Q439 586 350 584Q251 582 199 540Q178 522 168 501Q161 480 165 470Q165 469 168 465T171 458Q169 447 159 447Q150 448 146 457T141 476Q140 493 148 510Q158 532 179 552Q229 598 321 605ZM122
52Q130 58 133 62Q89 77 77 78Q68 80 59 75Q46 66 47 56Q48 43 71 40Q94 39 122 52Z" />
<glyph unicode="E" glyph-name="E" horiz-adv-x="394" d="M446 177Q451 184 459 181T466 169Q465 165 458 155L447 142Q424 115 399 94Q345 48 286 22Q208 -12 139 -5Q95 0 66 22Q36 45 24 88Q13 131 29 174T78 251Q134 310 227 335Q193 387 195 450Q197 548 267
590Q303 610 349 607Q396 603 422 581Q438 567 442 550Q446 538 440 533Q431 526 424 534Q422 536 421 542T418 550Q415 558 407 564Q392 576 371 581Q328 592 291 576Q253 562 233 519Q214 480 217 433T244 349Q249 341 252 341Q260 343 264 343Q268 344 276 345T286
346Q311 346 323 343Q358 336 361 312Q364 292 344 286T302 282Q276 287 261 300Q252 305 243 316L221 310Q132 283 80 221Q49 182 44 143Q36 91 66 54Q103 8 185 18Q253 27 319 65Q396 109 446 177ZM338 311Q334 319 319 321Q298 326 269 321Q290 304 317 303Q338
305 338 311Z" />
<glyph unicode="F" glyph-name="F" horiz-adv-x="360" d="M649 595Q649 590 650 588T647 582T640 578T633 575T626 572Q608 564 587 560Q548 551 506 551Q498 552 481 552Q473 555 470 552Q469 549 464 547T450 533Q436 517 416 477Q385 412 344 303Q370 304 395
309L427 316Q440 318 440 305Q441 296 431 294Q424 292 397 287Q373 282 348 281Q336 281 335 280Q334 275 330 267L321 243Q297 179 283 148Q257 86 246 70Q225 36 186 21Q150 6 109 16T43 58Q28 79 26 92Q25 97 28 101T37 105Q45 105 49 94Q62 59 102 42Q140
28 179 42Q216 58 235 95Q243 111 272 178L311 278Q278 276 246 278L218 281Q200 286 198 290Q195 296 199 301T209 306L233 302Q253 300 292 300Q297 300 306 300T319 301L329 326L347 374Q372 435 382 456Q397 491 412 517T440 556Q421 559 359 570T262 584Q212
586 192 573Q167 555 170 530Q172 509 191 501Q203 495 198 486Q194 474 184 480Q166 487 156 504T148 542Q151 572 178 590Q208 610 259 606Q297 604 365 592T462 576Q520 571 561 577Q588 582 609 590Q629 598 634 600Q643 605 649 595Z" />
<glyph unicode="G" glyph-name="G" horiz-adv-x="687" d="M740 180Q744 185 750 184T759 177Q762 169 746 153Q725 129 703 111Q661 77 615 64Q553 46 480 62Q473 64 471 62L460 56Q451 51 438 46Q416 37 390 34Q349 27 316 42Q290 52 274 71Q259 90 253 108Q246
126 251 139Q256 154 280 152Q297 152 318 145Q336 139 367 126T410 107Q446 94 460 91Q468 87 473 89L479 94L493 103Q517 122 543 151Q589 204 624 274Q679 384 706 501Q679 485 628 472Q579 460 527 457Q493 455 476 457L464 459L462 456Q461 454 460 452L452
439Q435 411 414 380Q364 308 320 255Q261 185 217 140Q159 82 120 53Q72 18 44 14Q25 12 25 25Q25 29 27 31T30 34T37 36T43 37Q54 39 74 49Q105 67 160 116Q211 164 261 222Q373 348 442 465Q409 477 397 505Q378 544 405 590Q416 610 435 623T475 633Q497 628
506 611Q514 594 510 570Q504 533 476 480Q491 479 521 479Q573 482 618 492Q663 503 688 517Q702 524 709 531Q710 532 712 534T715 538T719 540T724 542T729 539Q736 534 731 510Q712 414 664 305Q596 151 500 80Q567 70 619 89Q684 111 740 180ZM453 485Q479
533 486 566Q493 593 483 604Q471 619 448 606Q413 583 413 539Q412 500 453 485ZM410 60Q416 62 442 72Q417 80 386 93Q313 123 296 127Q288 130 279 130Q274 130 271 129Q271 126 272 124Q274 108 289 88Q329 41 410 60Z" />
<glyph unicode="H" glyph-name="H" horiz-adv-x="510" d="M563 178Q567 183 573 181T581 174T579 162L567 148L522 100Q489 67 465 52Q431 32 408 34Q378 34 367 60Q360 81 368 122Q374 157 394 208Q401 228 432 306Q402 290 346 288H257Q162 288 135 247Q133
243 117 209L108 187L96 157L57 62L48 41Q45 34 39 34T28 38T27 49Q29 53 29 55L65 141Q98 222 166 384L218 515Q235 556 223 568Q213 578 191 578Q171 579 143 570Q121 564 104 550Q88 540 84 525Q83 518 77 517T66 519T63 531Q67 547 82 562Q113 588 153 596Q205
608 233 589Q262 569 247 528Q238 501 226 474Q195 395 152 292Q183 307 223 309Q258 312 302 310Q388 308 423 327Q447 340 458 368L469 393L510 489L530 537L557 600Q560 606 566 608T577 604Q581 599 577 589L569 570L548 523L530 480L462 319Q439 267 416 202Q398
152 391 127Q382 89 386 73Q392 52 418 56Q443 61 475 87Q507 114 563 178Z" />
<glyph unicode="I" glyph-name="I" horiz-adv-x="325" d="M435 568Q445 530 426 457Q408 391 370 314Q331 234 283 169Q259 138 231 108Q227 104 228 102Q228 101 228 100T229 97Q231 89 231 86Q235 74 238 68Q246 52 257 48L264 46Q270 45 272 42Q279 33 270
26Q263 20 245 28Q218 42 208 85Q129 13 58 17Q19 19 -11 45T-40 109Q-40 131 -29 150Q-21 160 -12 155Q-3 148 -9 139Q-20 121 -17 100T1 64Q20 45 48 42T101 45T150 68Q169 80 190 98L201 108Q204 111 204 113V115Q203 117 203 118Q202 125 202 140Q201 170 204
208Q211 277 232 355Q252 433 282 494Q314 560 348 586Q365 600 385 603Q403 606 416 596T435 568ZM225 133Q287 200 339 301Q379 380 399 447Q409 481 413 508Q420 552 410 571Q401 590 372 576Q355 566 340 546Q310 507 281 433Q254 363 238 282Q221 199 225
133Z" />
<glyph unicode="J" glyph-name="J" horiz-adv-x="393" d="M407 595Q445 578 461 544Q479 505 463 450Q445 388 404 280Q366 184 326 88Q406 126 441 172Q447 179 454 177Q464 175 462 164Q461 159 451 149Q448 145 439 136Q415 112 385 94Q378 89 365 82T348 73L327
64Q315 59 313 55L281 -20Q242 -114 208 -161Q158 -230 98 -235Q51 -239 33 -202Q18 -170 34 -129Q48 -94 86 -56Q128 -18 166 7Q202 30 242 50L278 66Q296 73 297 76L306 98Q363 236 382 286Q424 396 440 452Q455 504 441 535Q424 568 387 578Q319 598 259 550Q202
506 190 417Q180 353 197 270Q219 171 268 88Q271 83 270 77Q269 70 261 69T249 75L239 93Q217 134 198 185Q137 353 181 474Q212 557 279 588Q346 620 407 595ZM133 -200Q176 -177 211 -114Q240 -64 284 44Q224 16 196 -1Q151 -29 116 -59Q73 -98 58 -132Q38 -175
57 -199Q81 -228 133 -200Z" />
<glyph unicode="K" glyph-name="K" horiz-adv-x="445" d="M533 585Q541 596 551 586Q555 579 550 570L535 553Q511 528 490 509Q428 453 368 409Q289 351 230 322Q285 310 299 245Q303 228 309 194Q316 151 324 116Q329 94 335 82Q341 66 348 61Q363 48 398 70Q424
88 454 124Q462 132 475 148T491 167Q501 180 506 181Q515 182 518 175T515 161Q513 159 495 137T470 107T449 85T422 60Q386 30 357 34Q332 38 317 66Q306 88 296 138L284 204Q277 243 274 251Q260 294 221 301Q201 304 177 297L158 289Q154 288 152 283L147 271L117
200L50 39L47 31Q44 24 37 24T26 31Q24 36 32 53L70 145Q134 297 165 373Q171 388 183 416T204 468T222 511Q238 551 236 562Q231 591 170 581Q114 568 96 540Q95 538 94 533T90 526Q83 517 74 523Q62 532 79 555Q100 582 144 597Q194 614 228 601Q263 588 258
552Q257 542 239 493Q202 401 167 320Q207 333 256 361Q296 385 352 425Q411 469 464 516Q513 559 533 585Z" />
<glyph unicode="L" glyph-name="L" horiz-adv-x="542" d="M595 177Q602 185 610 179T613 164Q611 161 608 157T603 152L566 108Q530 68 508 53Q474 29 435 28Q419 27 402 30T373 37T342 51T315 65T286 83T260 100Q255 103 254 102L250 97L243 88L227 71Q211 55
193 43Q150 17 105 18Q61 18 39 50Q13 87 33 130Q52 167 98 175T179 167Q200 161 225 147L248 134Q250 133 251 136L254 140L260 150Q280 183 304 235Q320 272 347 343T381 431Q296 417 227 431Q183 440 155 459Q137 472 130 488Q122 507 129 515Q137 524 146 515Q148
512 148 506T150 497Q156 483 177 472Q201 459 248 451Q292 444 345 449L372 452L385 454Q386 454 388 454T391 455L394 461Q403 484 415 506Q461 602 522 623Q563 637 586 617Q610 597 598 558Q577 493 470 453Q445 444 421 438L407 435L403 423Q399 416 393 400L355
300Q305 176 268 121Q316 91 341 77Q391 50 432 50Q473 51 506 80Q528 97 570 148L595 177ZM162 53Q198 67 236 115Q216 127 197 136Q145 160 105 154Q62 147 50 112Q44 92 52 73T78 46Q112 31 162 53ZM513 595Q488 582 462 545Q442 514 418 461Q471 475 506 494Q546
515 566 543Q587 576 575 595Q561 619 513 595Z" />
<glyph unicode="M" glyph-name="M" horiz-adv-x="674" d="M741 177L744 173Q747 167 734 152Q715 130 714 129Q672 83 648 63Q612 31 583 26Q567 24 553 31T532 52Q525 68 529 90Q532 110 544 148Q566 210 614 319Q648 398 655 417Q679 472 686 510Q693 554 681
571Q664 595 615 574Q563 553 507 483Q470 436 437 374Q425 352 414 328T389 270T369 223Q334 134 291 36L284 19Q278 8 272 9Q259 9 261 22L267 37L302 119Q356 249 384 314Q389 326 401 354T420 397T434 437T446 482Q456 526 447 554Q442 572 429 578Q416 586
396 582Q347 575 287 507Q236 447 188 356Q162 306 87 124Q63 66 50 37L47 29Q45 23 39 22T27 26Q25 32 25 34T28 42T31 50L97 208Q181 406 221 507Q237 546 236 557Q234 588 174 579Q119 569 98 540Q97 538 94 531T86 520T76 520Q60 526 78 551Q96 578 141 594Q190
611 225 599Q261 587 259 553Q258 539 248 515L231 472Q250 500 273 526Q349 613 417 605Q441 602 454 587T470 548T472 505T465 463Q535 566 608 595Q653 615 683 599Q705 587 710 555Q715 525 701 475Q688 433 664 380Q652 351 627 293T590 205Q570 155 562 129Q550
95 550 74Q550 63 553 59Q563 45 582 49Q605 54 641 86Q663 107 701 149L719 169Q734 184 741 177Z" />
<glyph unicode="N" glyph-name="N" horiz-adv-x="428" d="M483 179Q490 187 498 180T500 164L487 150L438 96Q400 60 378 47Q341 25 316 33Q289 41 286 66Q284 84 291 112Q299 142 314 179Q322 201 352 269Q415 416 431 466Q447 519 445 549Q441 585 414 586Q383
587 344 562Q317 545 290 514Q245 467 208 400Q190 372 184 356L143 259Q112 185 105 167L64 69L50 35L47 29Q43 21 34 23T26 35Q26 38 27 41T30 48T33 54L51 96L90 190Q99 213 144 320T213 486Q234 541 235 543Q241 565 227 575Q215 582 191 582Q139 578 106 550Q98
542 95 537Q90 524 89 523Q80 514 72 524Q68 529 72 540Q85 572 129 589Q173 610 213 603Q252 597 258 566Q262 549 253 526L237 486Q277 542 322 574Q343 589 367 599T420 608T460 581Q472 557 466 517Q461 482 439 421Q432 402 359 229Q347 202 325 146Q310 100
308 81Q306 71 310 63Q317 50 337 54Q360 57 393 86Q418 107 483 179Z" />
<glyph unicode="O" glyph-name="O" horiz-adv-x="378" d="M528 545Q538 546 540 535T540 516Q536 501 526 483Q504 450 469 424Q457 416 450 413L441 409Q438 407 437 403L428 367Q410 293 373 217Q332 138 283 88Q220 25 154 18Q108 15 78 40Q56 59 40 93Q16
156 31 252Q47 346 97 442Q136 516 186 561Q259 629 332 622Q349 622 354 615Q360 603 349 598Q346 597 339 599Q337 599 335 599T331 600Q305 603 273 590Q171 551 103 403Q58 304 50 223Q41 152 61 102Q69 82 83 66Q109 37 150 40Q215 45 276 114Q324 165 362
249Q396 322 413 401Q364 395 332 436Q305 472 319 525Q332 573 365 591Q394 606 417 588Q436 574 444 535Q451 496 442 435Q479 454 503 491Q512 503 517 519Q518 522 518 526T519 534T521 541T528 545ZM418 426Q427 478 424 517Q419 566 398 574Q381 581 366
565T344 529Q327 483 349 452Q374 415 418 426Z" />
<glyph unicode="P" glyph-name="P" horiz-adv-x="328" d="M450 602Q493 572 471 484Q452 401 391 325Q332 249 258 220Q230 207 201 206Q172 202 154 216Q147 221 144 230T146 248Q154 256 163 247Q164 245 164 242T166 236Q174 223 206 229Q267 237 328 291Q401
355 435 446Q450 484 454 517Q458 561 442 579Q420 604 376 580Q355 568 331 546Q284 502 238 430Q194 365 157 290Q142 258 114 192L76 102L48 33Q45 27 38 26T27 32Q24 37 28 44L40 73L111 245L182 414Q211 482 230 533Q238 553 237 563Q234 579 216 583Q176
594 127 567Q106 556 98 543Q96 541 94 536T91 529Q85 519 76 525Q64 532 79 557Q89 569 107 582Q143 605 187 608Q235 610 252 586Q266 566 250 521L217 440Q273 526 325 571Q398 636 450 602Z" />
<glyph unicode="Q" glyph-name="Q" horiz-adv-x="422" d="M473 174Q478 180 485 178T493 167Q493 161 485 153L474 139Q432 91 431 90Q388 47 343 37Q300 27 245 42L203 55L193 58L187 60L182 57Q178 54 159 45Q115 23 81 24Q42 24 30 44Q21 58 29 71T53 92Q84
106 130 99L156 93L167 90L178 86Q185 84 188 86Q218 106 241 125Q373 238 415 395Q445 509 401 564Q375 594 337 599Q295 603 253 578Q191 542 149 466Q116 404 105 334Q95 270 108 235Q116 217 126 218Q135 220 139 212Q142 202 133 197Q125 193 110 199Q96 205
87 225Q73 260 81 323Q88 390 118 454Q153 527 205 572Q291 642 366 615Q403 602 424 569T449 494Q452 457 439 398Q430 358 410 312Q344 165 212 76Q275 55 304 55Q340 55 371 71Q395 84 419 110Q443 135 473 174ZM85 46Q112 46 158 69Q104 85 70 75Q43 64 49
56Q56 46 85 46Z" />
<glyph unicode="R" glyph-name="R" horiz-adv-x="498" d="M550 176Q555 182 562 179T569 168Q569 165 562 156Q512 93 484 70Q417 17 341 35Q271 51 213 125Q187 159 168 199Q158 224 155 240Q151 254 150 261Q148 272 152 276Q156 281 171 277Q180 274 190 274Q213
272 246 277Q331 294 391 354Q452 415 461 494Q466 530 453 560T404 587Q355 583 306 528Q267 487 217 404Q200 375 168 317Q154 291 123 216Q101 162 95 149L56 54L47 33Q44 25 35 26T25 37Q25 39 28 45L95 207L116 258Q123 272 127 284L136 305Q140 312 147 331L157
356Q203 464 224 519Q243 563 230 576Q221 584 196 586Q177 586 148 577Q122 567 110 556Q98 547 91 531Q88 519 75 525Q67 529 71 540Q75 556 91 570Q116 593 162 604Q213 616 241 596Q269 575 254 533L224 458Q273 532 311 565Q363 612 413 609Q451 607 470 575Q483
552 485 520Q488 449 440 379Q390 305 302 270Q233 242 175 253Q190 184 241 126Q289 73 342 58Q415 38 479 95Q491 106 502 119T529 150T550 176Z" />
<glyph unicode="S" glyph-name="S" horiz-adv-x="460" d="M513 177Q522 188 530 178Q537 170 526 157Q499 122 458 99Q446 92 420 82L400 76Q399 76 388 62Q348 15 269 1Q235 -4 209 0Q168 7 168 34Q168 68 214 76Q222 78 304 83Q330 84 356 89L371 92Q382 95
383 96Q387 103 393 119Q406 158 388 210Q375 247 338 309T288 399L206 274L90 96L47 31Q44 24 37 24Q30 23 27 29T27 42L40 61L139 212Q147 225 181 277T234 358L263 401L277 423Q278 425 275 435Q273 440 271 448Q257 502 280 548Q299 588 329 610Q356 630 380
623Q402 616 404 594Q407 574 393 552Q389 545 380 533T369 517L342 479L313 436L304 423Q303 421 303 420T305 416T307 412L317 391Q327 371 370 297Q382 277 390 262T406 224T418 184T421 145T412 104Q474 126 513 177ZM288 487Q288 466 294 448Q296 452 302
460Q338 514 357 540Q377 568 380 575Q387 601 370 602Q349 604 323 574Q288 532 288 487ZM195 28Q206 21 227 21Q246 20 271 25Q330 38 362 67Q334 62 248 58Q218 56 205 50Q197 47 193 41T195 28Z" />
<glyph unicode="T" glyph-name="T" horiz-adv-x="240" d="M486 593Q495 598 501 590T499 574Q491 568 463 559Q426 549 380 551Q376 551 350 554Q348 554 344 554T336 555Q332 556 330 554L324 545Q319 537 290 470Q285 456 261 399L194 238L140 110L112 44Q109
37 102 37T92 42Q89 47 92 55L104 82L167 232L233 391L256 446L279 500Q296 543 307 560L207 575Q154 583 120 579Q77 577 58 554Q37 529 56 507Q62 500 71 495Q84 491 86 485Q88 473 76 471Q70 470 58 477Q21 494 26 535Q29 561 53 580Q78 600 129 602Q160 603
192 600T268 589T331 579Q376 572 407 573Q458 577 486 593Z" />
<glyph unicode="U" glyph-name="U" horiz-adv-x="510" d="M564 178Q568 182 574 181T582 175Q585 168 579 161L561 141Q559 138 549 127T535 112T522 98T508 83T494 70T479 57T463 47T446 36Q408 15 372 19Q349 23 336 34Q325 45 322 60Q318 81 325 111Q330 134
346 180Q355 203 426 364Q361 256 347 236Q310 183 277 144Q221 81 175 50Q115 11 74 25Q27 42 53 144Q67 200 119 326Q192 500 197 514Q199 521 202 532T207 548Q212 568 200 574Q187 581 170 581Q152 581 129 576Q107 571 87 562Q63 551 53 537Q48 532 48 525Q48
514 37 514Q30 514 28 519T26 529T29 540Q41 569 93 589Q137 606 175 603Q219 601 229 574Q235 559 227 536Q225 528 216 501Q210 483 142 324Q96 214 79 156Q69 120 66 91Q63 53 82 46Q101 40 128 51Q145 57 182 83Q237 127 291 198Q324 240 380 332Q433 418 469
483L502 546L513 571Q517 581 523 582Q534 584 536 573Q536 570 530 554Q519 528 516 523Q500 486 497 478Q491 464 455 381T378 199Q355 138 350 121Q340 88 344 66Q347 49 361 45Q379 39 399 42Q431 47 470 80Q498 103 564 178Z" />
<glyph unicode="V" glyph-name="V" horiz-adv-x="357" d="M528 606Q534 600 536 592V580Q536 569 527 540Q508 479 464 401Q421 326 360 256Q320 207 257 146Q198 90 147 55Q123 39 99 29Q77 20 61 21Q28 24 30 68Q31 105 59 183Q81 242 133 356L177 453L194 494Q205
523 206 534Q208 556 194 565T158 572T115 563T82 550Q62 538 53 527Q50 524 48 518Q46 507 43 505Q31 499 27 510Q23 516 27 526Q31 541 47 553Q70 573 107 585Q153 600 187 592Q220 583 227 555Q234 531 212 479Q203 457 141 320Q101 228 83 182Q73 156 61 118Q52
84 51 70Q51 49 58 45Q66 39 84 46Q98 51 126 68Q149 83 180 108Q244 159 308 230Q381 310 431 390Q476 462 499 526Q508 552 512 569Q515 585 513 591Q506 603 511 608Q518 616 528 606Z" />
<glyph unicode="W" glyph-name="W" horiz-adv-x="627" d="M781 594Q789 600 796 595T806 580Q811 569 809 553Q806 522 785 477Q748 396 659 275L632 238L614 215Q613 214 576 174Q531 129 492 98Q438 53 396 37Q374 29 355 30Q323 34 319 74Q315 103 325 158Q333
202 350 259Q310 209 277 172Q222 110 175 72Q143 48 125 38Q96 23 73 27Q32 34 41 98Q47 139 81 232Q104 295 156 421Q187 497 192 509Q193 511 195 518T199 529T201 540T203 551T202 561T196 571Q183 585 155 583Q122 583 87 564Q69 555 59 545Q55 541 49 533Q42
524 38 523Q33 522 29 525T25 533Q25 539 31 547Q39 559 54 569Q81 591 119 600Q155 610 185 602Q207 597 218 577Q232 553 215 508Q212 499 152 351Q117 266 97 211Q68 129 62 90Q60 66 64 58Q73 40 108 55Q128 64 162 90Q184 108 224 148Q282 208 343 288L360
309L368 320Q370 323 375 337Q394 389 414 435Q435 484 454 517Q474 555 490 572Q502 590 517 590Q527 590 533 583T541 566Q543 548 528 516Q505 466 434 370L402 327Q401 326 392 314Q391 312 390 308T387 302L379 278Q360 220 351 178Q340 128 340 95Q340 73
344 63Q348 52 362 52Q382 52 410 68Q435 83 470 108Q527 153 589 220Q608 241 647 296Q673 332 701 376Q756 462 776 513Q787 540 788 559Q788 568 786 573L782 578Q774 585 781 594ZM517 567Q509 564 500 550Q484 524 477 511Q447 456 420 390Q464 450 491 494Q506
518 513 536Q522 563 517 567Z" />
<glyph unicode="X" glyph-name="X" horiz-adv-x="489" d="M542 177Q548 185 556 180T561 165Q558 160 550 152L515 109Q479 69 457 52Q422 27 395 27Q363 27 345 50Q330 69 319 107Q305 160 292 289Q213 194 174 151Q100 69 61 38Q46 26 40 24Q35 23 31 25T26
33Q25 40 33 46Q52 58 78 82Q122 124 200 214L269 297Q270 298 288 319Q290 322 288 331Q288 333 288 337T287 344Q286 361 282 395Q277 449 269 490Q262 533 249 559Q240 577 228 583Q215 590 193 582Q161 570 130 534Q117 517 110 504Q103 486 104 479Q107 468
106 466Q102 455 91 459Q79 464 82 486Q85 517 115 551Q144 587 183 603Q229 620 254 591Q272 571 282 533Q297 478 310 345Q414 472 433 494Q498 570 523 593Q530 600 539 606Q545 612 551 609Q562 605 558 595Q557 593 542 581L524 563Q484 522 410 432L341 348Q323
327 322 326Q322 325 314 315Q313 314 313 304L318 255Q323 207 330 163Q337 117 348 90Q360 60 376 53Q406 40 445 71Q467 88 515 145L542 177Z" />
<glyph unicode="Y" glyph-name="Y" horiz-adv-x="422" d="M547 587Q559 583 550 564L540 540L530 517Q451 325 431 279Q359 113 299 10L305 13Q364 51 436 131L460 159L470 171Q480 180 482 181Q495 183 495 170Q495 166 488 157Q478 144 466 132Q398 54 341 11Q329
2 303 -14L278 -28L272 -37L266 -47Q237 -97 214 -131Q181 -179 156 -205Q120 -244 85 -249Q65 -251 49 -243T27 -215Q18 -182 53 -139Q73 -114 116 -90Q127 -83 206 -41L254 -16Q260 -13 262 -8L268 1L291 40Q321 91 364 184Q407 278 442 362Q376 253 323 187Q274
126 236 91Q183 41 140 30Q116 23 95 29Q65 38 60 73Q58 95 65 128Q74 165 93 211Q104 239 128 297T171 401T204 489Q216 522 225 553Q231 571 218 579Q210 584 190 586Q150 587 106 567Q84 558 72 543Q66 537 66 531Q66 520 56 519T44 527T46 544Q52 557 69 572Q102
597 151 605Q197 615 226 601Q241 592 246 580Q252 567 246 544Q231 490 192 394L132 247Q96 160 87 121Q82 101 82 85Q82 65 90 57Q106 42 140 53Q164 61 196 86Q222 106 257 143Q313 203 376 299Q434 388 477 468Q501 510 514 539Q519 548 527 568Q527 569 529
574T533 582T538 586T547 587ZM121 -208Q152 -180 182 -138Q207 -102 238 -50Q165 -88 145 -99Q95 -127 76 -148Q59 -165 52 -184Q43 -208 55 -220Q72 -230 89 -226T121 -208Z" />
<glyph unicode="Z" glyph-name="Z" horiz-adv-x="428" d="M496 179Q499 176 500 173T499 167T496 161T491 154T486 149L462 121Q442 98 415 73Q387 47 352 21Q332 7 322 1L314 -5L310 -7Q310 -8 310 -10T309 -13Q307 -21 301 -35Q267 -116 210 -169Q181 -196 144
-219Q96 -246 69 -248Q46 -248 35 -237Q17 -219 33 -185Q47 -152 87 -120Q117 -94 173 -60Q188 -51 217 -35T260 -11L284 3L289 6Q292 8 292 12L295 24Q300 49 294 72Q290 93 275 112Q266 123 258 128Q254 132 248 135Q245 137 243 136L238 133Q185 109 139 105Q81
99 72 129Q67 146 81 158T115 175Q159 187 207 177Q223 173 230 170L240 166L245 163L250 166Q274 180 286 189Q361 242 407 318Q431 355 446 398Q465 451 459 492Q453 536 417 559Q383 581 335 578Q253 573 198 524Q175 501 167 484Q161 474 160 467L157 449Q150
439 140 446Q136 450 136 458Q136 467 139 476Q144 495 161 517Q200 567 270 589Q372 621 435 574Q500 525 478 425Q458 342 397 264Q343 193 267 150Q299 126 310 95Q322 64 317 24Q364 56 404 93L450 141L473 168Q486 187 496 179ZM120 -206Q174 -177 216 -131Q255
-86 280 -25Q269 -32 239 -49T193 -75Q140 -105 107 -133Q69 -163 56 -191Q39 -219 56 -224Q66 -226 80 -223T120 -206ZM132 127Q171 130 218 150Q184 161 152 158Q129 158 108 149Q91 138 95 134Q103 124 132 127Z" />
<glyph unicode="[" glyph-name="bracketleft" horiz-adv-x="355" d="M124 -209Q131 -212 131 -220Q131 -227 125 -230Q122 -231 117 -231H9Q0 -231 -2 -222Q-2 -218 0 -214L2 -207Q4 -203 6 -197L12 -184L19 -166L28 -146L37 -122Q39 -118 42 -109T48 -96L60 -68L72
-38L85 -6L99 28L114 63Q124 87 128 99L143 135Q146 142 159 172L189 246L219 318L247 386Q257 411 260 417L272 447L284 475L294 500L303 523L311 542L318 559L324 572L327 581Q329 585 329 586Q330 586 330 587Q334 594 340 594H397Q422 594 434 593H451Q458
593 461 588Q464 581 460 575Q456 571 451 571H348L347 570Q347 569 346 568L343 560L338 548Q333 535 331 532Q330 528 323 512L314 489Q312 484 308 475T303 463L291 435L279 404L265 371L251 337L236 301L206 227L174 151L159 113Q156 106 151 93T143 76L128
39L114 4L100 -29L87 -61L75 -90Q67 -108 64 -117Q60 -125 54 -141L45 -162L38 -180L32 -194Q30 -200 28 -203Q28 -206 26 -208H50Q58 -208 73 -208T96 -209H124Z" />
<glyph unicode="\" glyph-name="backslash" horiz-adv-x="316" d="M1 586V607Q1 609 3 609H315V588Q315 586 313 586H1ZM1 37V58Q1 60 3 60H315V39Q315 37 313 37H1ZM161 320V301Q161 297 159 297H1V313Q1 320 3 320H161Z" />
<glyph unicode="]" glyph-name="bracketright" horiz-adv-x="387" d="M399 588L401 584Q401 579 399 576Q399 574 397 570Q396 568 395 565T393 560L387 546L380 529Q374 515 372 508L362 485L351 459L340 431Q337 425 327 400L314 368Q304 346 300 334L285 300Q281
288 271 264L256 227L240 190L225 154L195 80L180 45Q178 38 166 10Q162 -1 152 -23L139 -55L127 -85Q119 -103 116 -112L105 -138L96 -160Q89 -176 88 -180L81 -196Q76 -208 76 -209Q74 -212 72 -218Q70 -222 70 -223L69 -224Q68 -231 59 -231H-52Q-58 -231 -61
-226Q-66 -220 -61 -213Q-58 -209 -52 -209H52V-208Q52 -206 53 -206L56 -198L61 -186Q64 -176 68 -170Q71 -161 76 -150L85 -127L96 -101L108 -73L120 -42L134 -9L148 25L163 61L178 98L194 136L209 174L225 212L240 249L256 287L271 323L285 358L299 391L312
423L324 453Q332 471 335 480Q339 488 345 504L354 525L361 542L367 556Q367 557 368 560T371 566Q372 567 372 568Q373 570 373 571H278Q272 571 268 578Q266 586 271 591Q277 593 279 593H390Q396 593 399 588Z" />
<glyph unicode="^" glyph-name="asciicircum" horiz-adv-x="316" d="M1 586V607Q1 609 3 609H315V588Q315 586 313 586H1ZM1 37V58Q1 60 3 60H315V39Q315 37 313 37H1ZM161 320V301Q161 297 159 297H1V313Q1 320 3 320H161Z" />
<glyph unicode="_" glyph-name="underscore" horiz-adv-x="379" d="M-8 -4V18Q-8 19 -7 19H380V-4H-8Z" />
<glyph unicode="`" glyph-name="grave" horiz-adv-x="165" d="M59 584L78 569L108 545Q110 544 113 541T118 538L120 536Q124 533 124 527Q124 519 117 517T106 519L100 523Q82 537 73 545Q68 549 59 556T48 564L45 566Q42 569 41 573Q39 580 46 585Q52 588 59 584Z" />
<glyph unicode="a" glyph-name="a" horiz-adv-x="324" d="M376 178Q382 184 389 180T395 168Q395 167 388 157Q368 135 359 124Q309 68 288 51Q249 18 218 33Q186 47 195 103Q160 59 126 41Q80 19 50 39Q25 56 25 94Q26 126 48 166Q68 207 110 245Q143 276 178
293Q229 318 278 312Q290 310 296 308Q301 307 302 304T303 296T301 288T297 279T294 272Q280 240 255 194Q251 186 241 170Q232 152 230 146Q220 116 217 100Q213 74 219 61T243 52Q255 54 271 66Q290 81 302 95Q322 115 376 178ZM101 56Q127 63 157 93Q179 115
207 158Q212 164 218 178L227 197Q232 210 244 234Q260 265 275 289Q233 294 186 272Q152 255 118 221Q78 183 60 141Q44 103 50 77Q54 60 66 55Q79 50 101 56Z" />
<glyph unicode="b" glyph-name="b" horiz-adv-x="319" d="M371 178Q375 183 382 181T391 172Q392 166 375 149Q352 126 331 115Q308 104 285 108Q278 108 271 111L265 113Q262 114 260 111L242 86Q212 47 178 34Q136 18 107 44Q81 66 87 118Q89 154 106 205L81
176Q70 163 65 162Q56 161 53 168T56 181L71 199Q74 203 80 210T92 224T101 235L118 253Q120 257 126 263Q129 271 130 273Q146 317 166 364Q208 464 238 519Q267 573 291 593Q308 608 327 607Q351 604 359 582Q364 570 360 549Q354 520 330 483Q312 451 275 405Q256
381 183 296Q181 294 151 258Q144 249 143 245L139 233Q137 229 135 221T131 210Q115 161 111 132Q104 84 117 65Q128 51 147 51T182 61Q215 78 243 126Q214 148 210 195Q207 238 224 273Q234 290 250 300T283 303Q311 288 306 231Q302 189 273 134Q296 125 319
134Q343 146 371 178ZM184 349L170 315L206 356Q258 417 287 459Q311 493 323 516Q339 544 339 562Q341 573 335 579Q326 588 316 583Q310 581 300 571Q282 553 263 517Q232 463 184 349ZM254 145Q280 198 284 236Q284 263 279 275Q273 287 260 280Q249 274 241
256Q234 237 232 215Q230 168 254 145Z" />
<glyph unicode="c" glyph-name="c" horiz-adv-x="237" d="M290 178Q294 182 300 181T309 173T302 158L264 118Q188 44 121 33Q72 25 50 51Q31 74 35 111Q40 182 105 254Q144 295 171 300Q205 305 217 271Q219 265 220 258T219 246T208 241Q200 243 198 257Q196
267 190 273Q180 283 161 272Q149 266 125 242Q94 208 75 170Q58 137 57 105Q55 67 79 57Q93 51 119 55Q141 60 159 68Q170 73 180 78T201 93T219 107T239 125T255 141T274 161T290 178Z" />
<glyph unicode="d" glyph-name="d" horiz-adv-x="315" d="M398 538Q409 533 404 523Q330 344 295 268L274 219L256 178Q245 152 234 114Q229 94 229 77Q229 61 234 56Q246 45 277 76Q296 93 330 133L366 177Q372 184 380 180T386 167Q386 166 373 150Q343 113
318 85Q283 48 265 38Q234 21 216 43Q199 65 213 120Q209 114 199 102Q167 65 133 48Q85 23 55 39Q27 52 26 89T39 150Q58 190 97 231Q128 264 162 282Q210 309 255 308Q261 308 271 306Q278 305 279 299T277 288T266 284H264Q262 285 261 285Q222 289 181 267Q148
251 119 222Q78 179 60 141Q42 105 50 79Q54 63 66 59Q80 52 105 60Q166 81 219 171Q254 230 296 326Q322 383 356 467L374 510Q375 511 377 517T380 525T385 533T390 538T398 538Z" />
<glyph unicode="e" glyph-name="e" horiz-adv-x="213" d="M281 179Q289 172 276 154L252 127Q229 102 208 84Q142 28 90 34Q55 39 42 68Q30 95 40 142Q59 222 118 276Q147 303 174 308Q221 316 232 282Q244 240 182 197Q151 178 110 165Q102 162 86 158L74 155Q73
155 71 155T68 154L67 152L66 150Q58 124 58 100Q60 77 69 67Q81 57 94 57Q116 55 149 70Q180 87 213 119Q219 125 247 155L265 177Q272 186 281 179ZM181 286Q155 284 124 251Q97 221 78 180Q159 200 194 237Q208 251 211 266Q212 278 203 283T181 286Z" />
<glyph unicode="f" glyph-name="f" horiz-adv-x="188" d="M239 177Q247 187 256 178Q262 170 255 161Q233 135 221 123Q185 89 157 75Q125 57 92 56Q86 55 74 55Q68 55 65 56Q64 55 64 52Q62 46 65 18Q66 11 71 -27T77 -79T77 -122T68 -171Q58 -203 36 -225T-15
-249Q-57 -249 -67 -210Q-71 -192 -62 -153Q-51 -108 -9 -4L62 159Q54 158 51 165T53 178L63 189L75 201Q76 203 80 208T86 216Q92 228 99 244L114 280Q141 347 197 481Q207 506 229 556Q248 597 280 606Q312 616 333 591Q354 567 340 522Q325 478 279 415Q250
374 186 294L140 241L119 217L110 207Q104 200 102 194Q83 152 47 68Q51 77 71 77Q87 77 96 78Q119 81 143 92Q185 113 239 177ZM185 393L133 267Q207 355 242 402Q263 429 288 468Q307 499 317 524Q336 572 307 584Q293 590 279 582T256 559Q250 550 239 523L223
485Q216 468 203 437T185 393ZM54 -112Q55 -82 47 -20Q43 8 42 23Q39 40 42 58Q8 -20 -7 -60Q-30 -118 -39 -152Q-43 -169 -44 -181Q-48 -200 -42 -212Q-30 -235 1 -222Q54 -200 54 -112Z" />
<glyph unicode="g" glyph-name="g" horiz-adv-x="261" d="M313 177Q317 182 323 181T332 175T331 164Q328 159 318 149L307 136Q279 108 255 88Q243 78 219 60L197 45Q193 42 190 34L165 -23Q113 -140 101 -162Q83 -199 65 -220Q46 -242 26 -245Q5 -248 -7 -234T-22
-197Q-25 -173 -14 -141Q7 -78 67 -21Q93 4 144 36L174 56Q176 57 179 64L194 100L187 92Q148 47 115 36Q66 20 42 47Q22 68 28 108Q33 144 61 186Q99 245 160 283T286 311Q304 308 305 299Q306 294 297 276L282 242L212 83Q270 127 313 177ZM103 56Q114 59 127
67Q150 82 176 113Q196 136 221 176Q254 235 278 289Q235 296 187 272Q152 254 119 221Q80 182 61 141Q45 103 51 77Q55 61 68 55Q81 50 103 56ZM136 -32L159 19Q112 -11 93 -28Q70 -47 46 -76Q12 -121 2 -165Q0 -179 0 -187Q-2 -212 11 -221Q28 -232 53 -199Q70
-176 92 -129Q111 -91 136 -32Z" />
<glyph unicode="h" glyph-name="h" horiz-adv-x="342" d="M395 175Q400 181 407 178T414 167Q413 163 399 145Q396 141 367 108Q311 43 279 31Q258 23 245 38T235 75Q237 88 242 102T251 126T262 153T273 177Q301 243 298 263Q295 286 266 281Q246 278 218 254Q186
227 158 192Q124 150 98 100Q88 81 72 41Q71 40 70 37T69 32T67 28T65 25T63 23T59 22T54 23Q42 28 52 49Q58 66 72 100L120 222L69 164Q64 158 58 159T49 166T52 178Q90 222 110 244Q118 254 136 274Q146 286 160 318Q193 399 226 470L261 540Q288 588 311 600Q331
611 349 602T369 569Q371 544 338 488Q302 430 230 347L179 289Q169 277 162 264T145 226T134 197Q181 256 218 282Q267 319 302 298Q315 290 320 278T322 246T315 217T301 183L290 159Q270 115 265 100Q255 69 257 59Q259 52 264 52T278 55T291 62T300 70Q325
90 395 175ZM295 553Q276 525 254 475Q245 457 193 340Q283 442 319 501Q347 547 347 565Q347 574 342 580T328 583Q312 578 295 553Z" />
<glyph unicode="i" glyph-name="i" horiz-adv-x="172" d="M240 178Q248 171 238 157L220 137Q186 97 167 78Q140 51 121 40Q94 24 79 32Q66 38 64 59Q61 82 75 123Q88 159 113 213L68 160Q63 154 57 155T48 162T51 175L66 193L134 271L156 297Q161 304 168 303Q182
299 176 288L170 276Q133 208 108 146Q94 114 88 88Q85 75 86 64Q86 52 90 52Q94 51 106 57Q118 64 130 74Q146 88 174 118Q194 140 212 162Q213 163 216 167T221 173T227 178T233 181T240 178ZM216 437Q200 446 210 466T237 478Q253 469 243 449T216 437Z" />
<glyph unicode="j" glyph-name="j" horiz-adv-x="148" d="M200 178Q207 185 215 179T218 164Q217 162 202 147L188 132Q146 90 137 82Q121 66 89 38Q85 34 77 28L72 23L67 11L45 -39Q-3 -146 -40 -203Q-69 -248 -98 -250Q-118 -251 -129 -235T-140 -198Q-138 -139
-70 -71Q-42 -43 2 -6L50 34Q54 38 62 57Q97 141 134 236Q124 224 104 201T82 175L71 163Q66 157 58 160T51 171Q52 177 66 191L97 227Q137 273 156 296Q157 297 159 299T164 302Q169 304 174 301T179 291Q179 289 177 285L162 244Q116 128 92 70Q149 121 200 178ZM-69
-205Q-47 -176 -21 -124Q9 -64 33 -9L25 -16Q-21 -56 -43 -77Q-82 -113 -101 -149Q-121 -184 -117 -209Q-113 -230 -98 -227Q-84 -225 -69 -205ZM230 469Q240 462 240 451T229 432T209 429Q199 436 199 447T209 467T230 469Z" />
<glyph unicode="k" glyph-name="k" horiz-adv-x="314" d="M364 175Q367 178 371 178T380 176T384 168Q384 164 377 155Q369 145 364 140Q324 94 320 90Q302 71 289 60T254 38T212 32Q203 34 196 38T182 46T171 59T162 73T154 89T148 105T142 122T136 137Q129 156
136 162L148 165Q156 167 160 167L182 173Q225 186 249 204Q273 221 282 240Q291 257 286 270Q280 286 253 277Q234 270 207 249Q182 228 156 195Q102 128 68 31Q66 28 66 28L63 24Q60 21 57 23Q42 26 48 41L71 99L116 214Q90 184 75 169Q65 157 58 158T50 166T53
178Q78 203 124 257L143 278Q149 294 153 302Q159 318 173 350L208 432Q238 499 263 544Q279 574 297 591Q326 616 350 602Q365 593 368 573T363 538Q359 526 338 492Q307 445 241 362Q214 328 184 293Q183 292 170 276L163 268Q162 267 162 265T160 261T158 257L138
208Q180 261 220 286Q279 323 304 285Q314 262 307 242T283 204Q243 163 157 144Q159 140 164 126T172 103Q190 63 210 56Q231 49 254 62Q274 74 301 103Q324 127 364 175ZM294 553Q278 528 252 474Q237 443 191 336Q220 371 222 373Q300 472 328 519Q351 557 345
575Q339 588 323 581Q311 576 294 553Z" />
<glyph unicode="l" glyph-name="l" horiz-adv-x="198" d="M328 603Q344 595 346 574T341 539Q336 524 316 491Q289 446 240 381Q207 336 139 248Q135 244 132 238L128 226L119 202Q110 177 104 156Q98 136 95 117Q91 88 98 72Q101 65 106 62T118 59T131 63T146
72T161 84T176 98T189 111T200 123L207 130L238 164Q239 165 243 170T249 177T256 183T263 186T270 181Q275 173 267 163Q251 144 250 143L217 108Q188 75 162 56Q134 36 115 37Q94 37 83 53T71 93Q70 123 91 188Q84 180 72 164Q68 158 61 158T51 167Q49 173 67
194L91 225Q94 228 96 231T102 238T108 245Q115 255 115 256Q116 258 117 261T120 267Q135 308 148 337Q176 409 192 444Q203 468 227 516Q249 558 266 577Q300 618 328 603ZM317 539Q330 568 320 581Q317 585 307 583Q287 575 265 537Q250 514 234 479Q214 440
194 392L164 317Q226 399 255 440Q302 509 317 539Z" />
<glyph unicode="m" glyph-name="m" horiz-adv-x="590" d="M660 182Q669 174 653 155Q629 125 616 110Q574 62 544 45Q503 21 483 44Q467 63 484 110Q488 124 494 139T509 171T521 199Q535 235 536 239Q542 257 541 269Q539 293 499 276Q475 265 442 234Q415 207
387 169Q378 158 362 134L351 117Q349 113 342 95T325 54Q315 36 311 33Q302 25 294 33Q288 39 292 51Q296 65 304 79L315 100Q326 119 327 122Q337 152 341 168Q356 222 354 256Q352 284 335 284Q328 284 318 280Q298 271 279 250Q246 217 198 141L165 84L151
58L140 36Q131 27 122 36Q118 42 122 50L135 77Q138 84 152 114T174 160Q192 202 197 225Q208 263 196 275Q190 281 180 275Q169 270 151 254Q146 249 121 222L86 182L73 167Q67 159 61 159Q53 160 51 167T54 179L63 189L97 229Q100 233 107 241T119 254T130 265T143
277T157 287Q190 312 211 292Q234 271 217 210Q248 253 274 276Q307 305 331 307Q348 308 360 297T375 268Q380 238 368 181Q409 236 447 268T517 304Q541 306 552 296Q563 285 563 267Q563 243 537 179Q508 112 503 95Q496 74 498 65Q499 55 515 57Q534 61 565
90Q588 112 618 147L639 173Q652 188 660 182Z" />
<glyph unicode="n" glyph-name="n" horiz-adv-x="424" d="M478 179Q482 184 489 183T498 175Q498 173 493 162Q491 157 480 144Q446 101 432 87Q393 48 365 38Q350 31 332 35T310 57Q306 70 312 90Q315 105 327 133Q331 143 338 160T352 192T363 220Q371 240 374
256Q376 273 372 278Q365 285 347 280Q338 279 324 271Q282 249 232 181Q196 132 163 74Q148 46 143 40Q136 29 126 34Q116 38 121 48L129 66Q163 134 178 169Q196 213 200 232Q203 244 203 257Q205 270 197 276Q190 280 177 273Q164 264 151 253Q121 226 89 187L74
167Q66 157 59 160Q54 161 52 166T53 175Q54 177 55 179T57 182L87 220Q112 248 132 266Q158 290 179 297Q194 302 207 296T224 274T224 237Q220 216 210 189Q228 213 246 234Q284 276 315 292Q360 316 385 296Q405 280 390 228Q388 223 352 136Q338 100 337 96Q330
75 331 66Q333 44 374 67Q395 80 429 116Q438 127 456 151T478 179Z" />
<glyph unicode="o" glyph-name="o" horiz-adv-x="289" d="M356 178Q359 176 359 173T360 168T358 162T355 158T351 153T347 149L320 122Q291 97 269 90Q249 85 234 87Q222 89 216 91T207 95L198 86Q160 46 121 37Q99 32 80 39T50 66Q36 93 43 136Q56 207 113 267Q129
282 145 296Q162 306 163 306Q174 304 174 294Q173 289 161 279Q152 273 145 266Q128 252 115 236Q87 200 76 168Q62 132 63 105Q64 84 76 70T108 58Q147 63 187 107Q142 148 171 240Q185 286 209 302Q225 314 242 311T269 291Q290 254 270 199Q256 155 222 113Q251
102 283 122Q302 135 317 151L338 173Q347 186 356 178ZM202 124Q218 145 229 164Q260 215 256 258Q254 282 243 288Q231 293 217 279Q193 253 185 203Q177 149 202 124Z" />
<glyph unicode="p" glyph-name="p" horiz-adv-x="336" d="M388 177Q394 185 402 179T406 164L391 146Q381 136 377 130Q354 106 325 83Q252 29 177 22Q151 19 122 24L106 27Q99 29 98 35T101 46T112 49Q122 46 132 46Q138 46 148 48Q164 51 180 59Q207 73 234
101Q280 152 297 218Q301 230 303 244Q305 272 301 281Q295 294 272 282Q249 272 225 252Q198 230 171 199Q146 170 119 128Q106 108 97 89Q96 88 94 84T91 78L86 67L77 45Q63 11 0 -134Q-20 -182 -31 -205Q-35 -217 -43 -217Q-54 -215 -54 -205Q-54 -201 -49 -191L-43
-178L14 -46L131 232Q93 190 75 168Q64 155 55 165Q48 172 56 181L110 243Q127 261 159 299Q165 306 173 301T178 287Q173 275 173 274Q147 212 141 197Q191 260 239 290Q286 320 309 304Q328 292 326 254Q325 220 309 180Q275 94 210 50Q301 74 388 177Z" />
<glyph unicode="q" glyph-name="q" horiz-adv-x="294" d="M349 181Q354 186 360 184T367 177T365 165L352 152Q281 72 248 49Q240 42 231 38L222 33Q215 28 215 28Q220 10 220 -17Q220 -57 212 -102Q203 -151 191 -182Q174 -225 148 -242Q118 -261 94 -241Q68
-219 83 -163Q93 -124 142 -17Q152 5 194 101Q171 73 149 56Q108 24 70 31Q34 37 27 76Q22 107 38 147Q55 187 92 227Q155 293 224 308Q265 317 294 309Q298 308 300 306T302 302T303 297T303 291T300 285T298 279T295 274L264 203Q240 150 194 44Q225 58 245 74Q268
92 292 119L349 181ZM101 55Q112 59 125 66Q150 81 175 113Q197 139 219 176Q249 226 277 289Q233 295 186 271Q151 254 118 221Q79 182 60 141Q44 101 50 77Q54 60 66 55Q79 49 101 55ZM159 -197Q169 -180 179 -147Q187 -121 192 -85Q197 -53 198 -24Q198 16 188
32Q183 22 176 4T165 -21Q160 -33 149 -57T129 -101T114 -139Q104 -166 101 -183Q97 -211 107 -222Q116 -232 127 -228T146 -215T159 -197Z" />
<glyph unicode="r" glyph-name="r" horiz-adv-x="258" d="M312 180Q317 185 323 184T330 177T328 165L318 153L283 114Q248 73 222 51Q193 26 174 24Q154 22 144 38T137 73Q141 101 179 161Q182 166 187 175T197 191T206 206Q220 234 219 243Q218 247 190 247Q165
249 159 265Q145 247 90 185L71 165Q62 156 54 160Q51 162 49 164T48 170T50 175T54 181T59 186T64 191T68 195Q88 216 126 260L158 299L173 316Q178 323 186 320T193 308Q192 304 189 297T184 288Q184 287 183 283T181 277Q180 271 186 270Q193 269 199 269T212
270T224 267Q245 260 241 235Q237 215 225 195L198 150Q164 92 160 73Q157 50 168 47Q174 45 188 53Q207 65 243 103L312 180Z" />
<glyph unicode="s" glyph-name="s" horiz-adv-x="243" d="M294 176Q301 185 310 179T313 163Q310 160 306 154T297 142T289 133Q259 98 228 75Q145 11 69 28Q29 37 -5 69Q-18 79 -19 86Q-19 98 -9 98Q-4 99 9 86Q17 78 26 72Q44 59 63 53Q70 50 84 48Q96 46 103
47Q129 53 139 82Q148 107 148 153Q148 163 147 197T146 251Q116 214 85 181L67 162Q61 153 53 161Q49 164 48 167T49 175T54 181T61 188L66 193Q80 208 95 225T128 264T156 298L168 312Q175 319 183 314T187 300Q186 297 181 292T175 283Q170 271 168 243Q168
226 169 193T170 143Q170 86 153 58Q196 74 238 113Q271 143 294 176Z" />
<glyph unicode="t" glyph-name="t" horiz-adv-x="217" d="M270 177Q274 182 280 181T289 173Q291 168 285 160Q267 139 266 138Q216 76 195 60Q156 29 122 39Q94 46 89 80Q85 106 92 139Q100 178 117 228Q104 209 76 171Q62 154 54 161Q44 168 59 185Q105 246
133 296H88Q81 296 78 301T77 312T93 318H146L156 339Q175 376 207 454Q210 462 218 461T228 451Q228 448 222 432L207 394Q193 362 176 318H245Q269 318 272 312T271 301T261 296H167Q166 296 165 292T161 283T159 277L151 256L135 212Q119 164 113 130Q106 89
114 73Q119 61 131 60T155 62T176 74Q199 90 244 146L270 177Z" />
<glyph unicode="u" glyph-name="u" horiz-adv-x="348" d="M399 177Q410 188 418 175Q421 168 415 160Q397 139 396 138Q368 106 342 82Q313 53 289 40Q247 18 232 43Q223 58 232 93Q239 122 263 178Q210 103 164 63Q130 35 102 31Q86 29 75 37T60 60Q57 81 69
118Q75 137 103 205L79 174Q78 173 75 169T71 164T66 160T60 158T54 160Q42 168 58 184L78 209Q120 263 139 290Q140 291 141 294T145 300Q152 307 161 300Q167 294 161 284Q134 218 127 202Q104 153 94 122Q86 101 84 87Q80 73 83 63Q87 45 118 59Q139 69 159
89Q198 126 246 194Q286 252 311 297Q316 306 323 306Q332 306 334 297Q334 296 331 284Q324 269 312 239Q306 223 291 188T269 133Q252 88 250 69Q247 57 252 53Q256 51 266 54L277 59Q296 70 335 106Q371 142 399 177Z" />
<glyph unicode="v" glyph-name="v" horiz-adv-x="403" d="M454 178Q461 184 468 179T473 166Q472 164 463 155L451 144Q418 115 396 108Q363 97 341 118Q323 136 331 174Q280 111 244 80Q216 56 200 47Q178 34 162 33Q129 30 124 61Q121 87 143 138Q147 147 161
176T181 223Q181 224 183 228T186 237T190 247T193 258T194 267T192 274T186 277Q178 277 169 268Q157 260 144 247L94 192Q92 188 87 183T81 176Q70 163 67 160Q59 155 53 162T53 177L67 195Q120 254 122 256Q156 290 174 297Q188 302 201 295T216 273Q217 258
210 238Q208 230 193 193Q161 121 158 113Q150 95 147 79T149 58Q157 48 178 60Q197 69 219 89Q266 129 314 189Q342 223 354 241L370 264Q371 265 373 270T377 277T382 283T388 287T395 286Q406 281 399 270L387 248Q375 228 366 206Q350 172 351 149Q352 137
361 132T382 128Q398 131 416 145Q434 158 454 178Z" />
<glyph unicode="w" glyph-name="w" horiz-adv-x="485" d="M538 178Q542 183 549 181T556 171Q557 166 542 151Q517 127 497 117Q471 101 448 106Q419 112 413 140Q387 97 357 69Q326 38 293 33Q271 29 257 37Q241 44 236 66Q230 97 251 156Q206 95 166 62Q129
31 101 31Q86 31 76 39T64 63Q61 82 74 122Q89 166 108 208L85 180L72 166Q66 158 60 158Q51 160 50 167T55 180L79 208Q119 255 140 288Q141 289 143 292T146 297T150 301T154 304T160 303Q171 298 166 286L148 244Q143 231 133 208T115 166T100 130Q92 106 89
94Q85 76 86 67Q88 54 97 54Q104 53 118 57Q133 63 159 85Q178 102 203 132Q242 179 284 246Q300 271 313 293Q317 301 320 304Q329 310 336 301Q340 296 334 284Q329 277 326 270Q283 190 265 127Q255 92 258 73Q260 58 270 56Q285 51 302 59Q333 71 362 107Q387
137 413 184Q421 198 424 205L434 228L456 270Q464 288 466 292Q468 298 471 301Q478 308 487 300Q492 295 484 277Q483 275 479 266T472 252L451 208Q439 184 435 163Q431 145 439 136Q448 124 465 128Q481 130 499 145Q513 155 538 178Z" />
<glyph unicode="x" glyph-name="x" horiz-adv-x="363" d="M418 177Q422 182 428 181T437 175Q440 168 434 161L417 140Q379 94 357 73Q318 36 286 35Q266 34 253 44T236 76T230 111T229 147Q171 101 143 77Q110 46 104 39Q99 32 94 31Q83 29 81 41Q80 45 92 60Q110
78 148 110L188 143L210 161L220 169Q229 175 229 178L227 225Q225 249 219 262Q212 278 200 280Q187 281 170 270Q148 255 104 202Q79 173 72 165Q63 156 55 160Q45 168 52 176Q57 183 67 194T81 210L114 249Q154 294 184 301Q206 306 220 297T241 267T248 231T251
194L328 254L385 298Q386 299 388 301T392 304T396 306T401 307T406 305Q416 299 409 288Q407 285 400 281T392 275Q386 271 312 213Q309 211 294 199T271 181L259 172L251 164V142Q254 99 254 98Q259 73 263 67Q279 43 318 71Q348 91 387 140L418 177Z" />
<glyph unicode="y" glyph-name="y" horiz-adv-x="381" d="M434 177Q438 181 443 181T452 176Q456 169 445 155L408 113Q361 64 326 34L306 16Q303 13 295 -5Q294 -9 287 -25Q283 -37 273 -61Q249 -119 236 -147Q216 -189 195 -211Q167 -243 135 -244Q114 -245
101 -231T88 -196Q89 -152 141 -96Q166 -69 215 -31L256 2L276 20Q283 25 284 27L287 34Q327 134 348 184Q291 106 247 69Q216 42 189 37Q171 33 159 44Q148 52 148 70Q147 83 153 109L169 157Q192 217 197 244Q201 263 197 272Q192 282 177 276Q173 274 169 271T161
264T153 258Q150 255 141 245T126 229L86 182L71 164Q67 158 59 158T50 167Q49 172 59 185L75 204Q117 253 129 265Q160 296 179 300Q194 303 207 295Q221 284 221 264Q223 238 200 174Q176 114 171 88Q169 68 172 62Q176 57 191 60Q208 65 233 86Q273 122 331
199Q361 241 375 263Q381 273 385 278Q391 288 397 288Q403 289 406 283T407 271L322 60Q385 118 434 177ZM252 -53Q254 -46 266 -18Q258 -25 235 -42T197 -73T167 -101Q133 -135 119 -167Q105 -197 114 -213T148 -218Q161 -214 173 -202Q194 -182 213 -142Q228
-113 252 -53Z" />
<glyph unicode="z" glyph-name="z" horiz-adv-x="305" d="M373 178Q381 170 371 159L251 30L226 5L220 0Q218 -4 218 -6L213 -16Q207 -32 203 -39Q180 -93 160 -130Q136 -175 116 -203Q94 -234 69 -247Q38 -263 12 -252Q-24 -234 -8 -183Q6 -145 48 -105Q67 -86
123 -45Q128 -42 136 -36T152 -24T165 -15Q173 -10 187 2L197 10Q201 13 203 21Q212 46 207 60Q206 65 202 69L199 73Q196 76 195 74L173 60Q123 29 96 38Q81 43 78 55Q76 68 90 85Q123 119 171 111Q183 108 195 102Q213 117 214 118Q234 137 249 154Q287 203 285
237Q284 259 267 270T225 280Q199 279 171 261T132 232T91 187L78 173Q67 160 63 159Q54 158 51 165T53 179L69 197Q71 199 82 211T97 228T111 242T127 258T142 270T161 283T179 292Q222 309 259 299Q303 286 308 241Q311 205 282 161Q256 122 214 89Q233 69 230
41L284 98L329 146L352 172Q365 185 373 178ZM31 -234Q69 -237 109 -173Q138 -131 183 -30Q171 -39 141 -59T90 -97T52 -132Q21 -164 13 -191Q1 -230 31 -234ZM105 59Q114 58 135 65Q153 73 175 88Q150 95 124 82Q113 78 104 67L100 62Q99 60 101 60T105 59Z" />
<glyph unicode="{" glyph-name="braceleft" horiz-adv-x="297" d="M384 584Q382 585 380 585T374 586T369 587Q350 588 331 582Q305 574 282 551Q263 530 248 501Q233 472 221 441Q211 415 199 377Q191 348 179 310Q170 277 158 248Q148 223 134 205Q129 199 119
192Q104 183 90 178Q100 171 106 164Q106 163 107 161T109 157Q113 147 109 128Q103 107 94 85Q76 45 66 25Q49 -9 37 -37Q23 -65 10 -99Q-4 -134 -8 -155Q-11 -167 -11 -180Q-13 -195 -9 -205Q-4 -219 9 -223Q20 -227 35 -227Q43 -227 57 -225Q59 -224 62 -224Q66
-224 68 -226Q75 -229 73 -237Q72 -244 65 -246Q64 -246 64 -246L62 -247Q50 -249 45 -249Q17 -252 -6 -241Q-19 -235 -25 -222Q-32 -213 -34 -195Q-35 -173 -28 -142Q-20 -112 -7 -81Q2 -59 22 -15L50 43Q53 49 58 60T67 80T74 97Q78 105 84 121Q88 133 89 140Q89
148 88 150Q78 162 65 165Q64 165 62 165T58 166H52Q44 168 44 176Q43 180 46 183V186L47 187Q47 188 48 190Q53 195 59 194H61Q69 194 75 197Q88 200 101 208Q109 212 112 215Q118 221 118 222Q124 230 131 243Q139 261 142 271Q150 291 165 341Q169 356 185 406Q199
448 208 469Q221 501 236 526Q253 554 275 576Q297 595 324 604Q344 610 364 610Q380 608 388 606Q395 604 397 601Q401 593 396 588Q392 582 384 584Z" />
<glyph unicode="|" glyph-name="bar" horiz-adv-x="376" d="M363 583Q373 580 369 569V568Q367 564 367 563Q365 560 363 554L357 541L350 524L342 504L332 481L322 455L310 427Q308 421 303 411T297 396L284 364L269 330Q265 318 255 294L225 222Q222 215 217
202T209 185L179 111L149 41L135 7L122 -25L110 -55L98 -83Q97 -86 94 -94T88 -108Q86 -112 78 -130Q77 -134 70 -150L64 -165Q60 -173 59 -177L55 -185Q55 -186 55 -187T54 -189Q50 -196 43 -196Q37 -196 34 -191T33 -180Q34 -179 34 -177L37 -170L42 -159L48
-144L56 -125L65 -103L76 -78L87 -50L99 -21L113 11L126 44L141 79L171 151L186 188Q199 218 202 225L217 262L232 298L247 333L261 367L274 400Q280 413 287 431L299 460Q301 464 304 473T310 486L320 510L329 530Q333 542 336 548Q340 555 341 561Q342 563 345
571L348 576V577Q352 589 363 583Z" />
<glyph unicode="}" glyph-name="braceright" horiz-adv-x="449" d="M366 553Q367 538 361 508Q353 477 341 448Q333 426 313 382Q304 362 284 322Q281 316 276 305T267 285T260 268Q256 260 250 244Q245 233 244 224Q242 216 243 211Q243 210 243 210T244 209L250
203Q256 198 262 196Q270 194 275 194Q282 196 286 190T288 175Q288 174 287 173T282 169T272 166Q267 166 261 164Q254 163 237 156L222 147L216 141Q209 134 204 122Q197 111 192 96Q183 73 169 27L149 -39Q135 -81 126 -102Q113 -134 99 -161Q81 -191 62 -211Q37
-234 13 -242Q-8 -250 -29 -250Q-42 -250 -55 -247L-61 -245Q-67 -242 -67 -233Q-65 -226 -58 -224Q-56 -223 -53 -224T-48 -225Q-42 -227 -37 -227Q-16 -229 1 -223Q27 -215 49 -191Q67 -172 84 -141Q94 -122 110 -82Q121 -53 132 -17L153 50Q161 77 174 112Q185
140 198 154Q203 162 212 167Q229 177 241 182Q233 187 225 197L222 203Q219 213 223 232Q226 249 238 276Q256 316 266 336Q283 370 295 398Q309 426 322 460Q332 486 340 516Q343 540 343 541Q345 554 340 566Q336 578 322 583Q314 587 295 587Q284 587 274 584H269Q266
584 262 586Q256 592 259 598Q261 604 267 606Q269 606 270 607Q282 609 287 609Q317 613 338 600Q350 594 358 581Q364 571 366 553Z" />
<glyph unicode="~" glyph-name="asciitilde" horiz-adv-x="44" d="M112 182Q120 174 111 163L92 140L25 61L7 39Q4 36 0 35T-8 36T-13 44T-9 56Q-4 62 94 177Q105 189 112 182Z" />
<glyph unicode="&#xa1;" glyph-name="exclamdown" horiz-adv-x="378" d="M77 -139Q65 -134 76 -113Q81 -100 93 -74L174 117L231 248Q233 254 238 255Q245 258 250 253T252 240L247 229L220 165L136 -31L103 -107L94 -128Q87 -144 77 -139ZM282 397Q282 404 287
409T300 415T313 410T319 397Q319 378 300 378Q292 378 287 383T282 397Z" />
<glyph unicode="&#xa2;" glyph-name="cent" horiz-adv-x="309" d="M229 505Q252 502 267 491Q278 483 286 470Q291 463 290 456Q288 450 281 448Q273 446 270 453L262 465Q253 475 240 480Q232 482 227 482Q224 482 223 483H220V482Q220 481 219 480Q218 476 214
468L206 447L194 420L181 387L166 352L151 315L136 279L122 245L109 216L100 192Q97 187 93 177L91 171Q112 168 141 181Q168 193 194 219Q195 220 196 221T199 223T201 226L207 232Q212 238 220 235Q228 231 226 223Q226 221 224 217L217 210Q193 184 164 167Q137
151 107 148Q95 148 89 149L82 150L79 143L67 113L52 77L43 55L42 54Q38 47 31 48Q25 48 23 53T22 63L29 82L44 117L57 149L61 157V158Q56 161 56 162Q54 163 50 167Q29 184 22 219Q15 248 22 285Q30 323 44 353Q57 383 79 413Q102 445 128 465Q156 488 182 497L195
502Q196 502 198 502T202 503Q205 503 205 504Q205 507 207 509L219 539L234 575L242 593Q244 599 250 600T261 597Q265 593 263 585Q263 584 263 584T262 583Q261 580 258 572T252 558L237 523L229 505ZM70 179L73 186Q77 198 80 203Q82 208 85 216T90 228L103
259L118 294L133 331L148 367L162 402L175 432L185 456L191 472L194 478Q179 473 168 466Q140 449 115 421Q92 396 74 364Q56 329 49 300Q39 261 43 230Q47 195 70 179Z" />
<glyph unicode="&#xa3;" glyph-name="sterling" horiz-adv-x="473" d="M349 576Q376 574 400 564Q424 553 441 532Q459 506 459 479Q460 449 444 419L435 406L429 400Q427 399 423 399Q415 399 413 407Q412 410 413 413Q415 418 417 419Q438 447 437 478Q435 507
415 527Q396 545 367 551Q343 556 322 553Q301 548 287 540Q267 528 255 515Q244 504 226 478Q212 453 202 429Q190 399 181 369L173 336Q168 316 163 301H265Q270 301 273 297Q278 290 274 284Q271 279 265 279H156L155 274L152 266L147 251L123 189Q114 168 94
128Q74 92 62 75L72 78Q94 82 106 83Q125 83 143 80Q178 73 217 60Q230 57 254 49L288 42Q308 40 317 42L329 45Q336 48 341 43Q348 38 344 31Q342 27 340 26L334 23Q321 19 305 19Q288 19 272 22L236 31Q228 33 202 41T161 53Q143 58 125 59Q110 61 93 59Q68 56
42 43Q27 36 16 28L14 26Q12 24 10 24H2Q-6 24 -9 30Q-11 38 -6 43Q-4 45 2 47Q4 48 6 49T9 51Q17 56 23 63Q38 78 52 101Q67 125 82 154Q98 186 109 215Q123 248 133 279H61Q54 279 52 287T56 299Q58 301 63 301H140L141 303Q141 304 141 305T142 308L145 317Q146
321 152 347T163 387Q174 421 184 444Q192 466 207 489Q220 511 232 523Q241 535 257 547T282 563Q294 569 307 572Q313 574 329 576Q340 578 349 576Z" />
<glyph unicode="&#xa4;" glyph-name="currency" horiz-adv-x="316" d="M1 586V607Q1 609 3 609H315V588Q315 586 313 586H1ZM1 37V58Q1 60 3 60H315V39Q315 37 313 37H1ZM161 320V301Q161 297 159 297H1V313Q1 320 3 320H161Z" />
<glyph unicode="&#xa5;" glyph-name="yen" horiz-adv-x="414" d="M243 305Q251 305 253 297Q257 290 250 285Q247 282 243 282H154Q153 282 153 280L150 275L143 258L132 234H235Q240 234 244 230Q248 224 245 217Q241 211 235 211H123Q122 211 122 210Q121 209
121 208Q120 206 120 205L110 183L96 150L80 114L65 80Q64 77 61 69T55 55L52 49Q50 45 50 44Q44 38 38 40Q30 42 29 49Q29 51 31 57L38 74Q43 84 51 104L67 140L82 175Q91 196 93 201L98 211H34Q29 211 24 216Q20 222 24 228Q27 234 33 234H108L109 236Q109 237
111 241L118 258L129 282H40Q32 284 30 290Q29 296 32 300T41 305H137V306Q137 314 136 318Q136 322 136 329T135 341L133 372L131 408Q129 434 129 447L126 487Q126 499 124 525L122 557Q122 562 122 570T121 583Q120 588 120 599Q119 600 119 603Q119 610 125
613Q130 617 135 614T142 604V601Q142 599 142 593T143 584L145 554L147 515L150 472L152 427L155 386Q155 376 157 352Q157 349 157 341T158 329L161 333L176 350L195 374L219 403Q244 433 245 435Q259 451 273 469L300 502L326 532Q340 550 348 559Q353 566 365
580L376 593Q379 600 386 601Q393 603 397 595Q402 589 396 583Q396 582 395 582Q391 576 388 573L376 558L358 536L337 511L313 482L288 452Q284 447 280 442T271 431T263 421L238 391L216 364L196 340L181 321L171 309L167 305H243Z" />
<glyph unicode="&#xa6;" glyph-name="brokenbar" horiz-adv-x="376" d="M363 583L366 581Q369 579 369 569V568Q365 561 363 554L298 400Q298 399 298 398L297 396L269 330Q269 327 261 309L225 222Q223 218 223 216L213 194Q211 191 209 185L98 -83Q94 -92 93
-94Q92 -94 92 -95V-96L85 -114Q70 -140 70 -150L64 -165Q60 -173 59 -177L55 -185Q55 -187 54 -188T53 -191L51 -193Q47 -195 46 -195L43 -196Q32 -196 32 -185Q32 -183 33 -181T34 -177L186 188Q186 189 187 191T188 194L189 195Q189 196 190 198V199L286 427Q286
430 287 431L299 460Q301 463 303 470T307 480L334 544L336 548L339 555L340 557Q340 558 340 559T339 562Q339 565 345 571L348 577Q349 581 356 584Q360 584 363 583Z" />
<glyph unicode="&#xa7;" glyph-name="section" horiz-adv-x="420" d="M277 598Q297 597 318 590Q342 582 359 568Q375 555 386 536Q396 520 401 499Q406 483 408 460L410 441V432Q410 428 409 426Q409 424 406 421Q399 416 393 420Q390 421 389 424Q387 428 387
430Q387 444 386 451Q384 476 379 493Q375 514 362 531Q350 549 330 560Q309 572 279 575Q264 577 253 574Q240 573 227 566Q200 553 181 527Q160 501 149 469Q139 435 142 405Q143 372 158 340Q166 322 171 314Q178 303 190 281Q214 241 225 220Q241 190 251 166Q263
135 266 116Q271 92 269 69Q266 44 257 23Q249 7 244 0Q238 -11 226 -23Q216 -34 202 -42Q190 -49 188 -50L180 -53Q179 -53 178 -54H177V-59Q180 -94 170 -123Q167 -132 154 -156Q144 -172 136 -180Q118 -200 92 -209Q68 -220 41 -221Q14 -223 -10 -217Q-35 -213
-60 -198T-100 -164Q-115 -144 -121 -118Q-126 -94 -121 -64Q-121 -59 -119 -57Q-117 -53 -114 -53Q-107 -50 -102 -55Q-99 -58 -99 -61V-68Q-101 -78 -101 -82Q-103 -110 -91 -133Q-82 -155 -59 -172Q-39 -187 -9 -195Q17 -201 44 -198Q72 -196 94 -183Q106 -177
115 -168Q123 -162 132 -148Q145 -128 151 -107Q157 -87 155 -65Q154 -48 146 -20Q136 7 125 30Q119 44 95 86L59 147Q41 178 34 209Q25 242 28 276Q31 309 45 340Q58 370 78 392L100 412L112 421L119 424V433Q122 469 137 500T176 555Q199 578 224 589Q252 601
277 598ZM150 306Q142 320 138 329Q124 360 119 398Q100 386 83 362Q65 336 56 305Q50 282 50 257Q50 229 60 197Q68 177 76 163L91 137Q114 100 127 75Q149 33 155 19Q167 -9 172 -32L182 -28Q197 -20 208 -10Q215 -4 225 12Q239 35 243 54Q248 74 246 96Q245
115 236 141Q226 170 214 191Q210 200 205 209T194 230T184 248L150 306Z" />
<glyph unicode="&#xa8;" glyph-name="dieresis" horiz-adv-x="197" d="M85 708Q104 700 98 679Q91 666 77 664Q61 664 56 678Q50 691 60 703Q72 713 85 708ZM140 684Q159 676 153 655Q146 642 132 640Q116 640 111 654Q105 667 115 679Q127 689 140 684Z" />
<glyph unicode="&#xa9;" glyph-name="copyright" horiz-adv-x="591" d="M393 604Q414 604 439 599Q468 593 493 578Q520 561 536 541Q556 518 567 488T580 423Q583 389 575 351Q570 319 555 284Q547 263 529 230Q515 207 496 181Q474 154 456 136Q435 115 411
97Q385 78 363 65Q340 52 313 41Q287 32 261 26Q233 21 210 21Q179 21 149 30Q120 38 97 54Q74 71 57 94Q41 115 31 147Q21 177 21 210Q19 245 27 278Q33 310 47 343Q57 369 73 396Q86 418 107 446Q123 466 147 490Q168 511 192 529Q219 549 240 560Q263 573 290
584Q316 593 342 599Q370 604 393 604ZM543 314Q551 344 554 360Q561 397 558 427Q555 459 543 487Q532 513 512 535Q491 556 465 566Q442 578 407 581Q380 582 353 578Q325 573 302 565Q290 560 251 542Q219 522 203 510Q178 490 159 471Q138 450 120 426T87 375Q70
343 62 321Q49 286 45 253Q40 220 45 186Q50 153 62 129Q76 102 97 83Q118 65 146 54Q173 44 205 44Q227 43 257 48Q286 54 309 64Q336 75 359 88Q385 104 406 121Q430 140 450 162Q473 187 488 208Q504 230 519 259Q533 287 543 314ZM381 247Q386 252 393 250Q400
246 400 239Q400 236 396 230Q392 226 391 224L377 210Q358 189 342 178Q317 160 296 154Q267 145 238 149Q212 152 193 168Q177 183 170 210Q165 230 167 261Q169 282 178 311Q188 338 199 361Q214 389 229 407Q244 428 265 447Q283 462 307 475Q338 488 358 486Q372
484 381 478Q391 470 395 460Q403 440 398 414Q391 386 376 368Q368 360 357 352Q353 350 352 350Q348 348 346 348Q338 346 335 353Q331 359 336 366Q337 368 341 370T346 372Q357 378 363 389Q369 398 374 412Q378 426 377 436Q377 449 371 456Q366 464 352 464Q342
464 326 458Q309 451 305 448Q284 435 265 415Q245 395 232 372Q216 347 207 323Q197 299 192 273Q187 248 190 224Q194 196 211 183Q219 176 232 173Q241 170 261 170Q288 171 314 186Q334 198 354 218L381 247Z" />
<glyph unicode="&#xaa;" glyph-name="ordfeminine" horiz-adv-x="324" d="M376 178Q382 184 389 180T395 168Q395 167 388 157Q368 135 359 124Q309 68 288 51Q249 18 218 33Q186 47 195 103Q160 59 126 41Q80 19 50 39Q25 56 25 94Q26 126 48 166Q68 207 110
245Q143 276 178 293Q229 318 278 312Q290 310 296 308Q301 307 302 304T303 296T301 288T297 279T294 272Q280 240 255 194Q251 186 241 170Q232 152 230 146Q220 116 217 100Q213 74 219 61T243 52Q255 54 271 66Q290 81 302 95Q322 115 376 178ZM101 56Q127
63 157 93Q179 115 207 158Q212 164 218 178L227 197Q232 210 244 234Q260 265 275 289Q233 294 186 272Q152 255 118 221Q78 183 60 141Q44 103 50 77Q54 60 66 55Q79 50 101 56ZM296 -7Q300 -7 305 -10Q310 -15 307 -23Q304 -29 296 -29H52Q42 -29 41 -28Q34
-24 34 -18Q34 -10 41 -7H296Z" />
<glyph unicode="&#xab;" glyph-name="guillemotleft" horiz-adv-x="243" d="M58 167L59 165L66 102Q68 76 70 63L73 39Q73 24 61 24Q56 24 54 27T51 37T49 46L46 78L38 151Q38 153 37 157T36 165T35 171Q35 174 38 177L41 182L78 231Q91 247 101 263L122 291L138
312Q142 316 146 316Q158 316 158 304Q158 302 156 298L151 291L111 238L68 179Q62 171 58 167ZM217 312Q221 316 225 316Q235 316 237 306Q237 302 235 298L195 245L138 168Q137 167 137 166Q137 162 143 119L147 79Q149 46 152 38V36Q152 23 140 23Q131 23 129
34V38L122 100L115 164Q115 167 114 169Q114 174 117 178L128 191Q140 209 147 217L193 279Q196 282 204 295T217 312Z" />
<glyph unicode="&#xac;" glyph-name="logicalnot" horiz-adv-x="316" d="M1 586V607Q1 609 3 609H315V588Q315 586 313 586H1ZM1 37V58Q1 60 3 60H315V39Q315 37 313 37H1ZM161 320V301Q161 297 159 297H1V313Q1 320 3 320H161Z" />
<glyph unicode="&#xae;" glyph-name="registered" horiz-adv-x="575" d="M380 604Q401 604 426 599Q454 593 480 578Q507 561 523 541Q543 518 554 488T567 423Q570 389 562 351Q557 319 542 284Q534 263 516 230Q502 207 483 181Q461 154 443 136Q422 115 398
97Q372 78 350 65Q327 52 300 41Q274 32 248 26Q220 21 197 21Q166 21 136 30Q107 38 84 54Q61 71 44 94Q28 115 18 147Q8 177 8 210Q6 245 14 278Q20 310 34 343Q44 369 60 396Q73 418 94 446Q110 466 134 490Q155 511 179 529Q206 549 227 560Q250 573 277 584Q303
593 329 599Q357 604 380 604ZM530 314Q538 344 541 360Q548 397 545 427Q542 459 530 487Q519 513 499 535Q478 556 452 566Q429 578 394 581Q367 582 340 578Q312 573 289 565Q277 560 238 542Q206 522 190 510Q165 490 146 471Q125 450 107 426T74 375Q57 343
49 321Q36 286 32 253Q27 220 32 186Q37 153 49 129Q63 102 84 83Q105 65 133 54Q160 44 192 44Q214 43 244 48Q273 54 296 64Q323 75 346 88Q372 104 393 121Q417 140 437 162Q460 187 475 208Q491 230 506 259Q520 287 530 314ZM435 245Q439 249 445 248T453
243Q456 238 454 232L451 228L440 215L428 201Q407 178 391 169Q365 155 336 158Q314 159 287 177Q262 195 245 221Q226 247 219 277Q216 268 208 250L196 222L181 186L172 163Q172 162 171 162Q169 155 162 155Q156 154 152 159T151 170L158 188L173 223L186 255L197
283L205 301Q206 302 206 303Q207 305 207 306Q208 307 208 308V310Q210 312 210 314Q212 316 212 318L227 354L252 415Q258 429 260 436L263 443Q265 452 262 455Q261 456 259 456T255 457T252 458Q242 458 237 457Q219 454 206 445Q200 442 197 436L195 432Q195
430 191 426Q184 423 178 426Q172 432 174 438Q176 448 188 460Q195 466 213 474Q231 480 243 480Q259 482 271 475Q281 470 285 460Q289 447 283 432Q284 432 284 433Q308 462 334 474Q363 488 385 476Q399 467 405 451Q412 430 407 406Q403 381 388 354Q370 327
344 307Q316 289 289 282Q261 275 243 277Q244 275 248 261Q258 235 281 212Q302 191 324 183Q350 175 375 186Q394 196 415 220L435 245ZM231 302T232 302T237 300Q240 300 242 299Q260 298 283 303Q312 311 335 329Q361 349 375 378Q387 404 386 426Q386 453
370 458Q359 462 342 453Q334 450 327 444Q313 433 297 413Q285 398 265 366L248 336L239 320L235 311Q230 304 230 303Q231 302 232 302Z" />
<glyph unicode="&#xaf;" glyph-name="overscore" horiz-adv-x="363" d="M297 569Q302 569 306 566Q311 561 308 553Q305 547 297 547H53Q44 547 42 548Q35 552 35 558Q35 566 42 569H297Z" />
<glyph unicode="0;" glyph-name="degree" horiz-adv-x="196" d="M93 580Q116 580 130 563Q150 541 139 513Q129 485 99 482T53 503Q35 527 50 554Q63 580 93 580ZM93 504Q99 504 102 505Q116 510 119 524Q123 537 113 549Q103 560 89 557Q74 555 69 542Q63
529 71 516Q80 504 93 504Z" />
<glyph unicode="1;" glyph-name="plusminus" horiz-adv-x="150" d="M284 600Q303 591 307 568T301 528Q290 504 271 476Q234 422 163 340L132 304L116 286Q112 283 105 265L79 199L26 65Q61 97 88 125L118 159Q119 160 122 164T127 170T133 176T139 179T146
176Q154 169 147 158L132 140L102 108Q70 74 43 50L7 18L-14 -32Q-30 -70 -52 -118Q-72 -160 -87 -184Q-104 -213 -117 -228Q-140 -253 -164 -250Q-185 -247 -193 -228T-197 -188Q-192 -149 -157 -107Q-133 -77 -87 -35L-48 0L-28 18Q-11 32 -10 35L30 137L69 235Q62
227 38 202T0 162Q-5 157 -11 159T-18 166T-16 178L-9 185Q-2 192 5 200T22 218T36 233L69 269L88 290Q92 293 95 301Q99 309 100 313L139 408Q180 507 195 538Q237 621 284 600ZM-146 -223Q-137 -219 -122 -199Q-109 -180 -95 -153Q-69 -104 -31 -15Q-114 -88
-147 -131Q-171 -162 -175 -192Q-177 -211 -171 -221Q-163 -233 -146 -223ZM281 538Q292 562 280 575Q266 590 242 568Q225 551 205 507T137 345Q192 407 226 452Q270 511 281 538Z" />
<glyph unicode="2;" glyph-name="twosuperior" horiz-adv-x="216" d="M143 590T156 583T177 561Q184 548 185 534T183 503Q177 471 161 445Q149 424 127 402Q109 386 88 372Q90 371 94 371Q124 366 129 366Q138 366 143 368Q144 368 148 370L153 374Q160 378
166 372Q171 365 168 359L162 353Q159 350 156 349Q148 345 143 344Q132 343 112 345Q90 349 78 350Q57 352 48 348L42 344Q41 344 40 344L38 343Q36 343 36 342Q29 339 24 344Q18 349 21 357Q23 361 25 362L28 364L42 371Q59 379 77 391Q100 407 113 420Q132 439
144 460Q158 486 162 514Q168 550 144 563Q118 579 88 549Q77 536 76 527V523V521Q80 515 75 508Q69 502 63 505Q57 507 55 514Q51 525 56 539Q67 568 98 583Q114 590 128 590Q143 590 156 583Z" />
<glyph unicode="3;" glyph-name="threesuperior" horiz-adv-x="236" d="M181 455Q190 436 183 413Q179 399 169 382Q162 370 151 361Q132 345 105 340Q76 337 55 343Q24 353 16 374Q13 381 15 387Q19 394 26 393Q32 393 36 386Q36 383 38 381Q38 379 41 376Q48
368 65 364Q76 360 92 362Q122 364 140 382Q150 391 157 408Q164 424 163 437Q161 453 148 459L147 460Q146 460 145 460H143Q141 460 140 459Q138 459 135 459T131 458Q120 456 115 457Q98 459 97 472Q94 482 102 485Q105 486 108 485Q112 485 115 482L117 480Q118
479 121 479Q130 479 137 482Q151 485 164 495Q176 505 184 516Q193 528 194 539Q195 546 194 552T187 564Q176 572 161 572Q143 572 128 566L117 560Q113 558 112 556V558Q110 549 105 547Q100 544 93 548T91 564Q95 574 110 582Q133 594 160 594Q192 594 207
575Q217 565 217 548Q218 536 211 518Q197 489 169 472Q177 464 181 455ZM118 471Q119 473 119 476Q119 477 118 477Q118 479 116 479Q118 477 118 471Z" />
<glyph unicode="4;" glyph-name="acute" horiz-adv-x="172" d="M90 691L109 706Q115 710 122 707Q129 702 127 695Q126 690 123 688L120 686Q119 685 110 678T95 667Q86 659 68 645L62 641Q58 637 51 639T44 649Q44 655 48 658L50 660Q51 660 54 663T60 667L90 691Z" />
<glyph unicode="5;" glyph-name="mu" horiz-adv-x="298" d="M158 604Q216 619 245 597Q271 576 255 533Q237 484 210 420Q164 308 140 252L65 72L51 39Q51 38 49 34Q47 28 41 28T30 31T29 43L54 105L138 304L204 465Q220 503 227 522Q244 564 234 575Q226
585 204 587Q183 588 156 580Q132 573 116 561Q98 547 95 536Q91 524 82 525Q70 527 72 537Q73 551 90 568Q115 593 158 604Z" />
<glyph unicode="6;" glyph-name="paragraph" horiz-adv-x="316" d="M1 586V607Q1 609 3 609H315V588Q315 586 313 586H1ZM1 37V58Q1 60 3 60H315V39Q315 37 313 37H1ZM161 320V301Q161 297 159 297H1V313Q1 320 3 320H161Z" />
<glyph unicode="7;" glyph-name="middot" horiz-adv-x="139" d="M130 300Q130 290 124 284T107 277Q98 277 92 283T85 300Q85 309 91 315T107 322Q117 322 123 316T130 300Z" />
<glyph unicode="8;" glyph-name="cedilla" horiz-adv-x="190" d="M118 26Q138 28 149 26Q163 22 169 12Q174 4 174 -5Q174 -16 167 -28Q160 -42 149 -52Q126 -75 103 -87Q81 -102 54 -108Q40 -110 33 -108Q27 -108 23 -104Q18 -98 22 -91Q25 -85 33 -85Q34
-86 37 -86Q38 -87 40 -87Q43 -87 58 -84Q79 -76 105 -60L127 -42Q139 -31 147 -19Q151 -11 151 -6Q151 0 149 2Q145 4 141 4Q135 6 129 4Q112 2 98 -2Q88 -6 84 -5Q76 -2 76 7Q76 11 80 15Q83 18 87 24L133 80L140 90L144 94Q150 100 157 96Q165 92 163 83Q161
79 159 78L155 72L118 26Z" />
<glyph unicode="9;" glyph-name="onesuperior" horiz-adv-x="164" d="M138 568Q140 563 138 558L132 545L122 520L109 488L95 452L80 415Q75 404 67 382L56 356L50 341L49 339Q47 332 40 332Q32 330 29 337Q26 342 29 348Q29 349 29 350T30 353L39 373L51
404L66 440L80 476L93 508Q99 524 103 531L106 540H105L104 539Q98 537 92 543Q88 551 92 556Q94 559 97 561L104 564L120 572Q122 574 125 574H127H129Q132 574 133 573L136 571Q136 570 138 568Z" />
<glyph unicode="a;" glyph-name="ordmasculine" horiz-adv-x="289" d="M356 178Q359 176 359 173T360 168T358 162T355 158T351 153T347 149L320 122Q291 97 269 90Q249 85 234 87Q222 89 216 91T207 95L198 86Q160 46 121 37Q99 32 80 39T50 66Q36 93 43
136Q56 207 113 267Q129 282 145 296Q162 306 163 306Q174 304 174 294Q173 289 161 279Q152 273 145 266Q128 252 115 236Q87 200 76 168Q62 132 63 105Q64 84 76 70T108 58Q147 63 187 107Q142 148 171 240Q185 286 209 302Q225 314 242 311T269 291Q290 254
270 199Q256 155 222 113Q251 102 283 122Q302 135 317 151L338 173Q347 186 356 178ZM202 124Q218 145 229 164Q260 215 256 258Q254 282 243 288Q231 293 217 279Q193 253 185 203Q177 149 202 124ZM274 -2Q278 -2 283 -5Q288 -10 285 -18Q282 -24 274 -24H30Q20
-24 19 -23Q12 -20 12 -13T19 -2H274Z" />
<glyph unicode="b;" glyph-name="guillemotright" horiz-adv-x="204" d="M140 303L145 286L153 253Q157 241 163 215L172 183Q174 173 176 168Q176 162 173 158L170 152L154 130L133 99L111 67Q99 51 94 42L89 36Q87 32 85 31Q79 26 73 30Q64 35 68 44L71
49L85 69L106 100L129 133L147 159L152 166Q153 167 152 168V170Q150 176 145 196L135 235L125 272L119 295Q117 300 119 305Q124 312 131 311Q138 311 140 303ZM99 173Q101 168 97 164L90 153L73 128L51 96Q49 93 29 65L14 44L11 39Q6 30 -4 35Q-12 39 -9 48Q-9
50 -7 52L-4 57L12 80L35 113L57 145L73 168Q73 169 75 171L76 172Q74 178 74 180L66 210L56 249L47 284Q43 296 42 302Q41 307 44 311T53 316Q61 316 63 309L64 307Q65 301 69 289L77 255Q82 239 87 217Q94 192 95 186L99 173Z" />
<glyph unicode="c;" glyph-name="onequarter" horiz-adv-x="506" d="M529 600Q534 607 541 603Q548 600 548 592Q548 587 545 584L542 581L535 575Q534 573 532 572T528 568T525 565Q523 563 521 561T516 556T512 552L496 536L478 518L457 498L411 452L385
427L359 400L303 346L274 317Q271 314 265 309T255 298T246 289L218 262L190 234L163 208Q159 204 155 200T146 190T137 182L113 158L90 136L50 96L34 80L20 67Q19 65 17 64T13 60T9 56L2 49L-2 45V44Q-7 39 -14 42Q-22 44 -22 52Q-22 55 -18 61Q-17 61 -17 62Q-14
64 -12 67L-3 75L8 87L23 101L40 118L60 137L129 206L156 232L183 259L211 286L239 314L267 342L296 370L324 398L351 425Q365 437 377 451L403 475L426 499L448 520L468 540L486 557L522 593L527 599L529 600ZM273 147Q265 147 263 155Q261 158 263 162T267 168L275
174Q294 190 295 191L323 215L353 240L382 264L404 282L414 291Q418 293 418 293Q423 295 426 292Q428 292 430 290L432 287Q434 282 432 278L431 276L421 253L406 217L392 185L386 171H402Q410 171 411 165Q414 159 410 153L405 149H399Q393 148 382 148H377Q377
147 376 147Q376 145 374 141L361 112L346 76L335 49L333 45Q330 38 324 38Q316 38 313 44Q310 48 312 54L313 55Q314 57 315 60T317 65L331 97L345 131L352 147H273ZM220 560Q222 555 220 550L214 537L204 512L191 480L177 444L162 407Q157 396 149 374L138 348L132
333L131 331Q129 324 122 324Q114 322 111 329Q108 334 111 340Q111 341 111 342T112 345L121 365L133 396L148 432L162 468L175 500Q181 516 185 523L188 532H187L186 531Q180 529 174 535Q170 543 174 548Q176 551 179 553L186 556L202 564Q204 566 207 566H209H211Q214
566 215 565L218 563Q218 562 220 560ZM393 244L372 227L343 202L316 179Q308 173 304 169Q309 169 318 169T332 170H362L370 189L385 225L393 244Z" />
<glyph unicode="d;" glyph-name="onehalf" horiz-adv-x="512" d="M529 600Q534 607 541 603Q548 600 548 592Q548 587 545 584L542 581L535 575Q534 573 532 572T528 568T525 565Q523 563 521 561T516 556T512 552L496 536L478 518L457 498L411 452L385 427L359
400L303 346L274 317Q271 314 265 309T255 298T246 289L218 262L190 234L163 208Q159 204 155 200T146 190T137 182L113 158L90 136L50 96L34 80L20 67Q19 65 17 64T13 60T9 56L2 49L-2 45V44Q-7 39 -14 42Q-22 44 -22 52Q-22 55 -18 61Q-17 61 -17 62Q-14 64 -12
67L-3 75L8 87L23 101L40 118L60 137L129 206L156 232L183 259L211 286L239 314L267 342L296 370L324 398L351 425Q365 437 377 451L403 475L426 499L448 520L468 540L486 557L522 593L527 599L529 600ZM404 293T417 286T438 264Q445 251 446 237T444 206Q438 174
422 148Q410 127 388 105Q370 88 349 75Q351 74 355 74Q385 69 390 69Q399 69 404 71Q405 71 409 73L414 77Q421 81 427 75Q432 68 429 62L423 56Q420 53 417 52Q409 48 404 47Q393 46 373 48Q351 52 339 53Q318 55 309 51L303 47Q302 47 300 46H299Q297 46 297
45Q290 42 285 47Q279 52 282 60Q284 64 286 65L289 67L303 74Q320 82 338 94Q361 110 374 123Q393 142 405 163Q418 188 423 217Q429 253 405 266Q379 282 349 252Q338 239 337 230V226V224Q341 218 336 211Q330 205 324 208Q318 210 316 217Q312 228 317 242Q328
271 359 286Q375 293 389 293Q404 293 417 286ZM229 573Q231 568 229 563L223 550L213 525L200 493L186 457L171 420Q166 409 158 387L147 361L141 346L140 344Q138 337 131 337Q123 335 120 342Q117 347 120 353Q120 354 120 355T121 358L130 378L142 409L157
445L171 481L184 513Q190 529 194 536L197 545Q196 545 196 545T195 544Q189 542 183 548Q179 556 183 561Q185 564 188 566L195 569L211 577Q213 579 216 579H218H220Q223 579 224 578L227 576Q227 575 229 573Z" />
<glyph unicode="e;" glyph-name="threequarters" horiz-adv-x="545" d="M548 600Q553 607 560 603Q567 600 567 592Q567 587 564 584L561 581L554 575L544 565Q542 563 540 561T535 556T531 552Q529 550 526 547T521 541T515 536L497 518L476 498L430 452L404
427L378 400L322 346L293 317Q290 314 284 309T274 298T265 289L237 262L209 234L182 208Q178 204 174 200T165 190T156 182L132 158L109 136L69 96L53 80L39 67L28 56L21 49L17 45V44Q12 39 5 42Q-3 44 -3 52Q-3 55 1 61Q2 61 2 62Q5 64 7 67L16 75L27 87L42 101L59
118L79 137L148 206L175 232L202 259L230 286L258 314L286 342L315 370L343 398L370 425Q384 437 396 451L422 475L445 499L467 520L487 540L505 557L541 593L546 599L548 600ZM304 150Q296 150 294 158Q292 162 294 165Q296 169 298 171L306 177Q325 193 326 194L354
218L384 243L413 267L435 285L445 294Q449 296 449 296Q454 298 457 295Q459 295 461 293L463 290Q464 286 463 281L462 279L452 256L437 220L423 188L417 174H433Q440 174 442 168Q445 162 441 156L436 152H430Q424 151 413 151H408Q408 150 407 150Q407 148 405
144L392 115L377 79L366 52L364 48Q360 41 355 41Q347 41 344 47Q341 51 343 57L344 58Q345 60 346 63T348 68L362 100L376 134L383 150H304ZM208 432Q217 413 210 390Q206 376 196 359Q188 347 178 338Q159 322 132 317Q103 314 82 320Q51 330 43 351Q40 358 42
364Q46 371 53 370Q60 370 63 363Q63 360 65 358Q65 356 68 353Q75 345 92 341Q103 337 119 339Q149 341 167 359Q177 368 184 385Q191 401 190 414Q188 430 175 436Q174 436 174 436L172 437H170Q168 437 167 436Q166 436 163 436T158 435Q147 433 142 434Q125
436 124 449Q121 459 129 462Q132 464 135 462Q139 462 142 459L144 457Q145 456 148 456Q156 456 164 459Q178 462 191 472Q203 482 211 493Q220 505 221 516Q222 523 221 529T214 541Q203 549 188 549Q170 549 155 543L144 537Q140 535 139 533V535Q137 526 132
524Q127 520 120 525Q113 529 118 541Q122 551 137 559Q160 571 187 571Q219 571 234 552Q244 542 244 525Q245 513 238 495Q224 466 196 449Q204 441 208 432ZM424 247L403 230L374 205L347 182Q339 176 335 172Q340 172 349 172T363 173H393L401 192L416 228L424
247ZM145 448Q146 450 146 453Q146 454 145 454Q145 456 143 456Q145 454 145 448Z" />
<glyph unicode="f;" glyph-name="questiondown" horiz-adv-x="425" d="M348 432Q348 451 367 451Q375 451 380 446T385 432T380 419T367 414Q359 414 354 419T348 432ZM49 -44Q37 17 85 89Q110 126 143 156Q157 169 184 190T219 218Q261 255 281 285Q288 296
297 287Q305 281 299 271Q287 253 271 237Q250 214 199 173T125 105Q71 42 70 -19Q68 -55 92 -76Q123 -102 172 -93Q211 -85 243 -54T294 19Q299 34 302 45Q302 55 311 58Q322 60 324 49Q325 43 320 24Q313 5 306 -7Q285 -47 251 -77T175 -115Q126 -124 91 -103Q57
-83 49 -44Z" />
<glyph unicode="0;" glyph-name="Agrave" horiz-adv-x="486" d="M539 177Q543 182 549 181T558 174T550 155L521 121Q484 79 449 52Q417 28 390 24Q372 22 357 30T337 55Q329 79 341 122Q349 153 373 215Q330 157 291 119Q214 44 148 33Q106 26 76 46Q47 65
35 102Q17 155 33 229Q51 311 108 393Q214 549 366 595Q414 609 454 610Q505 610 530 599Q552 588 553 580Q553 571 547 568L511 482Q463 370 440 314Q406 237 399 219Q376 164 366 130Q353 87 357 67Q359 56 365 51Q376 43 393 47Q413 51 445 77Q483 110 539 177ZM121
54Q146 53 171 62Q222 81 286 145Q342 204 385 271Q419 321 429 347L463 426L526 576L521 578Q516 580 510 581T503 583Q484 587 459 587Q441 587 423 584Q368 577 315 550Q242 515 182 450Q111 374 74 283Q43 208 49 142Q53 107 71 82T121 54ZM488 713L507 698L537
674Q539 673 542 670T547 667L549 665Q553 662 553 656Q553 648 546 646T535 648L529 652Q511 666 502 674Q497 678 488 685T477 693L474 695Q472 698 470 702Q468 709 475 714Q481 717 488 713Z" />
<glyph unicode="1;" glyph-name="Aacute" horiz-adv-x="486" d="M539 177Q543 182 549 181T558 174T550 155L521 121Q484 79 449 52Q417 28 390 24Q372 22 357 30T337 55Q329 79 341 122Q349 153 373 215Q330 157 291 119Q214 44 148 33Q106 26 76 46Q47 65
35 102Q17 155 33 229Q51 311 108 393Q214 549 366 595Q414 609 454 610Q505 610 530 599Q552 588 553 580Q553 571 547 568L511 482Q463 370 440 314Q406 237 399 219Q376 164 366 130Q353 87 357 67Q359 56 365 51Q376 43 393 47Q413 51 445 77Q483 110 539 177ZM121
54Q146 53 171 62Q222 81 286 145Q342 204 385 271Q419 321 429 347L463 426L526 576L521 578Q516 580 510 581T503 583Q484 587 459 587Q441 587 423 584Q368 577 315 550Q242 515 182 450Q111 374 74 283Q43 208 49 142Q53 107 71 82T121 54ZM539 686L558 701Q564
706 571 702Q578 697 576 690Q574 686 572 683L569 681Q568 680 559 673T544 662Q535 654 517 640L511 636Q507 632 500 634T493 644Q493 650 497 653L499 655Q500 655 503 658T509 662L539 686Z" />
<glyph unicode="2;" glyph-name="Acircumflex" horiz-adv-x="486" d="M539 177Q543 182 549 181T558 174T550 155L521 121Q484 79 449 52Q417 28 390 24Q372 22 357 30T337 55Q329 79 341 122Q349 153 373 215Q330 157 291 119Q214 44 148 33Q106 26 76 46Q47
65 35 102Q17 155 33 229Q51 311 108 393Q214 549 366 595Q414 609 454 610Q505 610 530 599Q552 588 553 580Q553 571 547 568L511 482Q463 370 440 314Q406 237 399 219Q376 164 366 130Q353 87 357 67Q359 56 365 51Q376 43 393 47Q413 51 445 77Q483 110 539
177ZM121 54Q146 53 171 62Q222 81 286 145Q342 204 385 271Q419 321 429 347L463 426L526 576L521 578Q516 580 510 581T503 583Q484 587 459 587Q441 587 423 584Q368 577 315 550Q242 515 182 450Q111 374 74 283Q43 208 49 142Q53 107 71 82T121 54ZM551 717Q552
716 552 715Q555 711 560 701T570 686L584 663Q586 658 585 655Q583 646 575 646Q568 646 565 651Q563 655 563 655Q556 667 540 691L538 695Q537 696 537 697H535Q533 696 531 694T527 692Q514 687 505 682Q492 677 489 675L485 673Q476 673 473 680Q469 688 476
693Q476 694 477 694L479 695L489 700Q501 705 523 716L534 721L538 723Q546 725 551 717Z" />
<glyph unicode="3;" glyph-name="Atilde" horiz-adv-x="486" d="M539 177Q543 182 549 181T558 174T550 155L521 121Q484 79 449 52Q417 28 390 24Q372 22 357 30T337 55Q329 79 341 122Q349 153 373 215Q330 157 291 119Q214 44 148 33Q106 26 76 46Q47 65
35 102Q17 155 33 229Q51 311 108 393Q214 549 366 595Q414 609 454 610Q505 610 530 599Q552 588 553 580Q553 571 547 568L511 482Q463 370 440 314Q406 237 399 219Q376 164 366 130Q353 87 357 67Q359 56 365 51Q376 43 393 47Q413 51 445 77Q483 110 539 177ZM121
54Q146 53 171 62Q222 81 286 145Q342 204 385 271Q419 321 429 347L463 426L526 576L521 578Q516 580 510 581T503 583Q484 587 459 587Q441 587 423 584Q368 577 315 550Q242 515 182 450Q111 374 74 283Q43 208 49 142Q53 107 71 82T121 54ZM601 678Q605 676
607 668L604 661Q595 649 594 648Q589 640 577 631Q561 622 550 626Q535 630 528 646Q526 650 518 677Q517 679 516 683T513 689Q509 695 507 695H502L499 693L491 684Q484 673 482 667Q480 662 479 662Q476 659 472 659Q465 659 462 665Q460 668 462 676Q466 686
470 691Q474 702 482 709Q492 717 500 718Q512 721 525 710Q534 701 537 689Q539 683 542 673T546 661Q548 654 553 649Q557 645 564 650Q570 653 582 668Q584 671 585 672L588 678Q596 682 601 678Z" />
<glyph unicode="4;" glyph-name="Adieresis" horiz-adv-x="486" d="M539 177Q543 182 549 181T558 174T550 155L521 121Q484 79 449 52Q417 28 390 24Q372 22 357 30T337 55Q329 79 341 122Q349 153 373 215Q330 157 291 119Q214 44 148 33Q106 26 76 46Q47
65 35 102Q17 155 33 229Q51 311 108 393Q214 549 366 595Q414 609 454 610Q505 610 530 599Q552 588 553 580Q553 571 547 568L511 482Q463 370 440 314Q406 237 399 219Q376 164 366 130Q353 87 357 67Q359 56 365 51Q376 43 393 47Q413 51 445 77Q483 110 539
177ZM121 54Q146 53 171 62Q222 81 286 145Q342 204 385 271Q419 321 429 347L463 426L526 576L521 578Q516 580 510 581T503 583Q484 587 459 587Q441 587 423 584Q368 577 315 550Q242 515 182 450Q111 374 74 283Q43 208 49 142Q53 107 71 82T121 54ZM532 690Q551
682 545 661Q538 648 524 646Q508 646 503 660Q497 673 507 685Q519 695 532 690ZM587 666Q606 658 600 637Q593 624 579 622Q563 622 558 636Q552 649 562 661Q574 671 587 666Z" />
<glyph unicode="5;" glyph-name="Aring" horiz-adv-x="486" d="M539 177Q543 182 549 181T558 174T550 155L521 121Q484 79 449 52Q417 28 390 24Q372 22 357 30T337 55Q329 79 341 122Q349 153 373 215Q330 157 291 119Q214 44 148 33Q106 26 76 46Q47 65
35 102Q17 155 33 229Q51 311 108 393Q214 549 366 595Q414 609 454 610Q505 610 530 599Q552 588 553 580Q553 571 547 568L511 482Q463 370 440 314Q406 237 399 219Q376 164 366 130Q353 87 357 67Q359 56 365 51Q376 43 393 47Q413 51 445 77Q483 110 539 177ZM121
54Q146 53 171 62Q222 81 286 145Q342 204 385 271Q419 321 429 347L463 426L526 576L521 578Q516 580 510 581T503 583Q484 587 459 587Q441 587 423 584Q368 577 315 550Q242 515 182 450Q111 374 74 283Q43 208 49 142Q53 107 71 82T121 54ZM534 702Q557 702
571 685Q591 663 580 635Q570 607 540 604T494 625Q476 649 491 676Q504 702 534 702ZM534 626Q540 626 543 627Q557 632 560 646Q564 659 554 671Q544 682 530 679Q515 677 510 664Q504 651 512 638Q521 626 534 626Z" />
<glyph unicode="6;" glyph-name="AE" horiz-adv-x="880" d="M932 177Q937 184 945 181T952 169Q951 165 944 155L933 142Q910 115 885 94Q831 48 772 22Q694 -12 625 -5Q581 0 552 22Q522 45 510 88Q508 93 506 105Q472 70 449 52Q417 28 390 24Q372 22 357
30T337 55Q329 79 341 122Q349 153 373 215Q330 157 291 119Q214 44 148 33Q106 26 76 46Q47 65 35 102Q17 155 33 229Q51 311 108 393Q214 549 366 595Q414 609 454 610Q505 610 530 599Q552 588 553 580Q553 571 547 568L511 482Q463 370 440 314Q406 237 399
219Q376 164 366 130Q353 87 357 67Q359 56 365 51Q376 43 393 47Q413 51 445 77Q474 102 506 139Q513 200 564 251Q620 310 713 335Q679 387 681 450Q683 548 753 590Q789 610 835 607Q882 603 908 581Q924 567 928 550Q932 538 926 533Q917 526 910 534Q908 536
907 542T904 550Q901 558 893 564Q878 576 857 581Q814 592 777 576Q739 562 719 519Q700 480 703 433T730 349Q735 341 738 341Q746 343 750 343Q754 344 762 345T772 346Q797 346 809 343Q844 336 847 312Q850 292 830 286T788 282Q762 287 747 300Q738 305 729
316L707 310Q618 283 566 221Q548 198 540 178Q544 182 550 181T558 174Q560 168 550 155L528 130Q526 84 552 54Q589 8 671 18Q739 27 805 65Q882 109 932 177ZM121 54Q146 53 171 62Q222 81 286 145Q342 204 385 271Q419 321 429 347L463 426L526 576L521 578Q516
580 510 581T503 583Q484 587 459 587Q441 587 423 584Q368 577 315 550Q242 515 182 450Q111 374 74 283Q43 208 49 142Q53 107 71 82T121 54ZM824 311Q820 319 805 321Q784 326 755 321Q776 304 803 303Q824 305 824 311Z" />
<glyph unicode="7;" glyph-name="Ccedilla" horiz-adv-x="359" d="M162 -39Q182 -37 193 -39Q207 -42 213 -53Q218 -61 218 -70Q218 -81 211 -93Q204 -106 193 -117Q170 -140 147 -152Q125 -167 98 -173Q84 -175 77 -173Q71 -173 67 -169Q62 -163 66 -156Q69
-150 77 -150Q78 -151 81 -151Q82 -152 84 -152Q87 -152 102 -149Q123 -141 149 -125L171 -107Q183 -96 191 -84Q195 -76 195 -71Q195 -65 193 -63Q189 -61 185 -61Q179 -60 173 -61Q156 -63 142 -67Q132 -71 128 -70Q120 -67 120 -58Q120 -54 124 -50Q127 -47
131 -41L154 -13Q160 -3 175 13Q91 15 54 68Q20 118 27 203Q34 272 64 341Q94 412 141 474Q192 538 248 574Q280 594 309 602Q351 616 382 606Q427 591 431 534Q437 462 385 406Q382 402 375 396T358 383T341 376T329 383Q327 389 330 393T341 400T351 405Q366
417 375 428Q397 454 405 492Q414 529 404 556Q382 612 290 571Q233 546 179 485Q128 426 95 356Q61 286 51 217Q42 141 64 95Q79 64 110 49Q142 33 191 35Q262 39 328 93Q362 121 412 178Q420 186 428 178T429 162Q428 161 426 158T421 153T416 149Q365 91 322
61Q264 20 204 14L203 13L199 7L162 -39Z" />
<glyph unicode="8;" glyph-name="Egrave" horiz-adv-x="394" d="M446 177Q451 184 459 181T466 169Q465 165 458 155L447 142Q424 115 399 94Q345 48 286 22Q208 -12 139 -5Q95 0 66 22Q36 45 24 88Q13 131 29 174T78 251Q134 310 227 335Q193 387 195 450Q197
548 267 590Q303 610 349 607Q396 603 422 581Q438 567 442 550Q446 538 440 533Q431 526 424 534Q422 536 421 542T418 550Q415 558 407 564Q392 576 371 581Q328 592 291 576Q253 562 233 519Q214 480 217 433T244 349Q249 341 252 341Q260 343 264 343Q268 344
276 345T286 346Q311 346 323 343Q358 336 361 312Q364 292 344 286T302 282Q276 287 261 300Q252 305 243 316L221 310Q132 283 80 221Q49 182 44 143Q36 91 66 54Q103 8 185 18Q253 27 319 65Q396 109 446 177ZM338 311Q334 319 319 321Q298 326 269 321Q290
304 317 303Q338 305 338 311ZM397 692L416 677L446 653Q448 652 451 649T456 646L458 644Q462 641 462 635Q462 627 455 625T444 627L438 631Q420 645 411 653Q406 657 397 664T386 672L383 674Q380 677 379 681Q377 688 384 693Q390 696 397 692Z" />
<glyph unicode="9;" glyph-name="Eacute" horiz-adv-x="394" d="M446 177Q451 184 459 181T466 169Q465 165 458 155L447 142Q424 115 399 94Q345 48 286 22Q208 -12 139 -5Q95 0 66 22Q36 45 24 88Q13 131 29 174T78 251Q134 310 227 335Q193 387 195 450Q197
548 267 590Q303 610 349 607Q396 603 422 581Q438 567 442 550Q446 538 440 533Q431 526 424 534Q422 536 421 542T418 550Q415 558 407 564Q392 576 371 581Q328 592 291 576Q253 562 233 519Q214 480 217 433T244 349Q249 341 252 341Q260 343 264 343Q268 344
276 345T286 346Q311 346 323 343Q358 336 361 312Q364 292 344 286T302 282Q276 287 261 300Q252 305 243 316L221 310Q132 283 80 221Q49 182 44 143Q36 91 66 54Q103 8 185 18Q253 27 319 65Q396 109 446 177ZM338 311Q334 319 319 321Q298 326 269 321Q290
304 317 303Q338 305 338 311ZM426 673L445 688Q451 692 458 689Q465 684 463 677Q462 672 459 670L456 668Q455 667 446 660T431 649Q422 641 404 627L398 623Q394 619 387 621T380 631Q380 637 384 640L386 642Q387 642 390 645T396 649L426 673Z" />
<glyph unicode="a;" glyph-name="Ecircumflex" horiz-adv-x="394" d="M446 177Q451 184 459 181T466 169Q465 165 458 155L447 142Q424 115 399 94Q345 48 286 22Q208 -12 139 -5Q95 0 66 22Q36 45 24 88Q13 131 29 174T78 251Q134 310 227 335Q193 387 195
450Q197 548 267 590Q303 610 349 607Q396 603 422 581Q438 567 442 550Q446 538 440 533Q431 526 424 534Q422 536 421 542T418 550Q415 558 407 564Q392 576 371 581Q328 592 291 576Q253 562 233 519Q214 480 217 433T244 349Q249 341 252 341Q260 343 264 343Q268
344 276 345T286 346Q311 346 323 343Q358 336 361 312Q364 292 344 286T302 282Q276 287 261 300Q252 305 243 316L221 310Q132 283 80 221Q49 182 44 143Q36 91 66 54Q103 8 185 18Q253 27 319 65Q396 109 446 177ZM338 311Q334 319 319 321Q298 326 269 321Q290
304 317 303Q338 305 338 311ZM439 683Q440 682 440 681Q443 677 448 667T458 652L472 629Q474 624 473 621Q471 612 463 612Q456 612 453 617Q451 621 451 621Q444 633 428 657L426 661Q425 662 425 663H423Q421 662 419 660T415 658Q402 653 393 648Q380 643
377 641L373 639Q364 639 361 646Q357 654 364 659Q364 660 365 660L367 661L377 666Q389 671 411 682L422 687L426 689Q434 691 439 683Z" />
<glyph unicode="b;" glyph-name="Edieresis" horiz-adv-x="394" d="M446 177Q451 184 459 181T466 169Q465 165 458 155L447 142Q424 115 399 94Q345 48 286 22Q208 -12 139 -5Q95 0 66 22Q36 45 24 88Q13 131 29 174T78 251Q134 310 227 335Q193 387 195
450Q197 548 267 590Q303 610 349 607Q396 603 422 581Q438 567 442 550Q446 538 440 533Q431 526 424 534Q422 536 421 542T418 550Q415 558 407 564Q392 576 371 581Q328 592 291 576Q253 562 233 519Q214 480 217 433T244 349Q249 341 252 341Q260 343 264 343Q268
344 276 345T286 346Q311 346 323 343Q358 336 361 312Q364 292 344 286T302 282Q276 287 261 300Q252 305 243 316L221 310Q132 283 80 221Q49 182 44 143Q36 91 66 54Q103 8 185 18Q253 27 319 65Q396 109 446 177ZM338 311Q334 319 319 321Q298 326 269 321Q290
304 317 303Q338 305 338 311ZM398 680Q417 672 411 651Q404 638 390 636Q374 636 369 650Q363 663 373 675Q385 685 398 680ZM453 656Q472 648 466 627Q459 614 445 612Q429 612 424 626Q418 639 428 651Q440 661 453 656Z" />
<glyph unicode="c;" glyph-name="Igrave" horiz-adv-x="325" d="M435 568Q445 530 426 457Q408 391 370 314Q331 234 283 169Q259 138 231 108Q227 104 228 102Q228 101 228 100T229 97Q231 89 231 86Q235 74 238 68Q246 52 257 48L264 46Q270 45 272 42Q279
33 270 26Q263 20 245 28Q218 42 208 85Q129 13 58 17Q19 19 -11 45T-40 109Q-40 131 -29 150Q-21 160 -12 155Q-3 148 -9 139Q-20 121 -17 100T1 64Q20 45 48 42T101 45T150 68Q169 80 190 98L201 108Q204 111 204 113V115Q203 117 203 118Q202 125 202 140Q201
170 204 208Q211 277 232 355Q252 433 282 494Q314 560 348 586Q365 600 385 603Q403 606 416 596T435 568ZM225 133Q287 200 339 301Q379 380 399 447Q409 481 413 508Q420 552 410 571Q401 590 372 576Q355 566 340 546Q310 507 281 433Q254 363 238 282Q221
199 225 133ZM385 688L404 673L434 649Q436 648 439 645T444 642L446 640Q450 637 450 631Q450 623 443 621T432 623L426 627Q408 641 399 649Q394 653 385 660T374 668L371 670Q368 672 367 677Q365 684 372 689Q378 692 385 688Z" />
<glyph unicode="d;" glyph-name="Iacute" horiz-adv-x="325" d="M435 568Q445 530 426 457Q408 391 370 314Q331 234 283 169Q259 138 231 108Q227 104 228 102Q228 101 228 100T229 97Q231 89 231 86Q235 74 238 68Q246 52 257 48L264 46Q270 45 272 42Q279
33 270 26Q263 20 245 28Q218 42 208 85Q129 13 58 17Q19 19 -11 45T-40 109Q-40 131 -29 150Q-21 160 -12 155Q-3 148 -9 139Q-20 121 -17 100T1 64Q20 45 48 42T101 45T150 68Q169 80 190 98L201 108Q204 111 204 113V115Q203 117 203 118Q202 125 202 140Q201
170 204 208Q211 277 232 355Q252 433 282 494Q314 560 348 586Q365 600 385 603Q403 606 416 596T435 568ZM225 133Q287 200 339 301Q379 380 399 447Q409 481 413 508Q420 552 410 571Q401 590 372 576Q355 566 340 546Q310 507 281 433Q254 363 238 282Q221
199 225 133ZM425 678L444 693Q450 697 457 694Q464 689 462 682Q460 678 458 675L455 673Q439 661 430 654Q424 650 415 642T403 632L397 628Q393 624 386 626T379 636Q379 642 383 645L385 647Q386 647 389 650T395 654L425 678Z" />
<glyph unicode="e;" glyph-name="Icircumflex" horiz-adv-x="325" d="M435 568Q445 530 426 457Q408 391 370 314Q331 234 283 169Q259 138 231 108Q227 104 228 102Q228 101 228 100T229 97Q231 89 231 86Q235 74 238 68Q246 52 257 48L264 46Q270 45 272
42Q279 33 270 26Q263 20 245 28Q218 42 208 85Q129 13 58 17Q19 19 -11 45T-40 109Q-40 131 -29 150Q-21 160 -12 155Q-3 148 -9 139Q-20 121 -17 100T1 64Q20 45 48 42T101 45T150 68Q169 80 190 98L201 108Q204 111 204 113V115Q203 117 203 118Q202 125 202
140Q201 170 204 208Q211 277 232 355Q252 433 282 494Q314 560 348 586Q365 600 385 603Q403 606 416 596T435 568ZM225 133Q287 200 339 301Q379 380 399 447Q409 481 413 508Q420 552 410 571Q401 590 372 576Q355 566 340 546Q310 507 281 433Q254 363 238
282Q221 199 225 133ZM443 685Q444 684 444 683Q447 679 452 669T462 654L476 631Q478 626 477 623Q475 614 467 614Q460 614 457 619Q455 623 455 623Q448 635 432 659L430 663Q429 664 429 665H427Q425 664 423 662T419 660Q406 655 397 650Q384 645 381 643L377
641Q368 641 365 648Q361 656 368 661Q368 662 369 662L371 663L381 668Q393 673 415 684L426 689L430 691Q438 693 443 685Z" />
<glyph unicode="f;" glyph-name="Idieresis" horiz-adv-x="325" d="M435 568Q445 530 426 457Q408 391 370 314Q331 234 283 169Q259 138 231 108Q227 104 228 102Q228 101 228 100T229 97Q231 89 231 86Q235 74 238 68Q246 52 257 48L264 46Q270 45 272 42Q279
33 270 26Q263 20 245 28Q218 42 208 85Q129 13 58 17Q19 19 -11 45T-40 109Q-40 131 -29 150Q-21 160 -12 155Q-3 148 -9 139Q-20 121 -17 100T1 64Q20 45 48 42T101 45T150 68Q169 80 190 98L201 108Q204 111 204 113V115Q203 117 203 118Q202 125 202 140Q201
170 204 208Q211 277 232 355Q252 433 282 494Q314 560 348 586Q365 600 385 603Q403 606 416 596T435 568ZM225 133Q287 200 339 301Q379 380 399 447Q409 481 413 508Q420 552 410 571Q401 590 372 576Q355 566 340 546Q310 507 281 433Q254 363 238 282Q221
199 225 133ZM419 688Q438 680 432 659Q425 646 411 644Q395 644 390 658Q384 671 394 683Q406 693 419 688ZM474 664Q493 656 487 635Q480 622 466 620Q450 620 445 634Q439 647 449 659Q461 669 474 664Z" />
<glyph unicode="&#xd0;" glyph-name="Eth" horiz-adv-x="560" d="M406 313Q411 313 415 310Q420 305 417 297Q414 291 406 291H260Q256 281 247 255T231 214Q187 105 168 73Q255 45 319 51Q384 55 443 98Q509 147 548 233Q594 334 576 423Q560 504 494 549Q439
586 350 584Q251 582 199 540Q178 522 168 501Q161 480 165 470Q165 469 168 465T171 458Q169 447 159 447Q150 448 146 457T141 476Q140 493 148 510Q158 532 179 552Q229 598 321 605Q380 610 431 600Q504 582 548 531Q603 466 603 373T550 187Q505 110 436 66Q366
21 273 28Q233 31 186 44L167 50L158 53Q156 54 154 52L150 48Q137 33 111 24Q69 9 41 27Q28 36 26 51T33 80Q45 97 64 100Q77 102 101 96L125 89L137 84Q146 80 147 82Q150 87 153 92T159 104T165 115Q194 175 236 291H162Q152 291 151 292Q144 296 144 302Q144
310 151 313H244Q289 428 321 488Q340 526 361 551Q378 571 387 566Q391 564 392 559T391 549L381 540Q362 519 343 482Q321 441 305 402L268 313H406ZM122 52Q130 58 133 62Q89 77 77 78Q68 80 59 75Q46 66 47 56Q48 43 71 40Q94 39 122 52Z" />
<glyph unicode="&#xd1;" glyph-name="Ntilde" horiz-adv-x="428" d="M483 179Q490 187 498 180T500 164L487 150L438 96Q400 60 378 47Q341 25 316 33Q289 41 286 66Q284 84 291 112Q299 142 314 179Q322 201 352 269Q415 416 431 466Q447 519 445 549Q441 585
414 586Q383 587 344 562Q317 545 290 514Q245 467 208 400Q190 372 184 356L143 259Q112 185 105 167L64 69L50 35L47 29Q43 21 34 23T26 35Q26 38 27 41T30 48T33 54L51 96L90 190Q99 213 144 320T213 486Q234 541 235 543Q241 565 227 575Q215 582 191 582Q139
578 106 550Q98 542 95 537Q90 524 89 523Q80 514 72 524Q68 529 72 540Q85 572 129 589Q173 610 213 603Q252 597 258 566Q262 549 253 526L237 486Q277 542 322 574Q343 589 367 599T420 608T460 581Q472 557 466 517Q461 482 439 421Q432 402 359 229Q347 202
325 146Q310 100 308 81Q306 71 310 63Q317 50 337 54Q360 57 393 86Q418 107 483 179ZM503 675Q507 673 509 665L506 658Q497 646 496 645Q491 637 479 628Q463 619 452 623Q437 627 430 643Q428 646 420 674Q419 676 418 680T415 686Q411 692 409 692H404L401
690L393 681Q386 670 384 664Q382 659 381 659Q378 656 374 656Q367 656 364 662Q362 665 364 673Q368 683 372 688Q376 698 384 706Q394 714 402 715Q414 718 427 707Q436 698 439 686Q441 680 444 670T448 658Q450 651 455 646Q459 642 466 647Q472 650 484 665Q486
668 487 669L490 675Q498 679 503 675Z" />
<glyph unicode="&#xd2;" glyph-name="Ograve" horiz-adv-x="378" d="M528 545Q538 546 540 535T540 516Q536 501 526 483Q504 450 469 424Q457 416 450 413L441 409Q438 407 437 403L428 367Q410 293 373 217Q332 138 283 88Q220 25 154 18Q108 15 78 40Q56 59
40 93Q16 156 31 252Q47 346 97 442Q136 516 186 561Q259 629 332 622Q349 622 354 615Q360 603 349 598Q346 597 339 599Q337 599 335 599T331 600Q305 603 273 590Q171 551 103 403Q58 304 50 223Q41 152 61 102Q69 82 83 66Q109 37 150 40Q215 45 276 114Q324
165 362 249Q396 322 413 401Q364 395 332 436Q305 472 319 525Q332 573 365 591Q394 606 417 588Q436 574 444 535Q451 496 442 435Q479 454 503 491Q512 503 517 519Q518 522 518 526T519 534T521 541T528 545ZM418 426Q427 478 424 517Q419 566 398 574Q381
581 366 565T344 529Q327 483 349 452Q374 415 418 426ZM402 707L421 692L451 668Q453 667 456 664T461 661L463 659Q467 656 467 650Q467 642 460 640T449 642L443 646Q425 660 416 668Q411 672 402 679T391 687L388 689Q386 692 384 696Q382 703 389 708Q395
711 402 707Z" />
<glyph unicode="&#xd3;" glyph-name="Oacute" horiz-adv-x="378" d="M528 545Q538 546 540 535T540 516Q536 501 526 483Q504 450 469 424Q457 416 450 413L441 409Q438 407 437 403L428 367Q410 293 373 217Q332 138 283 88Q220 25 154 18Q108 15 78 40Q56 59
40 93Q16 156 31 252Q47 346 97 442Q136 516 186 561Q259 629 332 622Q349 622 354 615Q360 603 349 598Q346 597 339 599Q337 599 335 599T331 600Q305 603 273 590Q171 551 103 403Q58 304 50 223Q41 152 61 102Q69 82 83 66Q109 37 150 40Q215 45 276 114Q324
165 362 249Q396 322 413 401Q364 395 332 436Q305 472 319 525Q332 573 365 591Q394 606 417 588Q436 574 444 535Q451 496 442 435Q479 454 503 491Q512 503 517 519Q518 522 518 526T519 534T521 541T528 545ZM418 426Q427 478 424 517Q419 566 398 574Q381
581 366 565T344 529Q327 483 349 452Q374 415 418 426ZM418 698L437 713Q443 718 450 714Q457 709 455 702Q454 698 451 695L448 693Q432 681 423 674Q417 670 408 662T396 652L390 648Q386 644 379 646T372 656Q372 662 376 665L378 667Q387 673 388 674L418
698Z" />
<glyph unicode="&#xd4;" glyph-name="Ocircumflex" horiz-adv-x="378" d="M528 545Q538 546 540 535T540 516Q536 501 526 483Q504 450 469 424Q457 416 450 413L441 409Q438 407 437 403L428 367Q410 293 373 217Q332 138 283 88Q220 25 154 18Q108 15 78 40Q56
59 40 93Q16 156 31 252Q47 346 97 442Q136 516 186 561Q259 629 332 622Q349 622 354 615Q360 603 349 598Q346 597 339 599Q337 599 335 599T331 600Q305 603 273 590Q171 551 103 403Q58 304 50 223Q41 152 61 102Q69 82 83 66Q109 37 150 40Q215 45 276 114Q324
165 362 249Q396 322 413 401Q364 395 332 436Q305 472 319 525Q332 573 365 591Q394 606 417 588Q436 574 444 535Q451 496 442 435Q479 454 503 491Q512 503 517 519Q518 522 518 526T519 534T521 541T528 545ZM418 426Q427 478 424 517Q419 566 398 574Q381
581 366 565T344 529Q327 483 349 452Q374 415 418 426ZM438 695Q439 694 439 693Q442 689 447 679T457 664L471 641Q474 636 472 633Q470 624 462 624Q455 624 452 629Q450 633 450 633Q443 645 427 669L425 673Q424 674 424 675H422Q420 674 418 672T414 670Q401
665 392 660Q379 655 376 653L372 651Q363 651 360 658Q356 666 363 671Q363 672 364 672L366 673L376 678Q388 683 410 694L421 699L425 701Q433 703 438 695Z" />
<glyph unicode="&#xd5;" glyph-name="Otilde" horiz-adv-x="378" d="M528 545Q538 546 540 535T540 516Q536 501 526 483Q504 450 469 424Q457 416 450 413L441 409Q438 407 437 403L428 367Q410 293 373 217Q332 138 283 88Q220 25 154 18Q108 15 78 40Q56 59
40 93Q16 156 31 252Q47 346 97 442Q136 516 186 561Q259 629 332 622Q349 622 354 615Q360 603 349 598Q346 597 339 599Q337 599 335 599T331 600Q305 603 273 590Q171 551 103 403Q58 304 50 223Q41 152 61 102Q69 82 83 66Q109 37 150 40Q215 45 276 114Q324
165 362 249Q396 322 413 401Q364 395 332 436Q305 472 319 525Q332 573 365 591Q394 606 417 588Q436 574 444 535Q451 496 442 435Q479 454 503 491Q512 503 517 519Q518 522 518 526T519 534T521 541T528 545ZM418 426Q427 478 424 517Q419 566 398 574Q381
581 366 565T344 529Q327 483 349 452Q374 415 418 426ZM499 674Q503 672 505 664L502 657Q493 645 492 644Q487 636 475 627Q459 618 448 622Q433 626 426 642Q424 646 416 673Q415 675 414 679T411 685Q407 691 405 691H400L397 689L389 680Q382 669 380 663Q378
658 377 658Q374 655 370 655Q363 655 360 661Q358 664 360 672Q364 682 368 687Q372 698 380 705Q390 713 398 714Q410 717 423 706Q432 697 435 685Q437 679 440 669T444 657Q446 650 451 645Q455 641 462 646Q468 649 480 664Q482 667 483 668L486 674Q494 678
499 674Z" />
<glyph unicode="&#xd6;" glyph-name="Odieresis" horiz-adv-x="378" d="M528 545Q538 546 540 535T540 516Q536 501 526 483Q504 450 469 424Q457 416 450 413L441 409Q438 407 437 403L428 367Q410 293 373 217Q332 138 283 88Q220 25 154 18Q108 15 78 40Q56
59 40 93Q16 156 31 252Q47 346 97 442Q136 516 186 561Q259 629 332 622Q349 622 354 615Q360 603 349 598Q346 597 339 599Q337 599 335 599T331 600Q305 603 273 590Q171 551 103 403Q58 304 50 223Q41 152 61 102Q69 82 83 66Q109 37 150 40Q215 45 276 114Q324
165 362 249Q396 322 413 401Q364 395 332 436Q305 472 319 525Q332 573 365 591Q394 606 417 588Q436 574 444 535Q451 496 442 435Q479 454 503 491Q512 503 517 519Q518 522 518 526T519 534T521 541T528 545ZM418 426Q427 478 424 517Q419 566 398 574Q381
581 366 565T344 529Q327 483 349 452Q374 415 418 426ZM408 698Q427 690 421 669Q414 656 400 654Q384 654 379 668Q373 681 383 693Q395 703 408 698ZM463 674Q482 666 476 645Q469 632 455 630Q439 630 434 644Q428 657 438 669Q450 679 463 674Z" />
<glyph unicode="&#xd7;" glyph-name="multiply" horiz-adv-x="384" d="M61 222Q57 220 52 221T45 226Q38 235 48 241L59 249L85 266Q110 283 118 289L147 308L165 320Q167 320 167 321Q165 325 165 326Q164 329 163 334T161 344T159 353Q155 377 151 390L144 427L139
452Q139 454 138 456Q137 460 142 467Q150 471 155 467Q158 465 160 460V459Q162 451 162 450L168 419Q169 416 177 381L183 348L187 335L205 347Q215 353 235 367L267 388L290 403L294 406Q299 410 304 407T312 399Q312 391 307 387L306 386Q302 384 300 382Q284
372 276 366L244 345L213 325Q211 323 194 312L192 310V306Q196 290 197 282Q198 278 199 271T202 257T206 246L213 208Q215 202 216 193T220 177L223 164Q223 156 221 154Q217 150 208 150Q202 156 201 158V160L196 180L189 213Q188 218 186 231T181 252Q177 274
174 284Q174 286 173 290T172 297L159 288L132 270Q110 256 100 248L72 230L61 222Z" />
<glyph unicode="&#xd8;" glyph-name="Oslash" horiz-adv-x="378" d="M528 545Q538 546 540 535T540 516Q536 501 526 483Q504 450 469 424Q457 416 450 413L441 409Q438 407 437 403L428 367Q410 293 373 217Q332 138 283 88Q220 25 154 18Q108 15 78 40Q56 59
40 93Q16 156 31 252Q47 346 97 442Q136 516 186 561Q259 629 332 622Q349 622 354 615Q360 603 349 598Q346 597 339 599Q337 599 335 599T331 600Q305 603 273 590Q171 551 103 403Q58 304 50 223Q41 152 61 102Q69 82 83 66Q109 37 150 40Q215 45 276 114Q324
165 362 249Q396 322 413 401Q364 395 332 436Q305 472 319 525Q332 573 365 591Q394 606 417 588Q436 574 444 535Q451 496 442 435Q479 454 503 491Q512 503 517 519Q518 522 518 526T519 534T521 541T528 545ZM418 426Q427 478 424 517Q419 566 398 574Q381
581 366 565T344 529Q327 483 349 452Q374 415 418 426ZM350 385Q356 388 360 388Q366 386 369 379Q370 372 363 367L362 366L350 357Q338 349 328 341L300 322Q289 313 220 263Q204 253 188 240Q168 226 158 218L133 201L117 189Q116 188 114 187Q110 183 108
183Q99 183 96 187Q91 193 95 200L100 204L112 212Q121 220 133 227L160 247L191 270Q262 322 272 328Q282 336 302 350L327 368L345 381L350 385Z" />
<glyph unicode="&#xd9;" glyph-name="Ugrave" horiz-adv-x="510" d="M564 178Q568 182 574 181T582 175Q585 168 579 161L561 141Q559 138 549 127T535 112T522 98T508 83T494 70T479 57T463 47T446 36Q408 15 372 19Q349 23 336 34Q325 45 322 60Q318 81 325
111Q330 134 346 180Q355 203 426 364Q361 256 347 236Q310 183 277 144Q221 81 175 50Q115 11 74 25Q27 42 53 144Q67 200 119 326Q192 500 197 514Q199 521 202 532T207 548Q212 568 200 574Q187 581 170 581Q152 581 129 576Q107 571 87 562Q63 551 53 537Q48
532 48 525Q48 514 37 514Q30 514 28 519T26 529T29 540Q41 569 93 589Q137 606 175 603Q219 601 229 574Q235 559 227 536Q225 528 216 501Q210 483 142 324Q96 214 79 156Q69 120 66 91Q63 53 82 46Q101 40 128 51Q145 57 182 83Q237 127 291 198Q324 240 380
332Q433 418 469 483L502 546L513 571Q517 581 523 582Q534 584 536 573Q536 570 530 554Q519 528 516 523Q500 486 497 478Q491 464 455 381T378 199Q355 138 350 121Q340 88 344 66Q347 49 361 45Q379 39 399 42Q431 47 470 80Q498 103 564 178ZM345 698L364
683L394 659Q396 658 399 655T404 652L406 650Q410 647 410 641Q410 633 403 631T392 633L386 637Q368 651 359 659Q354 663 345 670T334 678L331 680Q328 683 327 687Q325 694 332 699Q338 702 345 698Z" />
<glyph unicode="&#xda;" glyph-name="Uacute" horiz-adv-x="510" d="M564 178Q568 182 574 181T582 175Q585 168 579 161L561 141Q559 138 549 127T535 112T522 98T508 83T494 70T479 57T463 47T446 36Q408 15 372 19Q349 23 336 34Q325 45 322 60Q318 81 325
111Q330 134 346 180Q355 203 426 364Q361 256 347 236Q310 183 277 144Q221 81 175 50Q115 11 74 25Q27 42 53 144Q67 200 119 326Q192 500 197 514Q199 521 202 532T207 548Q212 568 200 574Q187 581 170 581Q152 581 129 576Q107 571 87 562Q63 551 53 537Q48
532 48 525Q48 514 37 514Q30 514 28 519T26 529T29 540Q41 569 93 589Q137 606 175 603Q219 601 229 574Q235 559 227 536Q225 528 216 501Q210 483 142 324Q96 214 79 156Q69 120 66 91Q63 53 82 46Q101 40 128 51Q145 57 182 83Q237 127 291 198Q324 240 380
332Q433 418 469 483L502 546L513 571Q517 581 523 582Q534 584 536 573Q536 570 530 554Q519 528 516 523Q500 486 497 478Q491 464 455 381T378 199Q355 138 350 121Q340 88 344 66Q347 49 361 45Q379 39 399 42Q431 47 470 80Q498 103 564 178ZM371 679L390
694Q396 698 403 695Q410 690 408 683Q406 678 404 676L401 674Q400 673 391 666T376 655Q367 647 349 633L343 629Q339 625 332 627T325 637Q325 643 329 646L331 648Q332 648 335 651T341 655L371 679Z" />
<glyph unicode="&#xdb;" glyph-name="Ucircumflex" horiz-adv-x="510" d="M564 178Q568 182 574 181T582 175Q585 168 579 161L561 141Q559 138 549 127T535 112T522 98T508 83T494 70T479 57T463 47T446 36Q408 15 372 19Q349 23 336 34Q325 45 322 60Q318 81
325 111Q330 134 346 180Q355 203 426 364Q361 256 347 236Q310 183 277 144Q221 81 175 50Q115 11 74 25Q27 42 53 144Q67 200 119 326Q192 500 197 514Q199 521 202 532T207 548Q212 568 200 574Q187 581 170 581Q152 581 129 576Q107 571 87 562Q63 551 53 537Q48
532 48 525Q48 514 37 514Q30 514 28 519T26 529T29 540Q41 569 93 589Q137 606 175 603Q219 601 229 574Q235 559 227 536Q225 528 216 501Q210 483 142 324Q96 214 79 156Q69 120 66 91Q63 53 82 46Q101 40 128 51Q145 57 182 83Q237 127 291 198Q324 240 380
332Q433 418 469 483L502 546L513 571Q517 581 523 582Q534 584 536 573Q536 570 530 554Q519 528 516 523Q500 486 497 478Q491 464 455 381T378 199Q355 138 350 121Q340 88 344 66Q347 49 361 45Q379 39 399 42Q431 47 470 80Q498 103 564 178ZM391 685Q392
684 392 683Q395 679 400 669T410 654L424 631Q426 626 425 623Q423 614 415 614Q408 614 405 619Q403 623 403 623Q396 635 380 659L378 663Q377 664 377 665H375Q373 664 371 662T367 660Q354 655 345 650Q332 645 329 643L325 641Q316 641 313 648Q309 656 316
661Q316 662 317 662L319 663L329 668Q341 673 363 684L374 689L378 691Q386 693 391 685Z" />
<glyph unicode="&#xdc;" glyph-name="Udieresis" horiz-adv-x="510" d="M564 178Q568 182 574 181T582 175Q585 168 579 161L561 141Q559 138 549 127T535 112T522 98T508 83T494 70T479 57T463 47T446 36Q408 15 372 19Q349 23 336 34Q325 45 322 60Q318 81 325
111Q330 134 346 180Q355 203 426 364Q361 256 347 236Q310 183 277 144Q221 81 175 50Q115 11 74 25Q27 42 53 144Q67 200 119 326Q192 500 197 514Q199 521 202 532T207 548Q212 568 200 574Q187 581 170 581Q152 581 129 576Q107 571 87 562Q63 551 53 537Q48
532 48 525Q48 514 37 514Q30 514 28 519T26 529T29 540Q41 569 93 589Q137 606 175 603Q219 601 229 574Q235 559 227 536Q225 528 216 501Q210 483 142 324Q96 214 79 156Q69 120 66 91Q63 53 82 46Q101 40 128 51Q145 57 182 83Q237 127 291 198Q324 240 380
332Q433 418 469 483L502 546L513 571Q517 581 523 582Q534 584 536 573Q536 570 530 554Q519 528 516 523Q500 486 497 478Q491 464 455 381T378 199Q355 138 350 121Q340 88 344 66Q347 49 361 45Q379 39 399 42Q431 47 470 80Q498 103 564 178ZM371 692Q390
684 384 663Q377 650 363 648Q347 648 342 662Q336 675 346 687Q358 697 371 692ZM426 668Q445 660 439 639Q432 626 418 624Q402 624 397 638Q391 651 401 663Q413 673 426 668Z" />
<glyph unicode="&#xdd;" glyph-name="Yacute" horiz-adv-x="422" d="M547 587Q559 583 550 564L540 540L530 517Q451 325 431 279Q359 113 299 10L305 13Q364 51 436 131L460 159L470 171Q480 180 482 181Q495 183 495 170Q495 166 488 157Q478 144 466 132Q398
54 341 11Q329 2 303 -14L278 -28L272 -37L266 -47Q237 -97 214 -131Q181 -179 156 -205Q120 -244 85 -249Q65 -251 49 -243T27 -215Q18 -182 53 -139Q73 -114 116 -90Q127 -83 206 -41L254 -16Q260 -13 262 -8L268 1L291 40Q321 91 364 184Q407 278 442 362Q376
253 323 187Q274 126 236 91Q183 41 140 30Q116 23 95 29Q65 38 60 73Q58 95 65 128Q74 165 93 211Q104 239 128 297T171 401T204 489Q216 522 225 553Q231 571 218 579Q210 584 190 586Q150 587 106 567Q84 558 72 543Q66 537 66 531Q66 520 56 519T44 527T46
544Q52 557 69 572Q102 597 151 605Q197 615 226 601Q241 592 246 580Q252 567 246 544Q231 490 192 394L132 247Q96 160 87 121Q82 101 82 85Q82 65 90 57Q106 42 140 53Q164 61 196 86Q222 106 257 143Q313 203 376 299Q434 388 477 468Q501 510 514 539Q519
548 527 568Q527 569 529 574T533 582T538 586T547 587ZM121 -208Q152 -180 182 -138Q207 -102 238 -50Q165 -88 145 -99Q95 -127 76 -148Q59 -165 52 -184Q43 -208 55 -220Q72 -230 89 -226T121 -208ZM390 671L409 686Q415 690 422 687Q429 682 427 675Q426 671
423 668L420 666Q419 665 410 658T395 647Q386 639 368 625L362 621Q358 617 351 619T344 629Q344 635 348 638L350 640Q351 640 354 643T360 647L390 671Z" />
<glyph unicode="&#xde;" glyph-name="Thorn" horiz-adv-x="333" d="M419 440Q424 425 422 407Q421 381 409 351Q399 324 376 291Q355 263 330 239Q310 219 282 201Q257 184 235 176Q209 166 191 162Q171 159 154 160Q134 160 120 170Q108 176 106 190Q104 198
108 202Q114 208 121 205T128 195T137 186Q143 183 149 183Q162 180 181 184Q204 188 221 194Q253 208 267 218Q294 236 315 255Q344 284 361 310Q382 339 392 369Q401 396 400 422Q398 437 392 447Q386 458 373 465Q356 472 337 471Q323 470 301 460Q282 450 264
435Q250 424 226 400L190 356Q176 339 157 308Q146 291 126 257Q117 240 101 206L95 194L93 188L91 186Q91 185 90 185Q90 184 90 182L89 181L80 160L67 128Q54 98 51 91L38 58L29 37L27 33Q25 28 20 27T9 29Q3 33 7 42Q7 43 9 47L18 68Q26 90 31 100L46 137L61
172Q64 181 72 199Q76 206 77 212L98 260Q106 281 124 323L149 383L172 439L192 488L207 524Q208 529 212 537Q217 556 216 562Q216 568 213 573L205 580Q197 584 179 586Q168 586 144 582Q126 577 112 570Q96 563 87 554Q77 546 73 536Q73 535 73 534T71 531Q71
529 67 525Q60 522 54 525Q48 531 50 537Q52 545 54 549Q66 570 94 586Q120 600 149 606Q186 612 209 603Q222 598 228 590Q236 580 237 573Q240 564 238 546Q237 543 235 536T231 524L214 483L190 424L162 355Q177 376 195 397Q215 421 242 445Q268 467 291 479Q318
492 339 493Q367 495 386 484Q398 476 407 466Q416 454 419 440Z" />
<glyph unicode="&#xdf;" glyph-name="germandbls" horiz-adv-x="339" d="M405 179Q411 175 409 168Q409 165 407 163Q406 160 402 156Q394 144 380 126Q365 107 345 87Q317 63 301 53Q281 43 271 40Q253 32 235 28Q203 20 171 19Q140 19 124 21Q113 21 102 24Q101
24 100 25Q99 25 98 26H97L96 27H93Q87 27 77 29Q55 33 44 36L26 42Q22 44 19 46L16 52Q14 60 21 63Q25 65 28 65T35 63Q69 52 99 49Q131 47 154 55Q180 63 199 80Q220 98 232 123Q245 151 248 177Q253 209 249 235Q244 267 233 290Q229 298 226 302Q223 307 219
317Q214 330 217 343Q220 352 230 366L251 387L284 424Q304 450 319 480Q330 499 332 514Q335 531 334 545Q332 573 317 591Q304 604 293 601Q284 599 276 584Q274 581 272 576T269 567L263 549L250 514Q234 472 225 451L202 396L180 349Q172 330 160 308Q158 304
151 292T140 273Q135 263 123 243Q121 241 115 232T106 217L90 194L76 174L61 153Q55 147 49 149Q42 150 40 159Q40 164 43 167Q48 174 48 175Q58 187 62 193L77 214L93 238Q105 256 110 265L128 297Q145 329 148 335L169 378Q177 395 191 429Q205 459 215 487L241
554L247 572Q251 584 254 590Q259 603 269 612Q284 627 302 624Q328 621 344 590Q357 568 357 539Q357 506 341 472Q326 442 305 415Q293 397 272 377L252 356Q243 347 239 338Q238 331 241 321L247 311L254 299Q265 273 270 244Q275 213 272 186Q269 155 259 130Q249
102 232 82Q211 56 184 43L212 46Q250 54 281 68Q301 78 325 100Q343 116 361 138Q377 158 384 168Q385 171 389 175L392 179Q398 184 405 179Z" />
<glyph unicode="&#xe0;" glyph-name="agrave" horiz-adv-x="324" d="M376 178Q382 184 389 180T395 168Q395 167 388 157Q368 135 359 124Q309 68 288 51Q249 18 218 33Q186 47 195 103Q160 59 126 41Q80 19 50 39Q25 56 25 94Q26 126 48 166Q68 207 110 245Q143
276 178 293Q229 318 278 312Q290 310 296 308Q301 307 302 304T303 296T301 288T297 279T294 272Q280 240 255 194Q251 186 241 170Q232 152 230 146Q220 116 217 100Q213 74 219 61T243 52Q255 54 271 66Q290 81 302 95Q322 115 376 178ZM101 56Q127 63 157 93Q179
115 207 158Q212 164 218 178L227 197Q232 210 244 234Q260 265 275 289Q233 294 186 272Q152 255 118 221Q78 183 60 141Q44 103 50 77Q54 60 66 55Q79 50 101 56ZM234 405L253 390L283 366Q285 365 288 362T293 359L295 357Q299 354 299 348Q299 340 292 338T281
340L275 344Q257 358 248 366Q243 370 234 377T223 385L220 387Q218 390 216 394Q214 401 221 406Q227 409 234 405Z" />
<glyph unicode="&#xe1;" glyph-name="aacute" horiz-adv-x="324" d="M376 178Q382 184 389 180T395 168Q395 167 388 157Q368 135 359 124Q309 68 288 51Q249 18 218 33Q186 47 195 103Q160 59 126 41Q80 19 50 39Q25 56 25 94Q26 126 48 166Q68 207 110 245Q143
276 178 293Q229 318 278 312Q290 310 296 308Q301 307 302 304T303 296T301 288T297 279T294 272Q280 240 255 194Q251 186 241 170Q232 152 230 146Q220 116 217 100Q213 74 219 61T243 52Q255 54 271 66Q290 81 302 95Q322 115 376 178ZM101 56Q127 63 157 93Q179
115 207 158Q212 164 218 178L227 197Q232 210 244 234Q260 265 275 289Q233 294 186 272Q152 255 118 221Q78 183 60 141Q44 103 50 77Q54 60 66 55Q79 50 101 56ZM271 392L290 407Q296 412 303 408Q310 403 308 396Q306 392 304 389L301 387Q300 386 291 379T276
368Q267 360 249 346L243 342Q239 338 232 340T225 350Q225 356 229 359L231 361Q232 361 235 364T241 368L271 392Z" />
<glyph unicode="&#xe2;" glyph-name="acircumflex" horiz-adv-x="324" d="M376 178Q382 184 389 180T395 168Q395 167 388 157Q368 135 359 124Q309 68 288 51Q249 18 218 33Q186 47 195 103Q160 59 126 41Q80 19 50 39Q25 56 25 94Q26 126 48 166Q68 207 110
245Q143 276 178 293Q229 318 278 312Q290 310 296 308Q301 307 302 304T303 296T301 288T297 279T294 272Q280 240 255 194Q251 186 241 170Q232 152 230 146Q220 116 217 100Q213 74 219 61T243 52Q255 54 271 66Q290 81 302 95Q322 115 376 178ZM101 56Q127
63 157 93Q179 115 207 158Q212 164 218 178L227 197Q232 210 244 234Q260 265 275 289Q233 294 186 272Q152 255 118 221Q78 183 60 141Q44 103 50 77Q54 60 66 55Q79 50 101 56ZM307 407Q308 406 308 405Q311 401 316 391T326 376L340 353Q342 348 341 345Q339
336 331 336Q324 336 321 341Q319 345 319 345Q312 357 296 381L294 385Q293 386 293 387H291Q289 386 287 384T283 382Q270 377 261 372Q248 367 245 365L241 363Q232 363 229 370Q225 378 232 383Q232 384 233 384L235 385L245 390Q257 395 279 406L290 411L294
413Q302 415 307 407Z" />
<glyph unicode="&#xe3;" glyph-name="atilde" horiz-adv-x="324" d="M376 178Q382 184 389 180T395 168Q395 167 388 157Q368 135 359 124Q309 68 288 51Q249 18 218 33Q186 47 195 103Q160 59 126 41Q80 19 50 39Q25 56 25 94Q26 126 48 166Q68 207 110 245Q143
276 178 293Q229 318 278 312Q290 310 296 308Q301 307 302 304T303 296T301 288T297 279T294 272Q280 240 255 194Q251 186 241 170Q232 152 230 146Q220 116 217 100Q213 74 219 61T243 52Q255 54 271 66Q290 81 302 95Q322 115 376 178ZM101 56Q127 63 157 93Q179
115 207 158Q212 164 218 178L227 197Q232 210 244 234Q260 265 275 289Q233 294 186 272Q152 255 118 221Q78 183 60 141Q44 103 50 77Q54 60 66 55Q79 50 101 56ZM376 374Q380 372 382 364L379 357Q370 345 369 344Q364 336 352 327Q336 318 325 322Q310 326
303 342Q301 346 293 373Q292 375 291 379T288 385Q284 391 282 391H277L274 389L266 380Q259 369 257 363Q255 358 254 358Q251 355 247 355Q240 355 237 361Q235 364 237 372Q241 382 245 387Q250 398 257 405Q267 413 275 414Q287 417 300 406Q309 397 312 385Q314
379 317 369T321 357Q323 350 328 345Q332 341 339 346Q345 349 357 364Q359 367 360 368L363 374Q371 378 376 374Z" />
<glyph unicode="&#xe4;" glyph-name="adieresis" horiz-adv-x="324" d="M376 178Q382 184 389 180T395 168Q395 167 388 157Q368 135 359 124Q309 68 288 51Q249 18 218 33Q186 47 195 103Q160 59 126 41Q80 19 50 39Q25 56 25 94Q26 126 48 166Q68 207 110 245Q143
276 178 293Q229 318 278 312Q290 310 296 308Q301 307 302 304T303 296T301 288T297 279T294 272Q280 240 255 194Q251 186 241 170Q232 152 230 146Q220 116 217 100Q213 74 219 61T243 52Q255 54 271 66Q290 81 302 95Q322 115 376 178ZM101 56Q127 63 157 93Q179
115 207 158Q212 164 218 178L227 197Q232 210 244 234Q260 265 275 289Q233 294 186 272Q152 255 118 221Q78 183 60 141Q44 103 50 77Q54 60 66 55Q79 50 101 56ZM289 397Q308 389 302 368Q295 355 281 353Q265 353 260 367Q254 380 264 392Q276 402 289 397ZM344
373Q363 365 357 344Q350 331 336 329Q320 329 315 343Q309 356 319 368Q331 378 344 373Z" />
<glyph unicode="&#xe5;" glyph-name="aring" horiz-adv-x="324" d="M376 178Q382 184 389 180T395 168Q395 167 388 157Q368 135 359 124Q309 68 288 51Q249 18 218 33Q186 47 195 103Q160 59 126 41Q80 19 50 39Q25 56 25 94Q26 126 48 166Q68 207 110 245Q143
276 178 293Q229 318 278 312Q290 310 296 308Q301 307 302 304T303 296T301 288T297 279T294 272Q280 240 255 194Q251 186 241 170Q232 152 230 146Q220 116 217 100Q213 74 219 61T243 52Q255 54 271 66Q290 81 302 95Q322 115 376 178ZM101 56Q127 63 157 93Q179
115 207 158Q212 164 218 178L227 197Q232 210 244 234Q260 265 275 289Q233 294 186 272Q152 255 118 221Q78 183 60 141Q44 103 50 77Q54 60 66 55Q79 50 101 56ZM311 408Q334 408 348 391Q368 369 357 341Q347 313 317 310T271 331Q253 355 268 382Q281 408
311 408ZM311 332Q317 332 320 333Q334 338 337 352Q341 365 331 377Q321 388 307 385Q292 383 287 370Q281 357 289 344Q298 332 311 332Z" />
<glyph unicode="&#xe6;" glyph-name="ae" horiz-adv-x="537" d="M605 179Q613 172 600 154L576 127Q553 102 532 84Q466 28 414 34Q379 39 366 68Q356 91 361 127Q359 125 359 124Q309 68 288 51Q249 18 218 33Q186 47 195 103Q160 59 126 41Q80 19 50 39Q25 56
25 94Q26 126 48 166Q68 207 110 245Q143 276 178 293Q229 318 278 312Q290 310 296 308Q301 307 302 304T303 296T301 288T297 279T294 272Q280 240 255 194Q251 186 241 170Q232 152 230 146Q220 116 217 100Q213 74 219 61T243 52Q255 54 271 66Q290 81 302
95Q321 114 375 177Q396 234 442 276Q471 303 498 308Q545 316 556 282Q568 240 506 197Q475 178 434 165Q426 162 410 158L398 155Q397 155 395 155T392 154L391 152L390 150Q382 124 382 100Q384 77 393 67Q405 57 418 57Q440 55 473 70Q504 87 537 119Q543 125
571 155L589 177Q596 186 605 179ZM101 56Q127 63 157 93Q179 115 207 158Q212 164 218 178L227 197Q232 210 244 234Q260 265 275 289Q233 294 186 272Q152 255 118 221Q78 183 60 141Q44 103 50 77Q54 60 66 55Q79 50 101 56ZM505 286Q479 284 448 251Q421 221
402 180Q483 200 518 237Q532 251 535 266Q536 278 527 283T505 286Z" />
<glyph unicode="&#xe7;" glyph-name="ccedilla" horiz-adv-x="237" d="M138 -1Q158 1 169 -1Q183 -4 189 -15Q194 -23 194 -32Q194 -43 187 -55Q180 -68 169 -79Q146 -102 123 -114Q101 -129 74 -135Q60 -137 53 -135Q47 -135 43 -131Q38 -125 42 -118Q45 -112
53 -112Q54 -113 57 -113Q58 -114 60 -114Q63 -114 78 -111Q99 -103 125 -87L147 -69Q159 -58 167 -46Q171 -38 171 -33Q171 -27 169 -25Q165 -23 161 -23Q155 -22 149 -23Q132 -25 118 -29Q108 -33 104 -32Q96 -29 96 -20Q96 -16 100 -12Q103 -9 107 -3L130 25L139
37Q133 35 121 33Q72 25 50 51Q31 74 35 111Q40 182 105 254Q144 295 171 300Q205 305 217 271Q219 265 220 258T219 246T208 241Q200 243 198 257Q196 267 190 273Q180 283 161 272Q149 266 125 242Q94 208 75 170Q58 137 57 105Q55 67 79 57Q93 51 119 55Q141
60 159 68Q170 73 180 78T201 93T219 107T239 125T255 141T274 161T290 178Q294 182 300 181T309 173T302 158L264 118Q216 72 182 54Q180 51 179 51L175 45L138 -1Z" />
<glyph unicode="&#xe8;" glyph-name="egrave" horiz-adv-x="213" d="M281 179Q289 172 276 154L252 127Q229 102 208 84Q142 28 90 34Q55 39 42 68Q30 95 40 142Q59 222 118 276Q147 303 174 308Q221 316 232 282Q244 240 182 197Q151 178 110 165Q102 162 86
158L74 155Q73 155 71 155T68 154L67 152L66 150Q58 124 58 100Q60 77 69 67Q81 57 94 57Q116 55 149 70Q180 87 213 119Q219 125 247 155L265 177Q272 186 281 179ZM181 286Q155 284 124 251Q97 221 78 180Q159 200 194 237Q208 251 211 266Q212 278 203 283T181
286ZM172 393L191 378L221 354Q223 353 226 350T231 347L233 345Q237 342 237 336Q237 328 230 326T219 328L213 332Q195 346 186 354Q181 358 172 365T161 373L158 375Q156 378 154 382Q152 389 159 394Q165 397 172 393Z" />
<glyph unicode="&#xe9;" glyph-name="eacute" horiz-adv-x="213" d="M281 179Q289 172 276 154L252 127Q229 102 208 84Q142 28 90 34Q55 39 42 68Q30 95 40 142Q59 222 118 276Q147 303 174 308Q221 316 232 282Q244 240 182 197Q151 178 110 165Q102 162 86
158L74 155Q73 155 71 155T68 154L67 152L66 150Q58 124 58 100Q60 77 69 67Q81 57 94 57Q116 55 149 70Q180 87 213 119Q219 125 247 155L265 177Q272 186 281 179ZM181 286Q155 284 124 251Q97 221 78 180Q159 200 194 237Q208 251 211 266Q212 278 203 283T181
286ZM219 376L238 391Q244 396 251 392Q258 387 256 380Q254 376 252 373L249 371Q248 370 239 363T224 352Q215 344 197 330L191 326Q187 322 180 324T173 334Q173 340 177 343L179 345Q180 345 183 348T189 352L219 376Z" />
<glyph unicode="&#xea;" glyph-name="ecircumflex" horiz-adv-x="213" d="M281 179Q289 172 276 154L252 127Q229 102 208 84Q142 28 90 34Q55 39 42 68Q30 95 40 142Q59 222 118 276Q147 303 174 308Q221 316 232 282Q244 240 182 197Q151 178 110 165Q102 162
86 158L74 155Q73 155 71 155T68 154L67 152L66 150Q58 124 58 100Q60 77 69 67Q81 57 94 57Q116 55 149 70Q180 87 213 119Q219 125 247 155L265 177Q272 186 281 179ZM181 286Q155 284 124 251Q97 221 78 180Q159 200 194 237Q208 251 211 266Q212 278 203 283T181
286ZM233 380Q234 379 234 378Q237 374 242 364T252 349L266 326Q268 321 267 318Q265 309 257 309Q250 309 247 314Q245 318 245 318Q238 330 222 354L220 358Q219 359 219 360H217Q215 359 213 357T209 355Q196 350 187 345Q174 340 171 338L167 336Q158 336
155 343Q151 351 158 356Q158 357 159 357L161 358L171 363Q183 368 205 379L216 384L220 386Q228 388 233 380Z" />
<glyph unicode="&#xeb;" glyph-name="edieresis" horiz-adv-x="213" d="M281 179Q289 172 276 154L252 127Q229 102 208 84Q142 28 90 34Q55 39 42 68Q30 95 40 142Q59 222 118 276Q147 303 174 308Q221 316 232 282Q244 240 182 197Q151 178 110 165Q102 162
86 158L74 155Q73 155 71 155T68 154L67 152L66 150Q58 124 58 100Q60 77 69 67Q81 57 94 57Q116 55 149 70Q180 87 213 119Q219 125 247 155L265 177Q272 186 281 179ZM181 286Q155 284 124 251Q97 221 78 180Q159 200 194 237Q208 251 211 266Q212 278 203 283T181
286ZM211 385Q230 377 224 356Q217 343 203 341Q187 341 182 355Q176 368 186 380Q198 390 211 385ZM266 361Q285 353 279 332Q272 319 258 317Q242 317 237 331Q231 344 241 356Q253 366 266 361Z" />
<glyph unicode="&#xec;" glyph-name="igrave" horiz-adv-x="172" d="M240 178Q248 171 238 157L220 137Q186 97 167 78Q140 51 121 40Q94 24 79 32Q66 38 64 59Q61 82 75 123Q88 159 113 213L68 160Q63 154 57 155T48 162T51 175L66 193L134 271L156 297Q161 304
168 303Q182 299 176 288L170 276Q133 208 108 146Q94 114 88 88Q85 75 86 64Q86 52 90 52Q94 51 106 57Q118 64 130 74Q146 88 174 118Q194 140 212 162Q213 163 216 167T221 173T227 178T233 181T240 178ZM139 415L158 400L188 376Q190 375 193 372T198 369L200
367Q204 364 204 358Q204 350 197 348T186 350L180 354Q162 368 153 376Q148 380 139 387T128 395L125 397Q122 400 121 404Q119 411 126 416Q132 419 139 415Z" />
<glyph unicode="&#xed;" glyph-name="iacute" horiz-adv-x="172" d="M240 178Q248 171 238 157L220 137Q186 97 167 78Q140 51 121 40Q94 24 79 32Q66 38 64 59Q61 82 75 123Q88 159 113 213L68 160Q63 154 57 155T48 162T51 175L66 193L134 271L156 297Q161 304
168 303Q182 299 176 288L170 276Q133 208 108 146Q94 114 88 88Q85 75 86 64Q86 52 90 52Q94 51 106 57Q118 64 130 74Q146 88 174 118Q194 140 212 162Q213 163 216 167T221 173T227 178T233 181T240 178ZM193 392L212 407Q218 412 225 408Q232 403 230 396Q228
392 226 389L223 387Q207 375 198 368Q189 360 171 346L165 342Q161 338 154 340T147 350Q147 356 151 359L153 361Q154 361 157 364T163 368L193 392Z" />
<glyph unicode="&#xee;" glyph-name="icircumflex" horiz-adv-x="172" d="M240 178Q248 171 238 157L220 137Q186 97 167 78Q140 51 121 40Q94 24 79 32Q66 38 64 59Q61 82 75 123Q88 159 113 213L68 160Q63 154 57 155T48 162T51 175L66 193L134 271L156 297Q161
304 168 303Q182 299 176 288L170 276Q133 208 108 146Q94 114 88 88Q85 75 86 64Q86 52 90 52Q94 51 106 57Q118 64 130 74Q146 88 174 118Q194 140 212 162Q213 163 216 167T221 173T227 178T233 181T240 178ZM222 402Q223 401 223 400Q226 396 231 386T241 371L255
348Q258 343 256 340Q254 331 246 331Q239 331 236 336Q234 340 234 340Q227 352 211 376L209 380Q208 381 208 382H206Q204 381 202 379T198 377Q185 372 176 367Q163 362 160 360L156 358Q147 358 144 365Q140 373 147 378Q147 379 148 379L150 380L160 385Q172
390 194 401L205 406L209 408Q217 410 222 402Z" />
<glyph unicode="&#xef;" glyph-name="idieresis" horiz-adv-x="172" d="M240 178Q248 171 238 157L220 137Q186 97 167 78Q140 51 121 40Q94 24 79 32Q66 38 64 59Q61 82 75 123Q88 159 113 213L68 160Q63 154 57 155T48 162T51 175L66 193L134 271L156 297Q161
304 168 303Q182 299 176 288L170 276Q133 208 108 146Q94 114 88 88Q85 75 86 64Q86 52 90 52Q94 51 106 57Q118 64 130 74Q146 88 174 118Q194 140 212 162Q213 163 216 167T221 173T227 178T233 181T240 178ZM186 402Q205 394 199 373Q192 360 178 358Q162 358
157 372Q151 385 161 397Q173 407 186 402ZM241 378Q260 370 254 349Q247 336 233 334Q217 334 212 348Q206 361 216 373Q228 383 241 378Z" />
<glyph unicode="&#xf0;" glyph-name="eth" horiz-adv-x="315" d="M470 436Q474 436 479 433Q484 428 481 420Q478 414 470 414H359Q317 316 295 268L274 219L256 178Q245 152 234 114Q229 94 229 77Q229 61 234 56Q246 45 277 76Q296 93 330 133L366 177Q372 184
380 180T386 167Q386 166 373 150Q343 113 318 85Q283 48 265 38Q234 21 216 43Q199 65 213 120Q209 114 199 102Q167 65 133 48Q85 23 55 39Q27 52 26 89T39 150Q58 190 97 231Q128 264 162 282Q210 309 255 308Q261 308 271 306Q278 305 279 299T277 288T266
284H264Q262 285 261 285Q222 289 181 267Q148 251 119 222Q78 179 60 141Q42 105 50 79Q54 63 66 59Q80 52 105 60Q166 81 219 171Q254 230 296 326L334 414H226Q217 414 215 415Q208 418 208 425T215 436H343L356 467L374 510Q375 511 377 517T380 525T385 533T390
538T398 538Q409 533 404 523L368 436H470Z" />
<glyph unicode="&#xf1;" glyph-name="ntilde" horiz-adv-x="424" d="M478 179Q482 184 489 183T498 175Q498 173 493 162Q491 157 480 144Q446 101 432 87Q393 48 365 38Q350 31 332 35T310 57Q306 70 312 90Q315 105 327 133Q331 143 338 160T352 192T363 220Q371
240 374 256Q376 273 372 278Q365 285 347 280Q338 279 324 271Q282 249 232 181Q196 132 163 74Q148 46 143 40Q136 29 126 34Q116 38 121 48L129 66Q163 134 178 169Q196 213 200 232Q203 244 203 257Q205 270 197 276Q190 280 177 273Q164 264 151 253Q121 226
89 187L74 167Q66 157 59 160Q54 161 52 166T53 175Q54 177 55 179T57 182L87 220Q112 248 132 266Q158 290 179 297Q194 302 207 296T224 274T224 237Q220 216 210 189Q228 213 246 234Q284 276 315 292Q360 316 385 296Q405 280 390 228Q388 223 352 136Q338
100 337 96Q330 75 331 66Q333 44 374 67Q395 80 429 116Q438 127 456 151T478 179ZM389 386Q393 384 395 376L392 369Q383 357 382 356Q377 348 365 339Q349 330 338 334Q323 338 316 354Q314 357 306 385Q305 387 304 391T301 397Q297 403 295 403H290L287 401L279
392Q272 381 270 375Q268 370 267 370Q264 367 260 367Q253 367 250 373Q248 376 250 384Q254 394 258 399Q262 410 270 417Q280 425 288 426Q300 429 313 418Q322 409 325 397Q327 391 330 381T334 369Q336 362 341 357Q345 353 352 358Q358 361 370 376Q372 379
373 380L376 386Q384 390 389 386Z" />
<glyph unicode="&#xf2;" glyph-name="ograve" horiz-adv-x="289" d="M356 178Q359 176 359 173T360 168T358 162T355 158T351 153T347 149L320 122Q291 97 269 90Q249 85 234 87Q222 89 216 91T207 95L198 86Q160 46 121 37Q99 32 80 39T50 66Q36 93 43 136Q56
207 113 267Q129 282 145 296Q162 306 163 306Q174 304 174 294Q173 289 161 279Q152 273 145 266Q128 252 115 236Q87 200 76 168Q62 132 63 105Q64 84 76 70T108 58Q147 63 187 107Q142 148 171 240Q185 286 209 302Q225 314 242 311T269 291Q290 254 270 199Q256
155 222 113Q251 102 283 122Q302 135 317 151L338 173Q347 186 356 178ZM202 124Q218 145 229 164Q260 215 256 258Q254 282 243 288Q231 293 217 279Q193 253 185 203Q177 149 202 124ZM207 405L226 390L256 366Q258 365 261 362T266 359L268 357Q272 354 272
348Q272 340 265 338T254 340L248 344Q230 358 221 366Q216 370 207 377T196 385L193 387Q190 390 189 394Q187 401 194 406Q200 409 207 405Z" />
<glyph unicode="&#xf3;" glyph-name="oacute" horiz-adv-x="289" d="M356 178Q359 176 359 173T360 168T358 162T355 158T351 153T347 149L320 122Q291 97 269 90Q249 85 234 87Q222 89 216 91T207 95L198 86Q160 46 121 37Q99 32 80 39T50 66Q36 93 43 136Q56
207 113 267Q129 282 145 296Q162 306 163 306Q174 304 174 294Q173 289 161 279Q152 273 145 266Q128 252 115 236Q87 200 76 168Q62 132 63 105Q64 84 76 70T108 58Q147 63 187 107Q142 148 171 240Q185 286 209 302Q225 314 242 311T269 291Q290 254 270 199Q256
155 222 113Q251 102 283 122Q302 135 317 151L338 173Q347 186 356 178ZM202 124Q218 145 229 164Q260 215 256 258Q254 282 243 288Q231 293 217 279Q193 253 185 203Q177 149 202 124ZM234 380L253 395Q259 400 266 396Q273 391 271 384Q270 380 267 377L264
375Q263 374 254 367T239 356Q230 348 212 334L206 330Q202 326 195 328T188 338Q188 344 192 347L194 349Q195 349 198 352T204 356L234 380Z" />
<glyph unicode="&#xf4;" glyph-name="ocircumflex" horiz-adv-x="289" d="M356 178Q359 176 359 173T360 168T358 162T355 158T351 153T347 149L320 122Q291 97 269 90Q249 85 234 87Q222 89 216 91T207 95L198 86Q160 46 121 37Q99 32 80 39T50 66Q36 93 43 136Q56
207 113 267Q129 282 145 296Q162 306 163 306Q174 304 174 294Q173 289 161 279Q152 273 145 266Q128 252 115 236Q87 200 76 168Q62 132 63 105Q64 84 76 70T108 58Q147 63 187 107Q142 148 171 240Q185 286 209 302Q225 314 242 311T269 291Q290 254 270 199Q256
155 222 113Q251 102 283 122Q302 135 317 151L338 173Q347 186 356 178ZM202 124Q218 145 229 164Q260 215 256 258Q254 282 243 288Q231 293 217 279Q193 253 185 203Q177 149 202 124ZM260 402Q261 401 261 400Q264 396 269 386T279 371L293 348Q296 343 294
340Q292 331 284 331Q277 331 274 336Q272 340 272 340Q265 352 249 376L247 380Q246 381 246 382H244Q242 381 240 379T236 377Q223 372 214 367Q201 362 198 360L194 358Q185 358 182 365Q178 373 185 378Q185 379 186 379L188 380L198 385Q210 390 232 401L243
406L247 408Q255 410 260 402Z" />
<glyph unicode="&#xf5;" glyph-name="otilde" horiz-adv-x="289" d="M356 178Q359 176 359 173T360 168T358 162T355 158T351 153T347 149L320 122Q291 97 269 90Q249 85 234 87Q222 89 216 91T207 95L198 86Q160 46 121 37Q99 32 80 39T50 66Q36 93 43 136Q56
207 113 267Q129 282 145 296Q162 306 163 306Q174 304 174 294Q173 289 161 279Q152 273 145 266Q128 252 115 236Q87 200 76 168Q62 132 63 105Q64 84 76 70T108 58Q147 63 187 107Q142 148 171 240Q185 286 209 302Q225 314 242 311T269 291Q290 254 270 199Q256
155 222 113Q251 102 283 122Q302 135 317 151L338 173Q347 186 356 178ZM202 124Q218 145 229 164Q260 215 256 258Q254 282 243 288Q231 293 217 279Q193 253 185 203Q177 149 202 124ZM325 376Q329 374 331 366L328 359Q319 347 318 346Q313 338 301 329Q285
320 274 324Q259 328 252 344Q250 347 242 375Q241 377 240 381T237 387Q233 393 231 393H226L223 391L215 382Q208 371 206 365Q204 360 203 360Q200 357 196 357Q189 357 186 363Q184 366 186 374Q190 384 194 389Q198 400 206 407Q216 415 224 416Q236 419 249
408Q258 399 261 387Q263 381 266 371T270 359Q272 352 277 347Q281 343 288 348Q294 351 306 366Q308 369 309 370L312 376Q320 380 325 376Z" />
<glyph unicode="&#xf6;" glyph-name="odieresis" horiz-adv-x="289" d="M356 178Q359 176 359 173T360 168T358 162T355 158T351 153T347 149L320 122Q291 97 269 90Q249 85 234 87Q222 89 216 91T207 95L198 86Q160 46 121 37Q99 32 80 39T50 66Q36 93 43 136Q56
207 113 267Q129 282 145 296Q162 306 163 306Q174 304 174 294Q173 289 161 279Q152 273 145 266Q128 252 115 236Q87 200 76 168Q62 132 63 105Q64 84 76 70T108 58Q147 63 187 107Q142 148 171 240Q185 286 209 302Q225 314 242 311T269 291Q290 254 270 199Q256
155 222 113Q251 102 283 122Q302 135 317 151L338 173Q347 186 356 178ZM202 124Q218 145 229 164Q260 215 256 258Q254 282 243 288Q231 293 217 279Q193 253 185 203Q177 149 202 124ZM233 391Q252 383 246 362Q239 349 225 347Q209 347 204 361Q198 374 208
386Q220 396 233 391ZM288 367Q307 359 301 338Q294 325 280 323Q264 323 259 337Q253 350 263 362Q275 372 288 367Z" />
<glyph unicode="&#xf7;" glyph-name="divide" horiz-adv-x="363" d="M297 282Q302 282 306 279Q311 274 308 266Q305 260 297 260H53Q44 260 42 261Q35 264 35 271T42 282H297ZM175 224Q195 215 188 195Q182 180 167 180Q151 180 146 194Q140 207 150 219Q162
229 175 224ZM182 362Q201 354 195 333Q188 320 174 318Q158 318 153 332Q147 345 157 357Q169 367 182 362Z" />
<glyph unicode="&#xf8;" glyph-name="oslash" horiz-adv-x="289" d="M356 178Q359 176 359 173T360 168T358 162T355 158T351 153T347 149L320 122Q291 97 269 90Q249 85 234 87Q222 89 216 91T207 95L198 86Q160 46 121 37Q99 32 80 39T50 66Q36 93 43 136Q56
207 113 267Q129 282 145 296Q162 306 163 306Q174 304 174 294Q173 289 161 279Q152 273 145 266Q128 252 115 236Q87 200 76 168Q64 141 63 117L73 124Q82 132 94 139L121 159L152 182L161 188Q162 212 171 240Q185 286 209 302Q225 314 242 311T269 291Q290
254 270 199Q256 155 222 113Q251 102 283 122Q302 135 317 151L338 173Q347 186 356 178ZM187 107Q166 125 161 162L149 152Q129 138 119 130L94 113L78 101Q77 100 75 99Q71 95 69 95H64Q72 52 108 58Q147 63 187 107ZM202 124Q218 145 229 164Q250 196 255 228L249
224Q237 216 227 208L199 189L183 176Q183 142 202 124ZM249 252L256 255V258Q254 282 243 288Q231 293 217 279Q193 255 185 206L201 217L226 235L244 248L249 252Z" />
<glyph unicode="&#xf9;" glyph-name="ugrave" horiz-adv-x="348" d="M399 177Q410 188 418 175Q421 168 415 160Q397 139 396 138Q368 106 342 82Q313 53 289 40Q247 18 232 43Q223 58 232 93Q239 122 263 178Q210 103 164 63Q130 35 102 31Q86 29 75 37T60 60Q57
81 69 118Q75 137 103 205L79 174Q78 173 75 169T71 164T66 160T60 158T54 160Q42 168 58 184L78 209Q120 263 139 290Q140 291 141 294T145 300Q152 307 161 300Q167 294 161 284Q134 218 127 202Q104 153 94 122Q86 101 84 87Q80 73 83 63Q87 45 118 59Q139 69
159 89Q198 126 246 194Q286 252 311 297Q316 306 323 306Q332 306 334 297Q334 296 331 284Q324 269 312 239Q306 223 291 188T269 133Q252 88 250 69Q247 57 252 53Q256 51 266 54L277 59Q296 70 335 106Q371 142 399 177ZM208 393L227 378L257 354Q259 353 262
350T267 347L269 345Q273 342 273 336Q273 328 266 326T255 328L249 332Q231 346 222 354Q217 358 208 365T197 373L194 375Q192 378 190 382Q188 389 195 394Q201 397 208 393Z" />
<glyph unicode="&#xfa;" glyph-name="uacute" horiz-adv-x="348" d="M399 177Q410 188 418 175Q421 168 415 160Q397 139 396 138Q368 106 342 82Q313 53 289 40Q247 18 232 43Q223 58 232 93Q239 122 263 178Q210 103 164 63Q130 35 102 31Q86 29 75 37T60 60Q57
81 69 118Q75 137 103 205L79 174Q78 173 75 169T71 164T66 160T60 158T54 160Q42 168 58 184L78 209Q120 263 139 290Q140 291 141 294T145 300Q152 307 161 300Q167 294 161 284Q134 218 127 202Q104 153 94 122Q86 101 84 87Q80 73 83 63Q87 45 118 59Q139 69
159 89Q198 126 246 194Q286 252 311 297Q316 306 323 306Q332 306 334 297Q334 296 331 284Q324 269 312 239Q306 223 291 188T269 133Q252 88 250 69Q247 57 252 53Q256 51 266 54L277 59Q296 70 335 106Q371 142 399 177ZM242 380L261 395Q267 400 274 396Q281
391 279 384Q278 380 275 377L272 375Q271 374 262 367T247 356Q238 348 220 334L214 330Q210 326 203 328T196 338Q196 344 200 347L202 349Q203 349 206 352T212 356L242 380Z" />
<glyph unicode="&#xfb;" glyph-name="ucircumflex" horiz-adv-x="348" d="M399 177Q410 188 418 175Q421 168 415 160Q397 139 396 138Q368 106 342 82Q313 53 289 40Q247 18 232 43Q223 58 232 93Q239 122 263 178Q210 103 164 63Q130 35 102 31Q86 29 75 37T60
60Q57 81 69 118Q75 137 103 205L79 174Q78 173 75 169T71 164T66 160T60 158T54 160Q42 168 58 184L78 209Q120 263 139 290Q140 291 141 294T145 300Q152 307 161 300Q167 294 161 284Q134 218 127 202Q104 153 94 122Q86 101 84 87Q80 73 83 63Q87 45 118 59Q139
69 159 89Q198 126 246 194Q286 252 311 297Q316 306 323 306Q332 306 334 297Q334 296 331 284Q324 269 312 239Q306 223 291 188T269 133Q252 88 250 69Q247 57 252 53Q256 51 266 54L277 59Q296 70 335 106Q371 142 399 177ZM260 408Q261 407 261 406Q264 402
269 392T279 377L293 354Q296 349 294 346Q292 337 284 337Q277 337 274 342Q272 346 272 346Q265 358 249 382L247 386Q246 387 246 388H244Q242 387 240 385T236 383Q223 378 214 373Q201 368 198 366L194 364Q185 364 182 371Q178 379 185 384Q185 385 186 385L188
386L198 391Q210 396 232 407L243 412L247 414Q255 416 260 408Z" />
<glyph unicode="&#xfc;" glyph-name="udieresis" horiz-adv-x="348" d="M399 177Q410 188 418 175Q421 168 415 160Q397 139 396 138Q368 106 342 82Q313 53 289 40Q247 18 232 43Q223 58 232 93Q239 122 263 178Q210 103 164 63Q130 35 102 31Q86 29 75 37T60
60Q57 81 69 118Q75 137 103 205L79 174Q78 173 75 169T71 164T66 160T60 158T54 160Q42 168 58 184L78 209Q120 263 139 290Q140 291 141 294T145 300Q152 307 161 300Q167 294 161 284Q134 218 127 202Q104 153 94 122Q86 101 84 87Q80 73 83 63Q87 45 118 59Q139
69 159 89Q198 126 246 194Q286 252 311 297Q316 306 323 306Q332 306 334 297Q334 296 331 284Q324 269 312 239Q306 223 291 188T269 133Q252 88 250 69Q247 57 252 53Q256 51 266 54L277 59Q296 70 335 106Q371 142 399 177ZM231 395Q250 387 244 366Q237 353
223 351Q207 351 202 365Q196 378 206 390Q218 400 231 395ZM286 371Q305 363 299 342Q292 329 278 327Q262 327 257 341Q251 354 261 366Q273 376 286 371Z" />
<glyph unicode="&#xfd;" glyph-name="yacute" horiz-adv-x="381" d="M434 177Q438 181 443 181T452 176Q456 169 445 155L408 113Q361 64 326 34L306 16Q303 13 295 -5Q294 -9 287 -25Q283 -37 273 -61Q249 -119 236 -147Q216 -189 195 -211Q167 -243 135 -244Q114
-245 101 -231T88 -196Q89 -152 141 -96Q166 -69 215 -31L256 2L276 20Q283 25 284 27L287 34Q327 134 348 184Q291 106 247 69Q216 42 189 37Q171 33 159 44Q148 52 148 70Q147 83 153 109L169 157Q192 217 197 244Q201 263 197 272Q192 282 177 276Q173 274 169
271T161 264T153 258Q150 255 141 245T126 229L86 182L71 164Q67 158 59 158T50 167Q49 172 59 185L75 204Q117 253 129 265Q160 296 179 300Q194 303 207 295Q221 284 221 264Q223 238 200 174Q176 114 171 88Q169 68 172 62Q176 57 191 60Q208 65 233 86Q273
122 331 199Q361 241 375 263Q381 273 385 278Q391 288 397 288Q403 289 406 283T407 271L322 60Q385 118 434 177ZM252 -53Q254 -46 266 -18Q258 -25 235 -42T197 -73T167 -101Q133 -135 119 -167Q105 -197 114 -213T148 -218Q161 -214 173 -202Q194 -182 213
-142Q228 -113 252 -53ZM298 360L317 375Q323 379 330 376Q337 371 335 364Q334 360 331 357L328 355Q327 354 318 347T303 336Q294 328 276 314L270 310Q266 306 259 308T252 318Q252 324 256 327L258 329Q259 329 262 332T268 336L298 360Z" />
<glyph unicode="&#xfe;" glyph-name="thorn" horiz-adv-x="328" d="M380 178L382 179Q388 184 395 179T399 167L396 161L391 156L366 129Q337 98 320 83Q293 59 267 47Q237 34 208 30Q181 26 154 27Q136 27 114 32Q112 32 110 32T107 33Q101 35 99 38Q94 43 97
50Q102 57 109 56Q112 56 116 54Q119 54 125 52H138Q148 51 160 54Q182 58 202 75Q221 90 239 113Q257 139 269 162Q279 182 290 213Q294 224 297 239Q301 259 301 270Q301 280 298 288L295 292Q294 293 291 293Q283 295 267 288Q251 280 235 268L197 235Q174 212
158 192Q132 158 121 141L104 113L96 98Q93 92 92 91L91 90V89Q90 88 90 87T90 85T89 83Q84 72 76 50L73 43Q72 42 72 40Q70 36 68 35L40 -33L11 -99Q-10 -149 -15 -161L-38 -213L-41 -219L-44 -224Q-49 -229 -57 -227Q-63 -224 -63 -216Q-63 -214 -61 -210Q-61
-207 -59 -205L-38 -157L-14 -101L12 -40L39 23Q42 30 50 51T64 84Q74 106 92 152L119 219L115 215L73 167Q65 159 62 159Q54 157 50 165Q47 172 52 177L63 190L87 218L116 250Q117 251 139 276L142 280L144 282V283Q145 283 145 285L160 321L188 385Q204 423 213
441L234 488L253 526Q266 550 269 554Q286 580 300 591Q318 606 339 603Q349 600 357 592Q367 582 367 567Q369 551 363 538L356 521Q347 501 330 476Q319 458 293 422Q273 396 253 373L242 360Q238 356 235 352T227 343T219 334L193 304L174 282L170 277Q169 277
169 276L164 271L163 269Q159 260 150 236T134 198L149 215Q176 247 196 265Q222 288 243 300Q267 314 283 315Q303 319 313 306Q320 298 321 289Q323 280 323 263Q322 234 310 203Q301 173 286 146Q268 114 252 94Q230 67 210 53Q246 60 272 75Q299 93 322 116Q348
142 360 156Q374 170 380 178ZM293 550L286 539L268 506L247 461L221 405L191 336L216 365L246 399Q273 431 289 456Q306 478 322 506Q336 530 341 543Q346 555 345 566Q343 575 339 578Q336 581 332 581Q324 581 315 574Q304 567 293 550Z" />
<glyph unicode="&#xff;" glyph-name="ydieresis" horiz-adv-x="381" d="M434 177Q438 181 443 181T452 176Q456 169 445 155L408 113Q361 64 326 34L306 16Q303 13 295 -5Q294 -9 287 -25Q283 -37 273 -61Q249 -119 236 -147Q216 -189 195 -211Q167 -243 135 -244Q114
-245 101 -231T88 -196Q89 -152 141 -96Q166 -69 215 -31L256 2L276 20Q283 25 284 27L287 34Q327 134 348 184Q291 106 247 69Q216 42 189 37Q171 33 159 44Q148 52 148 70Q147 83 153 109L169 157Q192 217 197 244Q201 263 197 272Q192 282 177 276Q173 274 169
271T161 264T153 258Q150 255 141 245T126 229L86 182L71 164Q67 158 59 158T50 167Q49 172 59 185L75 204Q117 253 129 265Q160 296 179 300Q194 303 207 295Q221 284 221 264Q223 238 200 174Q176 114 171 88Q169 68 172 62Q176 57 191 60Q208 65 233 86Q273
122 331 199Q361 241 375 263Q381 273 385 278Q391 288 397 288Q403 289 406 283T407 271L322 60Q385 118 434 177ZM252 -53Q254 -46 266 -18Q258 -25 235 -42T197 -73T167 -101Q133 -135 119 -167Q105 -197 114 -213T148 -218Q161 -214 173 -202Q194 -182 213
-142Q228 -113 252 -53ZM289 369Q308 361 302 340Q295 327 281 325Q265 325 260 339Q254 352 264 364Q276 374 289 369ZM344 345Q363 337 357 316Q350 303 336 301Q320 301 315 315Q309 328 319 340Q331 350 344 345Z" />
</font>
</defs>
</svg>
